%TF.GenerationSoftware,KiCad,Pcbnew,5.1.10*%
%TF.CreationDate,2021-09-27T15:43:44+02:00*%
%TF.ProjectId,pinkytyl_v2,70696e6b-7974-4796-9c5f-76322e6b6963,rev?*%
%TF.SameCoordinates,Original*%
%TF.FileFunction,Legend,Bot*%
%TF.FilePolarity,Positive*%
%FSLAX46Y46*%
G04 Gerber Fmt 4.6, Leading zero omitted, Abs format (unit mm)*
G04 Created by KiCad (PCBNEW 5.1.10) date 2021-09-27 15:43:44*
%MOMM*%
%LPD*%
G01*
G04 APERTURE LIST*
%ADD10C,0.150000*%
G04 APERTURE END LIST*
D10*
%TO.C,K12*%
X111610000Y-60690000D02*
X110610000Y-60690000D01*
X124610000Y-60690000D02*
X123610000Y-60690000D01*
X124610000Y-59690000D02*
X124610000Y-60690000D01*
X124610000Y-46690000D02*
X124610000Y-47690000D01*
X110610000Y-46690000D02*
X111610000Y-46690000D01*
X110610000Y-47690000D02*
X110610000Y-46690000D01*
X123610000Y-46690000D02*
X124610000Y-46690000D01*
X110610000Y-60690000D02*
X110610000Y-59690000D01*
%TO.C,K41*%
X185555616Y-138001765D02*
X184570808Y-137828117D01*
X198358117Y-140259192D02*
X197373309Y-140085543D01*
X198531765Y-139274384D02*
X198358117Y-140259192D01*
X200789192Y-126471883D02*
X200615543Y-127456691D01*
X187001883Y-124040808D02*
X187986691Y-124214457D01*
X186828235Y-125025616D02*
X187001883Y-124040808D01*
X199804384Y-126298235D02*
X200789192Y-126471883D01*
X184570808Y-137828117D02*
X184744457Y-136843309D01*
%TO.C,K40*%
X166815233Y-134696861D02*
X165831038Y-134519776D01*
X179609776Y-136998962D02*
X178625580Y-136821878D01*
X179786861Y-136014767D02*
X179609776Y-136998962D01*
X182088962Y-123220224D02*
X181911878Y-124204420D01*
X168310224Y-120741038D02*
X169294420Y-120918122D01*
X168133139Y-121725233D02*
X168310224Y-120741038D01*
X181104767Y-123043139D02*
X182088962Y-123220224D01*
X165831038Y-134519776D02*
X166008122Y-133535580D01*
%TO.C,K35*%
X168580000Y-100350000D02*
X167580000Y-100350000D01*
X181580000Y-100350000D02*
X180580000Y-100350000D01*
X181580000Y-99350000D02*
X181580000Y-100350000D01*
X181580000Y-86350000D02*
X181580000Y-87350000D01*
X167580000Y-86350000D02*
X168580000Y-86350000D01*
X167580000Y-87350000D02*
X167580000Y-86350000D01*
X180580000Y-86350000D02*
X181580000Y-86350000D01*
X167580000Y-100350000D02*
X167580000Y-99350000D01*
%TO.C,K34*%
X149590000Y-100330000D02*
X148590000Y-100330000D01*
X162590000Y-100330000D02*
X161590000Y-100330000D01*
X162590000Y-99330000D02*
X162590000Y-100330000D01*
X162590000Y-86330000D02*
X162590000Y-87330000D01*
X148590000Y-86330000D02*
X149590000Y-86330000D01*
X148590000Y-87330000D02*
X148590000Y-86330000D01*
X161590000Y-86330000D02*
X162590000Y-86330000D01*
X148590000Y-100330000D02*
X148590000Y-99330000D01*
%TO.C,K33*%
X130620000Y-90170000D02*
X129620000Y-90170000D01*
X143620000Y-90170000D02*
X142620000Y-90170000D01*
X143620000Y-89170000D02*
X143620000Y-90170000D01*
X143620000Y-76170000D02*
X143620000Y-77170000D01*
X129620000Y-76170000D02*
X130620000Y-76170000D01*
X129620000Y-77170000D02*
X129620000Y-76170000D01*
X142620000Y-76170000D02*
X143620000Y-76170000D01*
X129620000Y-90170000D02*
X129620000Y-89170000D01*
%TO.C,K32*%
X111620000Y-98740000D02*
X110620000Y-98740000D01*
X124620000Y-98740000D02*
X123620000Y-98740000D01*
X124620000Y-97740000D02*
X124620000Y-98740000D01*
X124620000Y-84740000D02*
X124620000Y-85740000D01*
X110620000Y-84740000D02*
X111620000Y-84740000D01*
X110620000Y-85740000D02*
X110620000Y-84740000D01*
X123620000Y-84740000D02*
X124620000Y-84740000D01*
X110620000Y-98740000D02*
X110620000Y-97740000D01*
%TO.C,K31*%
X92580000Y-128370000D02*
X91580000Y-128370000D01*
X105580000Y-128370000D02*
X104580000Y-128370000D01*
X105580000Y-127370000D02*
X105580000Y-128370000D01*
X105580000Y-114370000D02*
X105580000Y-115370000D01*
X91580000Y-114370000D02*
X92580000Y-114370000D01*
X91580000Y-115370000D02*
X91580000Y-114370000D01*
X104580000Y-114370000D02*
X105580000Y-114370000D01*
X91580000Y-128370000D02*
X91580000Y-127370000D01*
%TO.C,K30*%
X73560000Y-128380000D02*
X72560000Y-128380000D01*
X86560000Y-128380000D02*
X85560000Y-128380000D01*
X86560000Y-127380000D02*
X86560000Y-128380000D01*
X86560000Y-114380000D02*
X86560000Y-115380000D01*
X72560000Y-114380000D02*
X73560000Y-114380000D01*
X72560000Y-115380000D02*
X72560000Y-114380000D01*
X85560000Y-114380000D02*
X86560000Y-114380000D01*
X72560000Y-128380000D02*
X72560000Y-127380000D01*
%TO.C,K25*%
X168600000Y-81360000D02*
X167600000Y-81360000D01*
X181600000Y-81360000D02*
X180600000Y-81360000D01*
X181600000Y-80360000D02*
X181600000Y-81360000D01*
X181600000Y-67360000D02*
X181600000Y-68360000D01*
X167600000Y-67360000D02*
X168600000Y-67360000D01*
X167600000Y-68360000D02*
X167600000Y-67360000D01*
X180600000Y-67360000D02*
X181600000Y-67360000D01*
X167600000Y-81360000D02*
X167600000Y-80360000D01*
%TO.C,K24*%
X149580000Y-81330000D02*
X148580000Y-81330000D01*
X162580000Y-81330000D02*
X161580000Y-81330000D01*
X162580000Y-80330000D02*
X162580000Y-81330000D01*
X162580000Y-67330000D02*
X162580000Y-68330000D01*
X148580000Y-67330000D02*
X149580000Y-67330000D01*
X148580000Y-68330000D02*
X148580000Y-67330000D01*
X161580000Y-67330000D02*
X162580000Y-67330000D01*
X148580000Y-81330000D02*
X148580000Y-80330000D01*
%TO.C,K23*%
X130600000Y-71150000D02*
X129600000Y-71150000D01*
X143600000Y-71150000D02*
X142600000Y-71150000D01*
X143600000Y-70150000D02*
X143600000Y-71150000D01*
X143600000Y-57150000D02*
X143600000Y-58150000D01*
X129600000Y-57150000D02*
X130600000Y-57150000D01*
X129600000Y-58150000D02*
X129600000Y-57150000D01*
X142600000Y-57150000D02*
X143600000Y-57150000D01*
X129600000Y-71150000D02*
X129600000Y-70150000D01*
%TO.C,K22*%
X111620000Y-79700000D02*
X110620000Y-79700000D01*
X124620000Y-79700000D02*
X123620000Y-79700000D01*
X124620000Y-78700000D02*
X124620000Y-79700000D01*
X124620000Y-65700000D02*
X124620000Y-66700000D01*
X110620000Y-65700000D02*
X111620000Y-65700000D01*
X110620000Y-66700000D02*
X110620000Y-65700000D01*
X123620000Y-65700000D02*
X124620000Y-65700000D01*
X110620000Y-79700000D02*
X110620000Y-78700000D01*
%TO.C,K21*%
X92580000Y-109320000D02*
X91580000Y-109320000D01*
X105580000Y-109320000D02*
X104580000Y-109320000D01*
X105580000Y-108320000D02*
X105580000Y-109320000D01*
X105580000Y-95320000D02*
X105580000Y-96320000D01*
X91580000Y-95320000D02*
X92580000Y-95320000D01*
X91580000Y-96320000D02*
X91580000Y-95320000D01*
X104580000Y-95320000D02*
X105580000Y-95320000D01*
X91580000Y-109320000D02*
X91580000Y-108320000D01*
%TO.C,K20*%
X73580000Y-109360000D02*
X72580000Y-109360000D01*
X86580000Y-109360000D02*
X85580000Y-109360000D01*
X86580000Y-108360000D02*
X86580000Y-109360000D01*
X86580000Y-95360000D02*
X86580000Y-96360000D01*
X72580000Y-95360000D02*
X73580000Y-95360000D01*
X72580000Y-96360000D02*
X72580000Y-95360000D01*
X85580000Y-95360000D02*
X86580000Y-95360000D01*
X72580000Y-109360000D02*
X72580000Y-108360000D01*
%TO.C,K15*%
X168590000Y-62340000D02*
X167590000Y-62340000D01*
X181590000Y-62340000D02*
X180590000Y-62340000D01*
X181590000Y-61340000D02*
X181590000Y-62340000D01*
X181590000Y-48340000D02*
X181590000Y-49340000D01*
X167590000Y-48340000D02*
X168590000Y-48340000D01*
X167590000Y-49340000D02*
X167590000Y-48340000D01*
X180590000Y-48340000D02*
X181590000Y-48340000D01*
X167590000Y-62340000D02*
X167590000Y-61340000D01*
%TO.C,K14*%
X149570000Y-62360000D02*
X148570000Y-62360000D01*
X162570000Y-62360000D02*
X161570000Y-62360000D01*
X162570000Y-61360000D02*
X162570000Y-62360000D01*
X162570000Y-48360000D02*
X162570000Y-49360000D01*
X148570000Y-48360000D02*
X149570000Y-48360000D01*
X148570000Y-49360000D02*
X148570000Y-48360000D01*
X161570000Y-48360000D02*
X162570000Y-48360000D01*
X148570000Y-62360000D02*
X148570000Y-61360000D01*
%TO.C,K13*%
X130600000Y-52140000D02*
X129600000Y-52140000D01*
X143600000Y-52140000D02*
X142600000Y-52140000D01*
X143600000Y-51140000D02*
X143600000Y-52140000D01*
X143600000Y-38140000D02*
X143600000Y-39140000D01*
X129600000Y-38140000D02*
X130600000Y-38140000D01*
X129600000Y-39140000D02*
X129600000Y-38140000D01*
X142600000Y-38140000D02*
X143600000Y-38140000D01*
X129600000Y-52140000D02*
X129600000Y-51140000D01*
%TO.C,K11*%
X92600000Y-90380000D02*
X91600000Y-90380000D01*
X105600000Y-90380000D02*
X104600000Y-90380000D01*
X105600000Y-89380000D02*
X105600000Y-90380000D01*
X105600000Y-76380000D02*
X105600000Y-77380000D01*
X91600000Y-76380000D02*
X92600000Y-76380000D01*
X91600000Y-77380000D02*
X91600000Y-76380000D01*
X104600000Y-76380000D02*
X105600000Y-76380000D01*
X91600000Y-90380000D02*
X91600000Y-89380000D01*
%TO.C,K10*%
X73580000Y-90340000D02*
X72580000Y-90340000D01*
X86580000Y-90340000D02*
X85580000Y-90340000D01*
X86580000Y-89340000D02*
X86580000Y-90340000D01*
X86580000Y-76340000D02*
X86580000Y-77340000D01*
X72580000Y-76340000D02*
X73580000Y-76340000D01*
X72580000Y-77340000D02*
X72580000Y-76340000D01*
X85580000Y-76340000D02*
X86580000Y-76340000D01*
X72580000Y-90340000D02*
X72580000Y-89340000D01*
%TO.C,K0*%
X92620000Y-71370000D02*
X91620000Y-71370000D01*
X105620000Y-71370000D02*
X104620000Y-71370000D01*
X105620000Y-70370000D02*
X105620000Y-71370000D01*
X105620000Y-57370000D02*
X105620000Y-58370000D01*
X91620000Y-57370000D02*
X92620000Y-57370000D01*
X91620000Y-58370000D02*
X91620000Y-57370000D01*
X104620000Y-57370000D02*
X105620000Y-57370000D01*
X91620000Y-71370000D02*
X91620000Y-70370000D01*
%TO.C,K12*%
X118824285Y-51094380D02*
X118824285Y-50094380D01*
X118252857Y-51094380D02*
X118681428Y-50522952D01*
X118252857Y-50094380D02*
X118824285Y-50665809D01*
X117300476Y-51094380D02*
X117871904Y-51094380D01*
X117586190Y-51094380D02*
X117586190Y-50094380D01*
X117681428Y-50237238D01*
X117776666Y-50332476D01*
X117871904Y-50380095D01*
X116919523Y-50189619D02*
X116871904Y-50142000D01*
X116776666Y-50094380D01*
X116538571Y-50094380D01*
X116443333Y-50142000D01*
X116395714Y-50189619D01*
X116348095Y-50284857D01*
X116348095Y-50380095D01*
X116395714Y-50522952D01*
X116967142Y-51094380D01*
X116348095Y-51094380D01*
%TO.C,K41*%
X194326562Y-129804672D02*
X194500211Y-128819865D01*
X193763815Y-129705445D02*
X194285103Y-129217118D01*
X193937463Y-128720637D02*
X194400983Y-129382612D01*
X193035460Y-128900065D02*
X192919694Y-129556603D01*
X193336089Y-128566245D02*
X193446533Y-129311024D01*
X192836890Y-129203527D01*
X191887991Y-129374686D02*
X192450738Y-129473914D01*
X192169364Y-129424300D02*
X192343013Y-128439492D01*
X192411997Y-128596717D01*
X192489250Y-128707046D01*
X192574772Y-128770480D01*
%TO.C,K40*%
X175614738Y-126530434D02*
X175791823Y-125546239D01*
X175052341Y-126429243D02*
X175575330Y-125942739D01*
X175229426Y-125445047D02*
X175690632Y-126108636D01*
X174326801Y-125621326D02*
X174208745Y-126277456D01*
X174628594Y-125288557D02*
X174736437Y-126033717D01*
X174127174Y-125924093D01*
X173682833Y-125166771D02*
X173589100Y-125149906D01*
X173486934Y-125179907D01*
X173431635Y-125218341D01*
X173367903Y-125303642D01*
X173287306Y-125482675D01*
X173245143Y-125717007D01*
X173258279Y-125912906D01*
X173288281Y-126015071D01*
X173326715Y-126070370D01*
X173412015Y-126134102D01*
X173505748Y-126150967D01*
X173607913Y-126120966D01*
X173663212Y-126082532D01*
X173726944Y-125997232D01*
X173807541Y-125818198D01*
X173849704Y-125583866D01*
X173836568Y-125387968D01*
X173806567Y-125285802D01*
X173768133Y-125230503D01*
X173682833Y-125166771D01*
%TO.C,K35*%
X175794285Y-90754380D02*
X175794285Y-89754380D01*
X175222857Y-90754380D02*
X175651428Y-90182952D01*
X175222857Y-89754380D02*
X175794285Y-90325809D01*
X174889523Y-89754380D02*
X174270476Y-89754380D01*
X174603809Y-90135333D01*
X174460952Y-90135333D01*
X174365714Y-90182952D01*
X174318095Y-90230571D01*
X174270476Y-90325809D01*
X174270476Y-90563904D01*
X174318095Y-90659142D01*
X174365714Y-90706761D01*
X174460952Y-90754380D01*
X174746666Y-90754380D01*
X174841904Y-90706761D01*
X174889523Y-90659142D01*
X173365714Y-89754380D02*
X173841904Y-89754380D01*
X173889523Y-90230571D01*
X173841904Y-90182952D01*
X173746666Y-90135333D01*
X173508571Y-90135333D01*
X173413333Y-90182952D01*
X173365714Y-90230571D01*
X173318095Y-90325809D01*
X173318095Y-90563904D01*
X173365714Y-90659142D01*
X173413333Y-90706761D01*
X173508571Y-90754380D01*
X173746666Y-90754380D01*
X173841904Y-90706761D01*
X173889523Y-90659142D01*
%TO.C,K34*%
X156804285Y-90734380D02*
X156804285Y-89734380D01*
X156232857Y-90734380D02*
X156661428Y-90162952D01*
X156232857Y-89734380D02*
X156804285Y-90305809D01*
X155899523Y-89734380D02*
X155280476Y-89734380D01*
X155613809Y-90115333D01*
X155470952Y-90115333D01*
X155375714Y-90162952D01*
X155328095Y-90210571D01*
X155280476Y-90305809D01*
X155280476Y-90543904D01*
X155328095Y-90639142D01*
X155375714Y-90686761D01*
X155470952Y-90734380D01*
X155756666Y-90734380D01*
X155851904Y-90686761D01*
X155899523Y-90639142D01*
X154423333Y-90067714D02*
X154423333Y-90734380D01*
X154661428Y-89686761D02*
X154899523Y-90401047D01*
X154280476Y-90401047D01*
%TO.C,K33*%
X137834285Y-80574380D02*
X137834285Y-79574380D01*
X137262857Y-80574380D02*
X137691428Y-80002952D01*
X137262857Y-79574380D02*
X137834285Y-80145809D01*
X136929523Y-79574380D02*
X136310476Y-79574380D01*
X136643809Y-79955333D01*
X136500952Y-79955333D01*
X136405714Y-80002952D01*
X136358095Y-80050571D01*
X136310476Y-80145809D01*
X136310476Y-80383904D01*
X136358095Y-80479142D01*
X136405714Y-80526761D01*
X136500952Y-80574380D01*
X136786666Y-80574380D01*
X136881904Y-80526761D01*
X136929523Y-80479142D01*
X135977142Y-79574380D02*
X135358095Y-79574380D01*
X135691428Y-79955333D01*
X135548571Y-79955333D01*
X135453333Y-80002952D01*
X135405714Y-80050571D01*
X135358095Y-80145809D01*
X135358095Y-80383904D01*
X135405714Y-80479142D01*
X135453333Y-80526761D01*
X135548571Y-80574380D01*
X135834285Y-80574380D01*
X135929523Y-80526761D01*
X135977142Y-80479142D01*
%TO.C,K32*%
X118834285Y-89144380D02*
X118834285Y-88144380D01*
X118262857Y-89144380D02*
X118691428Y-88572952D01*
X118262857Y-88144380D02*
X118834285Y-88715809D01*
X117929523Y-88144380D02*
X117310476Y-88144380D01*
X117643809Y-88525333D01*
X117500952Y-88525333D01*
X117405714Y-88572952D01*
X117358095Y-88620571D01*
X117310476Y-88715809D01*
X117310476Y-88953904D01*
X117358095Y-89049142D01*
X117405714Y-89096761D01*
X117500952Y-89144380D01*
X117786666Y-89144380D01*
X117881904Y-89096761D01*
X117929523Y-89049142D01*
X116929523Y-88239619D02*
X116881904Y-88192000D01*
X116786666Y-88144380D01*
X116548571Y-88144380D01*
X116453333Y-88192000D01*
X116405714Y-88239619D01*
X116358095Y-88334857D01*
X116358095Y-88430095D01*
X116405714Y-88572952D01*
X116977142Y-89144380D01*
X116358095Y-89144380D01*
%TO.C,K31*%
X99794285Y-118774380D02*
X99794285Y-117774380D01*
X99222857Y-118774380D02*
X99651428Y-118202952D01*
X99222857Y-117774380D02*
X99794285Y-118345809D01*
X98889523Y-117774380D02*
X98270476Y-117774380D01*
X98603809Y-118155333D01*
X98460952Y-118155333D01*
X98365714Y-118202952D01*
X98318095Y-118250571D01*
X98270476Y-118345809D01*
X98270476Y-118583904D01*
X98318095Y-118679142D01*
X98365714Y-118726761D01*
X98460952Y-118774380D01*
X98746666Y-118774380D01*
X98841904Y-118726761D01*
X98889523Y-118679142D01*
X97318095Y-118774380D02*
X97889523Y-118774380D01*
X97603809Y-118774380D02*
X97603809Y-117774380D01*
X97699047Y-117917238D01*
X97794285Y-118012476D01*
X97889523Y-118060095D01*
%TO.C,K30*%
X80774285Y-118784380D02*
X80774285Y-117784380D01*
X80202857Y-118784380D02*
X80631428Y-118212952D01*
X80202857Y-117784380D02*
X80774285Y-118355809D01*
X79869523Y-117784380D02*
X79250476Y-117784380D01*
X79583809Y-118165333D01*
X79440952Y-118165333D01*
X79345714Y-118212952D01*
X79298095Y-118260571D01*
X79250476Y-118355809D01*
X79250476Y-118593904D01*
X79298095Y-118689142D01*
X79345714Y-118736761D01*
X79440952Y-118784380D01*
X79726666Y-118784380D01*
X79821904Y-118736761D01*
X79869523Y-118689142D01*
X78631428Y-117784380D02*
X78536190Y-117784380D01*
X78440952Y-117832000D01*
X78393333Y-117879619D01*
X78345714Y-117974857D01*
X78298095Y-118165333D01*
X78298095Y-118403428D01*
X78345714Y-118593904D01*
X78393333Y-118689142D01*
X78440952Y-118736761D01*
X78536190Y-118784380D01*
X78631428Y-118784380D01*
X78726666Y-118736761D01*
X78774285Y-118689142D01*
X78821904Y-118593904D01*
X78869523Y-118403428D01*
X78869523Y-118165333D01*
X78821904Y-117974857D01*
X78774285Y-117879619D01*
X78726666Y-117832000D01*
X78631428Y-117784380D01*
%TO.C,K25*%
X175814285Y-71764380D02*
X175814285Y-70764380D01*
X175242857Y-71764380D02*
X175671428Y-71192952D01*
X175242857Y-70764380D02*
X175814285Y-71335809D01*
X174861904Y-70859619D02*
X174814285Y-70812000D01*
X174719047Y-70764380D01*
X174480952Y-70764380D01*
X174385714Y-70812000D01*
X174338095Y-70859619D01*
X174290476Y-70954857D01*
X174290476Y-71050095D01*
X174338095Y-71192952D01*
X174909523Y-71764380D01*
X174290476Y-71764380D01*
X173385714Y-70764380D02*
X173861904Y-70764380D01*
X173909523Y-71240571D01*
X173861904Y-71192952D01*
X173766666Y-71145333D01*
X173528571Y-71145333D01*
X173433333Y-71192952D01*
X173385714Y-71240571D01*
X173338095Y-71335809D01*
X173338095Y-71573904D01*
X173385714Y-71669142D01*
X173433333Y-71716761D01*
X173528571Y-71764380D01*
X173766666Y-71764380D01*
X173861904Y-71716761D01*
X173909523Y-71669142D01*
%TO.C,K24*%
X156794285Y-71734380D02*
X156794285Y-70734380D01*
X156222857Y-71734380D02*
X156651428Y-71162952D01*
X156222857Y-70734380D02*
X156794285Y-71305809D01*
X155841904Y-70829619D02*
X155794285Y-70782000D01*
X155699047Y-70734380D01*
X155460952Y-70734380D01*
X155365714Y-70782000D01*
X155318095Y-70829619D01*
X155270476Y-70924857D01*
X155270476Y-71020095D01*
X155318095Y-71162952D01*
X155889523Y-71734380D01*
X155270476Y-71734380D01*
X154413333Y-71067714D02*
X154413333Y-71734380D01*
X154651428Y-70686761D02*
X154889523Y-71401047D01*
X154270476Y-71401047D01*
%TO.C,K23*%
X137814285Y-61554380D02*
X137814285Y-60554380D01*
X137242857Y-61554380D02*
X137671428Y-60982952D01*
X137242857Y-60554380D02*
X137814285Y-61125809D01*
X136861904Y-60649619D02*
X136814285Y-60602000D01*
X136719047Y-60554380D01*
X136480952Y-60554380D01*
X136385714Y-60602000D01*
X136338095Y-60649619D01*
X136290476Y-60744857D01*
X136290476Y-60840095D01*
X136338095Y-60982952D01*
X136909523Y-61554380D01*
X136290476Y-61554380D01*
X135957142Y-60554380D02*
X135338095Y-60554380D01*
X135671428Y-60935333D01*
X135528571Y-60935333D01*
X135433333Y-60982952D01*
X135385714Y-61030571D01*
X135338095Y-61125809D01*
X135338095Y-61363904D01*
X135385714Y-61459142D01*
X135433333Y-61506761D01*
X135528571Y-61554380D01*
X135814285Y-61554380D01*
X135909523Y-61506761D01*
X135957142Y-61459142D01*
%TO.C,K22*%
X118834285Y-70104380D02*
X118834285Y-69104380D01*
X118262857Y-70104380D02*
X118691428Y-69532952D01*
X118262857Y-69104380D02*
X118834285Y-69675809D01*
X117881904Y-69199619D02*
X117834285Y-69152000D01*
X117739047Y-69104380D01*
X117500952Y-69104380D01*
X117405714Y-69152000D01*
X117358095Y-69199619D01*
X117310476Y-69294857D01*
X117310476Y-69390095D01*
X117358095Y-69532952D01*
X117929523Y-70104380D01*
X117310476Y-70104380D01*
X116929523Y-69199619D02*
X116881904Y-69152000D01*
X116786666Y-69104380D01*
X116548571Y-69104380D01*
X116453333Y-69152000D01*
X116405714Y-69199619D01*
X116358095Y-69294857D01*
X116358095Y-69390095D01*
X116405714Y-69532952D01*
X116977142Y-70104380D01*
X116358095Y-70104380D01*
%TO.C,K21*%
X99794285Y-99724380D02*
X99794285Y-98724380D01*
X99222857Y-99724380D02*
X99651428Y-99152952D01*
X99222857Y-98724380D02*
X99794285Y-99295809D01*
X98841904Y-98819619D02*
X98794285Y-98772000D01*
X98699047Y-98724380D01*
X98460952Y-98724380D01*
X98365714Y-98772000D01*
X98318095Y-98819619D01*
X98270476Y-98914857D01*
X98270476Y-99010095D01*
X98318095Y-99152952D01*
X98889523Y-99724380D01*
X98270476Y-99724380D01*
X97318095Y-99724380D02*
X97889523Y-99724380D01*
X97603809Y-99724380D02*
X97603809Y-98724380D01*
X97699047Y-98867238D01*
X97794285Y-98962476D01*
X97889523Y-99010095D01*
%TO.C,K20*%
X80794285Y-99764380D02*
X80794285Y-98764380D01*
X80222857Y-99764380D02*
X80651428Y-99192952D01*
X80222857Y-98764380D02*
X80794285Y-99335809D01*
X79841904Y-98859619D02*
X79794285Y-98812000D01*
X79699047Y-98764380D01*
X79460952Y-98764380D01*
X79365714Y-98812000D01*
X79318095Y-98859619D01*
X79270476Y-98954857D01*
X79270476Y-99050095D01*
X79318095Y-99192952D01*
X79889523Y-99764380D01*
X79270476Y-99764380D01*
X78651428Y-98764380D02*
X78556190Y-98764380D01*
X78460952Y-98812000D01*
X78413333Y-98859619D01*
X78365714Y-98954857D01*
X78318095Y-99145333D01*
X78318095Y-99383428D01*
X78365714Y-99573904D01*
X78413333Y-99669142D01*
X78460952Y-99716761D01*
X78556190Y-99764380D01*
X78651428Y-99764380D01*
X78746666Y-99716761D01*
X78794285Y-99669142D01*
X78841904Y-99573904D01*
X78889523Y-99383428D01*
X78889523Y-99145333D01*
X78841904Y-98954857D01*
X78794285Y-98859619D01*
X78746666Y-98812000D01*
X78651428Y-98764380D01*
%TO.C,K15*%
X175804285Y-52744380D02*
X175804285Y-51744380D01*
X175232857Y-52744380D02*
X175661428Y-52172952D01*
X175232857Y-51744380D02*
X175804285Y-52315809D01*
X174280476Y-52744380D02*
X174851904Y-52744380D01*
X174566190Y-52744380D02*
X174566190Y-51744380D01*
X174661428Y-51887238D01*
X174756666Y-51982476D01*
X174851904Y-52030095D01*
X173375714Y-51744380D02*
X173851904Y-51744380D01*
X173899523Y-52220571D01*
X173851904Y-52172952D01*
X173756666Y-52125333D01*
X173518571Y-52125333D01*
X173423333Y-52172952D01*
X173375714Y-52220571D01*
X173328095Y-52315809D01*
X173328095Y-52553904D01*
X173375714Y-52649142D01*
X173423333Y-52696761D01*
X173518571Y-52744380D01*
X173756666Y-52744380D01*
X173851904Y-52696761D01*
X173899523Y-52649142D01*
%TO.C,K14*%
X156784285Y-52764380D02*
X156784285Y-51764380D01*
X156212857Y-52764380D02*
X156641428Y-52192952D01*
X156212857Y-51764380D02*
X156784285Y-52335809D01*
X155260476Y-52764380D02*
X155831904Y-52764380D01*
X155546190Y-52764380D02*
X155546190Y-51764380D01*
X155641428Y-51907238D01*
X155736666Y-52002476D01*
X155831904Y-52050095D01*
X154403333Y-52097714D02*
X154403333Y-52764380D01*
X154641428Y-51716761D02*
X154879523Y-52431047D01*
X154260476Y-52431047D01*
%TO.C,K13*%
X137814285Y-42544380D02*
X137814285Y-41544380D01*
X137242857Y-42544380D02*
X137671428Y-41972952D01*
X137242857Y-41544380D02*
X137814285Y-42115809D01*
X136290476Y-42544380D02*
X136861904Y-42544380D01*
X136576190Y-42544380D02*
X136576190Y-41544380D01*
X136671428Y-41687238D01*
X136766666Y-41782476D01*
X136861904Y-41830095D01*
X135957142Y-41544380D02*
X135338095Y-41544380D01*
X135671428Y-41925333D01*
X135528571Y-41925333D01*
X135433333Y-41972952D01*
X135385714Y-42020571D01*
X135338095Y-42115809D01*
X135338095Y-42353904D01*
X135385714Y-42449142D01*
X135433333Y-42496761D01*
X135528571Y-42544380D01*
X135814285Y-42544380D01*
X135909523Y-42496761D01*
X135957142Y-42449142D01*
%TO.C,K11*%
X99814285Y-80784380D02*
X99814285Y-79784380D01*
X99242857Y-80784380D02*
X99671428Y-80212952D01*
X99242857Y-79784380D02*
X99814285Y-80355809D01*
X98290476Y-80784380D02*
X98861904Y-80784380D01*
X98576190Y-80784380D02*
X98576190Y-79784380D01*
X98671428Y-79927238D01*
X98766666Y-80022476D01*
X98861904Y-80070095D01*
X97338095Y-80784380D02*
X97909523Y-80784380D01*
X97623809Y-80784380D02*
X97623809Y-79784380D01*
X97719047Y-79927238D01*
X97814285Y-80022476D01*
X97909523Y-80070095D01*
%TO.C,K10*%
X80794285Y-80744380D02*
X80794285Y-79744380D01*
X80222857Y-80744380D02*
X80651428Y-80172952D01*
X80222857Y-79744380D02*
X80794285Y-80315809D01*
X79270476Y-80744380D02*
X79841904Y-80744380D01*
X79556190Y-80744380D02*
X79556190Y-79744380D01*
X79651428Y-79887238D01*
X79746666Y-79982476D01*
X79841904Y-80030095D01*
X78651428Y-79744380D02*
X78556190Y-79744380D01*
X78460952Y-79792000D01*
X78413333Y-79839619D01*
X78365714Y-79934857D01*
X78318095Y-80125333D01*
X78318095Y-80363428D01*
X78365714Y-80553904D01*
X78413333Y-80649142D01*
X78460952Y-80696761D01*
X78556190Y-80744380D01*
X78651428Y-80744380D01*
X78746666Y-80696761D01*
X78794285Y-80649142D01*
X78841904Y-80553904D01*
X78889523Y-80363428D01*
X78889523Y-80125333D01*
X78841904Y-79934857D01*
X78794285Y-79839619D01*
X78746666Y-79792000D01*
X78651428Y-79744380D01*
%TO.C,K0*%
X99358095Y-61774380D02*
X99358095Y-60774380D01*
X98786666Y-61774380D02*
X99215238Y-61202952D01*
X98786666Y-60774380D02*
X99358095Y-61345809D01*
X98167619Y-60774380D02*
X98072380Y-60774380D01*
X97977142Y-60822000D01*
X97929523Y-60869619D01*
X97881904Y-60964857D01*
X97834285Y-61155333D01*
X97834285Y-61393428D01*
X97881904Y-61583904D01*
X97929523Y-61679142D01*
X97977142Y-61726761D01*
X98072380Y-61774380D01*
X98167619Y-61774380D01*
X98262857Y-61726761D01*
X98310476Y-61679142D01*
X98358095Y-61583904D01*
X98405714Y-61393428D01*
X98405714Y-61155333D01*
X98358095Y-60964857D01*
X98310476Y-60869619D01*
X98262857Y-60822000D01*
X98167619Y-60774380D01*
%TD*%
M02*
