M48
; DRILL file {KiCad 5.1.10} date Mon Sep 27 15:43:27 2021
; FORMAT={-:-/ absolute / inch / decimal}
; #@! TF.CreationDate,2021-09-27T15:43:27+02:00
; #@! TF.GenerationSoftware,Kicad,Pcbnew,5.1.10
; #@! TF.FileFunction,Plated,1,2,PTH
FMAT,2
INCH
T1C0.0157
T2C0.0236
T3C0.0256
T4C0.0315
T5C0.0335
T6C0.0590
T7C0.0866
%
G90
G05
T1
X4.8528Y-1.6764
X4.8539Y-2.8827
X4.8976Y-1.6854
X4.8988Y-2.8913
X4.9476Y-2.8933
X4.9484Y-1.6858
X5.8323Y-2.7618
X5.8867Y-3.7129
X6.1079Y-4.1752
X6.1098Y-4.0413
X6.1394Y-3.812
X6.3058Y-4.4107
X6.3313Y-4.1543
X6.3512Y-4.4126
X6.3567Y-4.6083
X6.3756Y-3.3728
X6.3764Y-4.3461
X6.3843Y-3.9449
X6.3858Y-3.8803
X6.4132Y-4.0953
X6.4134Y-4.3258
X6.4142Y-1.9654
X6.4418Y-4.2936
X6.472Y-4.263
X6.489Y-4.1675
X6.5201Y-3.5685
X6.5374Y-3.7528
X6.5413Y-2.5626
X6.5439Y-4.1901
X6.5551Y-4.1512
X6.5925Y-3.2744
X6.5969Y-3.9503
X6.6228Y-2.2772
X6.6382Y-3.8311
X6.7252Y-3.9858
X6.726Y-4.1618
X6.7276Y-4.398
X6.7276Y-4.4799
X6.8335Y-3.2421
X6.8362Y-2.3591
X6.8575Y-4.0394
X6.8646Y-4.2
X6.8854Y-3.2433
X6.9004Y-4.0921
X6.9008Y-3.8594
X6.9539Y-3.9329
X6.9746Y-4.8237
X7.0268Y-4.113
X7.0272Y-3.8319
X7.0571Y-4.8547
X7.061Y-4.3555
X7.1028Y-3.3193
X7.1031Y-4.3063
X7.1445Y-4.165
X7.2138Y-3.9874
X7.272Y-4.7634
X7.2732Y-4.1098
X7.3701Y-4.7843
T3
X7.2992Y-4.4972
X7.3492Y-4.4972
T5
X4.5409Y-1.7509
X4.7378Y-1.7509
T6
X2.9823Y-4.6787
X2.9831Y-3.1811
X2.9831Y-3.9299
X3.0323Y-4.5787
X3.0331Y-3.0811
X3.0331Y-3.8299
X3.2323Y-4.5787
X3.2331Y-3.0811
X3.2331Y-3.8299
X3.2823Y-4.6787
X3.2831Y-3.1811
X3.2831Y-3.9299
X3.7311Y-3.9283
X3.7311Y-4.6783
X3.7319Y-3.1827
X3.7327Y-2.4343
X3.7811Y-3.8283
X3.7811Y-4.5783
X3.7819Y-3.0827
X3.7827Y-2.3343
X3.9811Y-3.8283
X3.9811Y-4.5783
X3.9819Y-3.0827
X3.9827Y-2.3343
X4.0311Y-3.9283
X4.0311Y-4.6783
X4.0319Y-3.1827
X4.0327Y-2.4343
X4.4803Y-2.0138
X4.4807Y-2.7622
X4.4807Y-3.5118
X4.5303Y-1.9138
X4.5307Y-2.6622
X4.5307Y-3.4118
X4.7303Y-1.9138
X4.7307Y-2.6622
X4.7307Y-3.4118
X4.7803Y-2.0138
X4.7807Y-2.7622
X4.7807Y-3.5118
X5.228Y-1.6772
X5.228Y-2.4256
X5.2287Y-3.1744
X5.278Y-1.5772
X5.278Y-2.3256
X5.2787Y-3.0744
X5.478Y-1.5772
X5.478Y-2.3256
X5.4787Y-3.0744
X5.528Y-1.6772
X5.528Y-2.4256
X5.5287Y-3.1744
X5.9748Y-2.0795
X5.9752Y-2.8264
X5.9756Y-3.5744
X6.0248Y-1.9795
X6.0252Y-2.7264
X6.0256Y-3.4744
X6.2248Y-1.9795
X6.2252Y-2.7264
X6.2256Y-3.4744
X6.2748Y-2.0795
X6.2752Y-2.8264
X6.2756Y-3.5744
X6.7189Y-4.9486
X6.7232Y-3.5752
X6.7236Y-2.0787
X6.724Y-2.8276
X6.7732Y-3.4752
X6.7736Y-1.9787
X6.774Y-2.7276
X6.7858Y-4.8591
X6.9732Y-3.4752
X6.9736Y-1.9787
X6.974Y-2.7276
X6.9827Y-4.8945
X7.0142Y-5.0018
X7.0232Y-3.5752
X7.0236Y-2.0787
X7.024Y-2.8276
X7.4555Y-5.0782
X7.5221Y-4.9884
X7.719Y-5.0232
X7.7509Y-5.1303
T7
X3.5185Y-4.4126
X4.2358Y-2.9098
X5.7661Y-2.5681
X7.1827Y-5.3398
T2
G00X4.5016Y-1.6584
M15
G01X4.5016Y-1.6308
M16
G05
G00X4.7772Y-1.6308
M15
G01X4.7772Y-1.6584
M16
G05
T4
G00X7.2528Y-1.95
M15
G01X7.2528Y-1.9776
M16
G05
G00X7.2705Y-2.265
M15
G01X7.2705Y-2.2925
M16
G05
G00X7.3689Y-2.3102
M15
G01X7.3965Y-2.3102
M16
G05
G00X7.4949Y-2.265
M15
G01X7.4949Y-2.2925
M16
G05
G00X7.5126Y-1.95
M15
G01X7.5126Y-1.9776
M16
G05
T0
M30
