%TF.GenerationSoftware,KiCad,Pcbnew,5.1.10*%
%TF.CreationDate,2021-10-18T20:14:54+02:00*%
%TF.ProjectId,pinkytyl_v2,70696e6b-7974-4796-9c5f-76322e6b6963,rev?*%
%TF.SameCoordinates,Original*%
%TF.FileFunction,Legend,Bot*%
%TF.FilePolarity,Positive*%
%FSLAX46Y46*%
G04 Gerber Fmt 4.6, Leading zero omitted, Abs format (unit mm)*
G04 Created by KiCad (PCBNEW 5.1.10) date 2021-10-18 20:14:54*
%MOMM*%
%LPD*%
G01*
G04 APERTURE LIST*
%ADD10C,0.150000*%
G04 APERTURE END LIST*
D10*
%TO.C,K35*%
X167580000Y-87350000D02*
X167580000Y-86350000D01*
X167580000Y-86350000D02*
X168580000Y-86350000D01*
X168580000Y-100350000D02*
X167580000Y-100350000D01*
X167580000Y-100350000D02*
X167580000Y-99350000D01*
X181580000Y-99350000D02*
X181580000Y-100350000D01*
X181580000Y-100350000D02*
X180580000Y-100350000D01*
X180580000Y-86350000D02*
X181580000Y-86350000D01*
X181580000Y-86350000D02*
X181580000Y-87350000D01*
%TO.C,K33*%
X129620000Y-77170000D02*
X129620000Y-76170000D01*
X129620000Y-76170000D02*
X130620000Y-76170000D01*
X130620000Y-90170000D02*
X129620000Y-90170000D01*
X129620000Y-90170000D02*
X129620000Y-89170000D01*
X143620000Y-89170000D02*
X143620000Y-90170000D01*
X143620000Y-90170000D02*
X142620000Y-90170000D01*
X142620000Y-76170000D02*
X143620000Y-76170000D01*
X143620000Y-76170000D02*
X143620000Y-77170000D01*
%TO.C,K21*%
X91580000Y-96320000D02*
X91580000Y-95320000D01*
X91580000Y-95320000D02*
X92580000Y-95320000D01*
X92580000Y-109320000D02*
X91580000Y-109320000D01*
X91580000Y-109320000D02*
X91580000Y-108320000D01*
X105580000Y-108320000D02*
X105580000Y-109320000D01*
X105580000Y-109320000D02*
X104580000Y-109320000D01*
X104580000Y-95320000D02*
X105580000Y-95320000D01*
X105580000Y-95320000D02*
X105580000Y-96320000D01*
%TO.C,K20*%
X72580000Y-96360000D02*
X72580000Y-95360000D01*
X72580000Y-95360000D02*
X73580000Y-95360000D01*
X73580000Y-109360000D02*
X72580000Y-109360000D01*
X72580000Y-109360000D02*
X72580000Y-108360000D01*
X86580000Y-108360000D02*
X86580000Y-109360000D01*
X86580000Y-109360000D02*
X85580000Y-109360000D01*
X85580000Y-95360000D02*
X86580000Y-95360000D01*
X86580000Y-95360000D02*
X86580000Y-96360000D01*
%TO.C,K30*%
X72560000Y-115380000D02*
X72560000Y-114380000D01*
X72560000Y-114380000D02*
X73560000Y-114380000D01*
X73560000Y-128380000D02*
X72560000Y-128380000D01*
X72560000Y-128380000D02*
X72560000Y-127380000D01*
X86560000Y-127380000D02*
X86560000Y-128380000D01*
X86560000Y-128380000D02*
X85560000Y-128380000D01*
X85560000Y-114380000D02*
X86560000Y-114380000D01*
X86560000Y-114380000D02*
X86560000Y-115380000D01*
%TO.C,K31*%
X91580000Y-115370000D02*
X91580000Y-114370000D01*
X91580000Y-114370000D02*
X92580000Y-114370000D01*
X92580000Y-128370000D02*
X91580000Y-128370000D01*
X91580000Y-128370000D02*
X91580000Y-127370000D01*
X105580000Y-127370000D02*
X105580000Y-128370000D01*
X105580000Y-128370000D02*
X104580000Y-128370000D01*
X104580000Y-114370000D02*
X105580000Y-114370000D01*
X105580000Y-114370000D02*
X105580000Y-115370000D01*
%TO.C,K41*%
X186828235Y-125025616D02*
X187001883Y-124040808D01*
X187001883Y-124040808D02*
X187986691Y-124214457D01*
X185555616Y-138001765D02*
X184570808Y-137828117D01*
X184570808Y-137828117D02*
X184744457Y-136843309D01*
X198531765Y-139274384D02*
X198358117Y-140259192D01*
X198358117Y-140259192D02*
X197373309Y-140085543D01*
X199804384Y-126298235D02*
X200789192Y-126471883D01*
X200789192Y-126471883D02*
X200615543Y-127456691D01*
%TO.C,K40*%
X168133139Y-121725233D02*
X168310224Y-120741038D01*
X168310224Y-120741038D02*
X169294420Y-120918122D01*
X166815233Y-134696861D02*
X165831038Y-134519776D01*
X165831038Y-134519776D02*
X166008122Y-133535580D01*
X179786861Y-136014767D02*
X179609776Y-136998962D01*
X179609776Y-136998962D02*
X178625580Y-136821878D01*
X181104767Y-123043139D02*
X182088962Y-123220224D01*
X182088962Y-123220224D02*
X181911878Y-124204420D01*
%TO.C,K34*%
X148590000Y-87330000D02*
X148590000Y-86330000D01*
X148590000Y-86330000D02*
X149590000Y-86330000D01*
X149590000Y-100330000D02*
X148590000Y-100330000D01*
X148590000Y-100330000D02*
X148590000Y-99330000D01*
X162590000Y-99330000D02*
X162590000Y-100330000D01*
X162590000Y-100330000D02*
X161590000Y-100330000D01*
X161590000Y-86330000D02*
X162590000Y-86330000D01*
X162590000Y-86330000D02*
X162590000Y-87330000D01*
%TO.C,K32*%
X110620000Y-85740000D02*
X110620000Y-84740000D01*
X110620000Y-84740000D02*
X111620000Y-84740000D01*
X111620000Y-98740000D02*
X110620000Y-98740000D01*
X110620000Y-98740000D02*
X110620000Y-97740000D01*
X124620000Y-97740000D02*
X124620000Y-98740000D01*
X124620000Y-98740000D02*
X123620000Y-98740000D01*
X123620000Y-84740000D02*
X124620000Y-84740000D01*
X124620000Y-84740000D02*
X124620000Y-85740000D01*
%TO.C,K25*%
X167600000Y-68360000D02*
X167600000Y-67360000D01*
X167600000Y-67360000D02*
X168600000Y-67360000D01*
X168600000Y-81360000D02*
X167600000Y-81360000D01*
X167600000Y-81360000D02*
X167600000Y-80360000D01*
X181600000Y-80360000D02*
X181600000Y-81360000D01*
X181600000Y-81360000D02*
X180600000Y-81360000D01*
X180600000Y-67360000D02*
X181600000Y-67360000D01*
X181600000Y-67360000D02*
X181600000Y-68360000D01*
%TO.C,K24*%
X148580000Y-68330000D02*
X148580000Y-67330000D01*
X148580000Y-67330000D02*
X149580000Y-67330000D01*
X149580000Y-81330000D02*
X148580000Y-81330000D01*
X148580000Y-81330000D02*
X148580000Y-80330000D01*
X162580000Y-80330000D02*
X162580000Y-81330000D01*
X162580000Y-81330000D02*
X161580000Y-81330000D01*
X161580000Y-67330000D02*
X162580000Y-67330000D01*
X162580000Y-67330000D02*
X162580000Y-68330000D01*
%TO.C,K23*%
X129600000Y-58150000D02*
X129600000Y-57150000D01*
X129600000Y-57150000D02*
X130600000Y-57150000D01*
X130600000Y-71150000D02*
X129600000Y-71150000D01*
X129600000Y-71150000D02*
X129600000Y-70150000D01*
X143600000Y-70150000D02*
X143600000Y-71150000D01*
X143600000Y-71150000D02*
X142600000Y-71150000D01*
X142600000Y-57150000D02*
X143600000Y-57150000D01*
X143600000Y-57150000D02*
X143600000Y-58150000D01*
%TO.C,K22*%
X110620000Y-66700000D02*
X110620000Y-65700000D01*
X110620000Y-65700000D02*
X111620000Y-65700000D01*
X111620000Y-79700000D02*
X110620000Y-79700000D01*
X110620000Y-79700000D02*
X110620000Y-78700000D01*
X124620000Y-78700000D02*
X124620000Y-79700000D01*
X124620000Y-79700000D02*
X123620000Y-79700000D01*
X123620000Y-65700000D02*
X124620000Y-65700000D01*
X124620000Y-65700000D02*
X124620000Y-66700000D01*
%TO.C,K15*%
X167590000Y-49340000D02*
X167590000Y-48340000D01*
X167590000Y-48340000D02*
X168590000Y-48340000D01*
X168590000Y-62340000D02*
X167590000Y-62340000D01*
X167590000Y-62340000D02*
X167590000Y-61340000D01*
X181590000Y-61340000D02*
X181590000Y-62340000D01*
X181590000Y-62340000D02*
X180590000Y-62340000D01*
X180590000Y-48340000D02*
X181590000Y-48340000D01*
X181590000Y-48340000D02*
X181590000Y-49340000D01*
%TO.C,K14*%
X148570000Y-49360000D02*
X148570000Y-48360000D01*
X148570000Y-48360000D02*
X149570000Y-48360000D01*
X149570000Y-62360000D02*
X148570000Y-62360000D01*
X148570000Y-62360000D02*
X148570000Y-61360000D01*
X162570000Y-61360000D02*
X162570000Y-62360000D01*
X162570000Y-62360000D02*
X161570000Y-62360000D01*
X161570000Y-48360000D02*
X162570000Y-48360000D01*
X162570000Y-48360000D02*
X162570000Y-49360000D01*
%TO.C,K13*%
X129600000Y-39140000D02*
X129600000Y-38140000D01*
X129600000Y-38140000D02*
X130600000Y-38140000D01*
X130600000Y-52140000D02*
X129600000Y-52140000D01*
X129600000Y-52140000D02*
X129600000Y-51140000D01*
X143600000Y-51140000D02*
X143600000Y-52140000D01*
X143600000Y-52140000D02*
X142600000Y-52140000D01*
X142600000Y-38140000D02*
X143600000Y-38140000D01*
X143600000Y-38140000D02*
X143600000Y-39140000D01*
%TO.C,K12*%
X110610000Y-47690000D02*
X110610000Y-46690000D01*
X110610000Y-46690000D02*
X111610000Y-46690000D01*
X111610000Y-60690000D02*
X110610000Y-60690000D01*
X110610000Y-60690000D02*
X110610000Y-59690000D01*
X124610000Y-59690000D02*
X124610000Y-60690000D01*
X124610000Y-60690000D02*
X123610000Y-60690000D01*
X123610000Y-46690000D02*
X124610000Y-46690000D01*
X124610000Y-46690000D02*
X124610000Y-47690000D01*
%TO.C,K11*%
X91600000Y-77380000D02*
X91600000Y-76380000D01*
X91600000Y-76380000D02*
X92600000Y-76380000D01*
X92600000Y-90380000D02*
X91600000Y-90380000D01*
X91600000Y-90380000D02*
X91600000Y-89380000D01*
X105600000Y-89380000D02*
X105600000Y-90380000D01*
X105600000Y-90380000D02*
X104600000Y-90380000D01*
X104600000Y-76380000D02*
X105600000Y-76380000D01*
X105600000Y-76380000D02*
X105600000Y-77380000D01*
%TO.C,K10*%
X72580000Y-77340000D02*
X72580000Y-76340000D01*
X72580000Y-76340000D02*
X73580000Y-76340000D01*
X73580000Y-90340000D02*
X72580000Y-90340000D01*
X72580000Y-90340000D02*
X72580000Y-89340000D01*
X86580000Y-89340000D02*
X86580000Y-90340000D01*
X86580000Y-90340000D02*
X85580000Y-90340000D01*
X85580000Y-76340000D02*
X86580000Y-76340000D01*
X86580000Y-76340000D02*
X86580000Y-77340000D01*
%TO.C,K0*%
X91620000Y-58370000D02*
X91620000Y-57370000D01*
X91620000Y-57370000D02*
X92620000Y-57370000D01*
X92620000Y-71370000D02*
X91620000Y-71370000D01*
X91620000Y-71370000D02*
X91620000Y-70370000D01*
X105620000Y-70370000D02*
X105620000Y-71370000D01*
X105620000Y-71370000D02*
X104620000Y-71370000D01*
X104620000Y-57370000D02*
X105620000Y-57370000D01*
X105620000Y-57370000D02*
X105620000Y-58370000D01*
%TO.C,K35*%
X175794285Y-85547380D02*
X175794285Y-84547380D01*
X175222857Y-85547380D02*
X175651428Y-84975952D01*
X175222857Y-84547380D02*
X175794285Y-85118809D01*
X174889523Y-84547380D02*
X174270476Y-84547380D01*
X174603809Y-84928333D01*
X174460952Y-84928333D01*
X174365714Y-84975952D01*
X174318095Y-85023571D01*
X174270476Y-85118809D01*
X174270476Y-85356904D01*
X174318095Y-85452142D01*
X174365714Y-85499761D01*
X174460952Y-85547380D01*
X174746666Y-85547380D01*
X174841904Y-85499761D01*
X174889523Y-85452142D01*
X173365714Y-84547380D02*
X173841904Y-84547380D01*
X173889523Y-85023571D01*
X173841904Y-84975952D01*
X173746666Y-84928333D01*
X173508571Y-84928333D01*
X173413333Y-84975952D01*
X173365714Y-85023571D01*
X173318095Y-85118809D01*
X173318095Y-85356904D01*
X173365714Y-85452142D01*
X173413333Y-85499761D01*
X173508571Y-85547380D01*
X173746666Y-85547380D01*
X173841904Y-85499761D01*
X173889523Y-85452142D01*
%TO.C,K33*%
X137834285Y-75367380D02*
X137834285Y-74367380D01*
X137262857Y-75367380D02*
X137691428Y-74795952D01*
X137262857Y-74367380D02*
X137834285Y-74938809D01*
X136929523Y-74367380D02*
X136310476Y-74367380D01*
X136643809Y-74748333D01*
X136500952Y-74748333D01*
X136405714Y-74795952D01*
X136358095Y-74843571D01*
X136310476Y-74938809D01*
X136310476Y-75176904D01*
X136358095Y-75272142D01*
X136405714Y-75319761D01*
X136500952Y-75367380D01*
X136786666Y-75367380D01*
X136881904Y-75319761D01*
X136929523Y-75272142D01*
X135977142Y-74367380D02*
X135358095Y-74367380D01*
X135691428Y-74748333D01*
X135548571Y-74748333D01*
X135453333Y-74795952D01*
X135405714Y-74843571D01*
X135358095Y-74938809D01*
X135358095Y-75176904D01*
X135405714Y-75272142D01*
X135453333Y-75319761D01*
X135548571Y-75367380D01*
X135834285Y-75367380D01*
X135929523Y-75319761D01*
X135977142Y-75272142D01*
%TO.C,K21*%
X99794285Y-94517380D02*
X99794285Y-93517380D01*
X99222857Y-94517380D02*
X99651428Y-93945952D01*
X99222857Y-93517380D02*
X99794285Y-94088809D01*
X98841904Y-93612619D02*
X98794285Y-93565000D01*
X98699047Y-93517380D01*
X98460952Y-93517380D01*
X98365714Y-93565000D01*
X98318095Y-93612619D01*
X98270476Y-93707857D01*
X98270476Y-93803095D01*
X98318095Y-93945952D01*
X98889523Y-94517380D01*
X98270476Y-94517380D01*
X97318095Y-94517380D02*
X97889523Y-94517380D01*
X97603809Y-94517380D02*
X97603809Y-93517380D01*
X97699047Y-93660238D01*
X97794285Y-93755476D01*
X97889523Y-93803095D01*
%TO.C,K20*%
X80794285Y-94557380D02*
X80794285Y-93557380D01*
X80222857Y-94557380D02*
X80651428Y-93985952D01*
X80222857Y-93557380D02*
X80794285Y-94128809D01*
X79841904Y-93652619D02*
X79794285Y-93605000D01*
X79699047Y-93557380D01*
X79460952Y-93557380D01*
X79365714Y-93605000D01*
X79318095Y-93652619D01*
X79270476Y-93747857D01*
X79270476Y-93843095D01*
X79318095Y-93985952D01*
X79889523Y-94557380D01*
X79270476Y-94557380D01*
X78651428Y-93557380D02*
X78556190Y-93557380D01*
X78460952Y-93605000D01*
X78413333Y-93652619D01*
X78365714Y-93747857D01*
X78318095Y-93938333D01*
X78318095Y-94176428D01*
X78365714Y-94366904D01*
X78413333Y-94462142D01*
X78460952Y-94509761D01*
X78556190Y-94557380D01*
X78651428Y-94557380D01*
X78746666Y-94509761D01*
X78794285Y-94462142D01*
X78841904Y-94366904D01*
X78889523Y-94176428D01*
X78889523Y-93938333D01*
X78841904Y-93747857D01*
X78794285Y-93652619D01*
X78746666Y-93605000D01*
X78651428Y-93557380D01*
%TO.C,K30*%
X80774285Y-113577380D02*
X80774285Y-112577380D01*
X80202857Y-113577380D02*
X80631428Y-113005952D01*
X80202857Y-112577380D02*
X80774285Y-113148809D01*
X79869523Y-112577380D02*
X79250476Y-112577380D01*
X79583809Y-112958333D01*
X79440952Y-112958333D01*
X79345714Y-113005952D01*
X79298095Y-113053571D01*
X79250476Y-113148809D01*
X79250476Y-113386904D01*
X79298095Y-113482142D01*
X79345714Y-113529761D01*
X79440952Y-113577380D01*
X79726666Y-113577380D01*
X79821904Y-113529761D01*
X79869523Y-113482142D01*
X78631428Y-112577380D02*
X78536190Y-112577380D01*
X78440952Y-112625000D01*
X78393333Y-112672619D01*
X78345714Y-112767857D01*
X78298095Y-112958333D01*
X78298095Y-113196428D01*
X78345714Y-113386904D01*
X78393333Y-113482142D01*
X78440952Y-113529761D01*
X78536190Y-113577380D01*
X78631428Y-113577380D01*
X78726666Y-113529761D01*
X78774285Y-113482142D01*
X78821904Y-113386904D01*
X78869523Y-113196428D01*
X78869523Y-112958333D01*
X78821904Y-112767857D01*
X78774285Y-112672619D01*
X78726666Y-112625000D01*
X78631428Y-112577380D01*
%TO.C,K31*%
X99794285Y-113567380D02*
X99794285Y-112567380D01*
X99222857Y-113567380D02*
X99651428Y-112995952D01*
X99222857Y-112567380D02*
X99794285Y-113138809D01*
X98889523Y-112567380D02*
X98270476Y-112567380D01*
X98603809Y-112948333D01*
X98460952Y-112948333D01*
X98365714Y-112995952D01*
X98318095Y-113043571D01*
X98270476Y-113138809D01*
X98270476Y-113376904D01*
X98318095Y-113472142D01*
X98365714Y-113519761D01*
X98460952Y-113567380D01*
X98746666Y-113567380D01*
X98841904Y-113519761D01*
X98889523Y-113472142D01*
X97318095Y-113567380D02*
X97889523Y-113567380D01*
X97603809Y-113567380D02*
X97603809Y-112567380D01*
X97699047Y-112710238D01*
X97794285Y-112805476D01*
X97889523Y-112853095D01*
%TO.C,K41*%
X195230748Y-124676778D02*
X195404397Y-123691971D01*
X194668001Y-124577551D02*
X195189289Y-124089224D01*
X194841649Y-123592743D02*
X195305169Y-124254718D01*
X193939646Y-123772171D02*
X193823880Y-124428709D01*
X194240275Y-123438351D02*
X194350719Y-124183130D01*
X193741076Y-124075633D01*
X192792177Y-124246792D02*
X193354924Y-124346020D01*
X193073550Y-124296406D02*
X193247199Y-123311598D01*
X193316183Y-123468823D01*
X193393436Y-123579152D01*
X193478958Y-123642586D01*
%TO.C,K40*%
X176536819Y-121405727D02*
X176713904Y-120421532D01*
X175974422Y-121304536D02*
X176497411Y-120818032D01*
X176151507Y-120320340D02*
X176612713Y-120983929D01*
X175248882Y-120496619D02*
X175130826Y-121152749D01*
X175550675Y-120163850D02*
X175658518Y-120909010D01*
X175049255Y-120799386D01*
X174604914Y-120042064D02*
X174511181Y-120025199D01*
X174409015Y-120055200D01*
X174353716Y-120093634D01*
X174289984Y-120178935D01*
X174209387Y-120357968D01*
X174167224Y-120592300D01*
X174180360Y-120788199D01*
X174210362Y-120890364D01*
X174248796Y-120945663D01*
X174334096Y-121009395D01*
X174427829Y-121026260D01*
X174529994Y-120996259D01*
X174585293Y-120957825D01*
X174649025Y-120872525D01*
X174729622Y-120693491D01*
X174771785Y-120459159D01*
X174758649Y-120263261D01*
X174728648Y-120161095D01*
X174690214Y-120105796D01*
X174604914Y-120042064D01*
%TO.C,K34*%
X156804285Y-85527380D02*
X156804285Y-84527380D01*
X156232857Y-85527380D02*
X156661428Y-84955952D01*
X156232857Y-84527380D02*
X156804285Y-85098809D01*
X155899523Y-84527380D02*
X155280476Y-84527380D01*
X155613809Y-84908333D01*
X155470952Y-84908333D01*
X155375714Y-84955952D01*
X155328095Y-85003571D01*
X155280476Y-85098809D01*
X155280476Y-85336904D01*
X155328095Y-85432142D01*
X155375714Y-85479761D01*
X155470952Y-85527380D01*
X155756666Y-85527380D01*
X155851904Y-85479761D01*
X155899523Y-85432142D01*
X154423333Y-84860714D02*
X154423333Y-85527380D01*
X154661428Y-84479761D02*
X154899523Y-85194047D01*
X154280476Y-85194047D01*
%TO.C,K32*%
X118834285Y-83937380D02*
X118834285Y-82937380D01*
X118262857Y-83937380D02*
X118691428Y-83365952D01*
X118262857Y-82937380D02*
X118834285Y-83508809D01*
X117929523Y-82937380D02*
X117310476Y-82937380D01*
X117643809Y-83318333D01*
X117500952Y-83318333D01*
X117405714Y-83365952D01*
X117358095Y-83413571D01*
X117310476Y-83508809D01*
X117310476Y-83746904D01*
X117358095Y-83842142D01*
X117405714Y-83889761D01*
X117500952Y-83937380D01*
X117786666Y-83937380D01*
X117881904Y-83889761D01*
X117929523Y-83842142D01*
X116929523Y-83032619D02*
X116881904Y-82985000D01*
X116786666Y-82937380D01*
X116548571Y-82937380D01*
X116453333Y-82985000D01*
X116405714Y-83032619D01*
X116358095Y-83127857D01*
X116358095Y-83223095D01*
X116405714Y-83365952D01*
X116977142Y-83937380D01*
X116358095Y-83937380D01*
%TO.C,K25*%
X175814285Y-66557380D02*
X175814285Y-65557380D01*
X175242857Y-66557380D02*
X175671428Y-65985952D01*
X175242857Y-65557380D02*
X175814285Y-66128809D01*
X174861904Y-65652619D02*
X174814285Y-65605000D01*
X174719047Y-65557380D01*
X174480952Y-65557380D01*
X174385714Y-65605000D01*
X174338095Y-65652619D01*
X174290476Y-65747857D01*
X174290476Y-65843095D01*
X174338095Y-65985952D01*
X174909523Y-66557380D01*
X174290476Y-66557380D01*
X173385714Y-65557380D02*
X173861904Y-65557380D01*
X173909523Y-66033571D01*
X173861904Y-65985952D01*
X173766666Y-65938333D01*
X173528571Y-65938333D01*
X173433333Y-65985952D01*
X173385714Y-66033571D01*
X173338095Y-66128809D01*
X173338095Y-66366904D01*
X173385714Y-66462142D01*
X173433333Y-66509761D01*
X173528571Y-66557380D01*
X173766666Y-66557380D01*
X173861904Y-66509761D01*
X173909523Y-66462142D01*
%TO.C,K24*%
X156794285Y-66527380D02*
X156794285Y-65527380D01*
X156222857Y-66527380D02*
X156651428Y-65955952D01*
X156222857Y-65527380D02*
X156794285Y-66098809D01*
X155841904Y-65622619D02*
X155794285Y-65575000D01*
X155699047Y-65527380D01*
X155460952Y-65527380D01*
X155365714Y-65575000D01*
X155318095Y-65622619D01*
X155270476Y-65717857D01*
X155270476Y-65813095D01*
X155318095Y-65955952D01*
X155889523Y-66527380D01*
X155270476Y-66527380D01*
X154413333Y-65860714D02*
X154413333Y-66527380D01*
X154651428Y-65479761D02*
X154889523Y-66194047D01*
X154270476Y-66194047D01*
%TO.C,K23*%
X137814285Y-56347380D02*
X137814285Y-55347380D01*
X137242857Y-56347380D02*
X137671428Y-55775952D01*
X137242857Y-55347380D02*
X137814285Y-55918809D01*
X136861904Y-55442619D02*
X136814285Y-55395000D01*
X136719047Y-55347380D01*
X136480952Y-55347380D01*
X136385714Y-55395000D01*
X136338095Y-55442619D01*
X136290476Y-55537857D01*
X136290476Y-55633095D01*
X136338095Y-55775952D01*
X136909523Y-56347380D01*
X136290476Y-56347380D01*
X135957142Y-55347380D02*
X135338095Y-55347380D01*
X135671428Y-55728333D01*
X135528571Y-55728333D01*
X135433333Y-55775952D01*
X135385714Y-55823571D01*
X135338095Y-55918809D01*
X135338095Y-56156904D01*
X135385714Y-56252142D01*
X135433333Y-56299761D01*
X135528571Y-56347380D01*
X135814285Y-56347380D01*
X135909523Y-56299761D01*
X135957142Y-56252142D01*
%TO.C,K22*%
X118834285Y-64897380D02*
X118834285Y-63897380D01*
X118262857Y-64897380D02*
X118691428Y-64325952D01*
X118262857Y-63897380D02*
X118834285Y-64468809D01*
X117881904Y-63992619D02*
X117834285Y-63945000D01*
X117739047Y-63897380D01*
X117500952Y-63897380D01*
X117405714Y-63945000D01*
X117358095Y-63992619D01*
X117310476Y-64087857D01*
X117310476Y-64183095D01*
X117358095Y-64325952D01*
X117929523Y-64897380D01*
X117310476Y-64897380D01*
X116929523Y-63992619D02*
X116881904Y-63945000D01*
X116786666Y-63897380D01*
X116548571Y-63897380D01*
X116453333Y-63945000D01*
X116405714Y-63992619D01*
X116358095Y-64087857D01*
X116358095Y-64183095D01*
X116405714Y-64325952D01*
X116977142Y-64897380D01*
X116358095Y-64897380D01*
%TO.C,K15*%
X175804285Y-47537380D02*
X175804285Y-46537380D01*
X175232857Y-47537380D02*
X175661428Y-46965952D01*
X175232857Y-46537380D02*
X175804285Y-47108809D01*
X174280476Y-47537380D02*
X174851904Y-47537380D01*
X174566190Y-47537380D02*
X174566190Y-46537380D01*
X174661428Y-46680238D01*
X174756666Y-46775476D01*
X174851904Y-46823095D01*
X173375714Y-46537380D02*
X173851904Y-46537380D01*
X173899523Y-47013571D01*
X173851904Y-46965952D01*
X173756666Y-46918333D01*
X173518571Y-46918333D01*
X173423333Y-46965952D01*
X173375714Y-47013571D01*
X173328095Y-47108809D01*
X173328095Y-47346904D01*
X173375714Y-47442142D01*
X173423333Y-47489761D01*
X173518571Y-47537380D01*
X173756666Y-47537380D01*
X173851904Y-47489761D01*
X173899523Y-47442142D01*
%TO.C,K14*%
X156784285Y-47557380D02*
X156784285Y-46557380D01*
X156212857Y-47557380D02*
X156641428Y-46985952D01*
X156212857Y-46557380D02*
X156784285Y-47128809D01*
X155260476Y-47557380D02*
X155831904Y-47557380D01*
X155546190Y-47557380D02*
X155546190Y-46557380D01*
X155641428Y-46700238D01*
X155736666Y-46795476D01*
X155831904Y-46843095D01*
X154403333Y-46890714D02*
X154403333Y-47557380D01*
X154641428Y-46509761D02*
X154879523Y-47224047D01*
X154260476Y-47224047D01*
%TO.C,K13*%
X137814285Y-37337380D02*
X137814285Y-36337380D01*
X137242857Y-37337380D02*
X137671428Y-36765952D01*
X137242857Y-36337380D02*
X137814285Y-36908809D01*
X136290476Y-37337380D02*
X136861904Y-37337380D01*
X136576190Y-37337380D02*
X136576190Y-36337380D01*
X136671428Y-36480238D01*
X136766666Y-36575476D01*
X136861904Y-36623095D01*
X135957142Y-36337380D02*
X135338095Y-36337380D01*
X135671428Y-36718333D01*
X135528571Y-36718333D01*
X135433333Y-36765952D01*
X135385714Y-36813571D01*
X135338095Y-36908809D01*
X135338095Y-37146904D01*
X135385714Y-37242142D01*
X135433333Y-37289761D01*
X135528571Y-37337380D01*
X135814285Y-37337380D01*
X135909523Y-37289761D01*
X135957142Y-37242142D01*
%TO.C,K12*%
X118824285Y-45887380D02*
X118824285Y-44887380D01*
X118252857Y-45887380D02*
X118681428Y-45315952D01*
X118252857Y-44887380D02*
X118824285Y-45458809D01*
X117300476Y-45887380D02*
X117871904Y-45887380D01*
X117586190Y-45887380D02*
X117586190Y-44887380D01*
X117681428Y-45030238D01*
X117776666Y-45125476D01*
X117871904Y-45173095D01*
X116919523Y-44982619D02*
X116871904Y-44935000D01*
X116776666Y-44887380D01*
X116538571Y-44887380D01*
X116443333Y-44935000D01*
X116395714Y-44982619D01*
X116348095Y-45077857D01*
X116348095Y-45173095D01*
X116395714Y-45315952D01*
X116967142Y-45887380D01*
X116348095Y-45887380D01*
%TO.C,K11*%
X99814285Y-75577380D02*
X99814285Y-74577380D01*
X99242857Y-75577380D02*
X99671428Y-75005952D01*
X99242857Y-74577380D02*
X99814285Y-75148809D01*
X98290476Y-75577380D02*
X98861904Y-75577380D01*
X98576190Y-75577380D02*
X98576190Y-74577380D01*
X98671428Y-74720238D01*
X98766666Y-74815476D01*
X98861904Y-74863095D01*
X97338095Y-75577380D02*
X97909523Y-75577380D01*
X97623809Y-75577380D02*
X97623809Y-74577380D01*
X97719047Y-74720238D01*
X97814285Y-74815476D01*
X97909523Y-74863095D01*
%TO.C,K10*%
X80794285Y-75537380D02*
X80794285Y-74537380D01*
X80222857Y-75537380D02*
X80651428Y-74965952D01*
X80222857Y-74537380D02*
X80794285Y-75108809D01*
X79270476Y-75537380D02*
X79841904Y-75537380D01*
X79556190Y-75537380D02*
X79556190Y-74537380D01*
X79651428Y-74680238D01*
X79746666Y-74775476D01*
X79841904Y-74823095D01*
X78651428Y-74537380D02*
X78556190Y-74537380D01*
X78460952Y-74585000D01*
X78413333Y-74632619D01*
X78365714Y-74727857D01*
X78318095Y-74918333D01*
X78318095Y-75156428D01*
X78365714Y-75346904D01*
X78413333Y-75442142D01*
X78460952Y-75489761D01*
X78556190Y-75537380D01*
X78651428Y-75537380D01*
X78746666Y-75489761D01*
X78794285Y-75442142D01*
X78841904Y-75346904D01*
X78889523Y-75156428D01*
X78889523Y-74918333D01*
X78841904Y-74727857D01*
X78794285Y-74632619D01*
X78746666Y-74585000D01*
X78651428Y-74537380D01*
%TO.C,K0*%
X99358095Y-56567380D02*
X99358095Y-55567380D01*
X98786666Y-56567380D02*
X99215238Y-55995952D01*
X98786666Y-55567380D02*
X99358095Y-56138809D01*
X98167619Y-55567380D02*
X98072380Y-55567380D01*
X97977142Y-55615000D01*
X97929523Y-55662619D01*
X97881904Y-55757857D01*
X97834285Y-55948333D01*
X97834285Y-56186428D01*
X97881904Y-56376904D01*
X97929523Y-56472142D01*
X97977142Y-56519761D01*
X98072380Y-56567380D01*
X98167619Y-56567380D01*
X98262857Y-56519761D01*
X98310476Y-56472142D01*
X98358095Y-56376904D01*
X98405714Y-56186428D01*
X98405714Y-55948333D01*
X98358095Y-55757857D01*
X98310476Y-55662619D01*
X98262857Y-55615000D01*
X98167619Y-55567380D01*
%TD*%
M02*
