%TF.GenerationSoftware,KiCad,Pcbnew,5.1.10*%
%TF.CreationDate,2021-09-27T15:43:44+02:00*%
%TF.ProjectId,pinkytyl_v2,70696e6b-7974-4796-9c5f-76322e6b6963,rev?*%
%TF.SameCoordinates,Original*%
%TF.FileFunction,Soldermask,Bot*%
%TF.FilePolarity,Negative*%
%FSLAX46Y46*%
G04 Gerber Fmt 4.6, Leading zero omitted, Abs format (unit mm)*
G04 Created by KiCad (PCBNEW 5.1.10) date 2021-09-27 15:43:44*
%MOMM*%
%LPD*%
G01*
G04 APERTURE LIST*
%ADD10C,1.152000*%
%ADD11C,4.400000*%
%ADD12C,1.200000*%
%ADD13O,1.800000X2.200000*%
%ADD14O,2.200000X1.800000*%
%ADD15O,1.000000X1.000000*%
%ADD16R,1.000000X1.000000*%
%ADD17C,2.286000*%
%ADD18C,3.987800*%
%ADD19C,1.450000*%
%ADD20O,1.200000X1.900000*%
%ADD21C,0.990600*%
G04 APERTURE END LIST*
D10*
%TO.C,REF\u002A\u002A*%
X128910000Y-39910000D03*
%TD*%
%TO.C,REF\u002A\u002A*%
X169760000Y-132370000D03*
%TD*%
%TO.C,REF\u002A\u002A*%
X75880000Y-126430000D03*
%TD*%
D11*
%TO.C,H4*%
X182440000Y-135630000D03*
%TD*%
%TO.C,H3*%
X146460000Y-65230000D03*
%TD*%
%TO.C,H2*%
X107590000Y-73910000D03*
%TD*%
%TO.C,H1*%
X89370000Y-112080000D03*
%TD*%
D12*
%TO.C,J1*%
X187520000Y-55380000D03*
X187520000Y-48380000D03*
D13*
X184220000Y-49880000D03*
X190370000Y-57880000D03*
D14*
X187520000Y-58680000D03*
D13*
X184670000Y-57880000D03*
X190820000Y-49880000D03*
%TD*%
D15*
%TO.C,J2*%
X185400000Y-114230000D03*
D16*
X186670000Y-114230000D03*
%TD*%
D17*
%TO.C,K12*%
X113800000Y-51150000D03*
D18*
X117610000Y-53690000D03*
D17*
X120150000Y-48610000D03*
X115070000Y-48610000D03*
X121420000Y-51150000D03*
%TD*%
%TO.C,K41*%
X189368949Y-128986989D03*
D18*
X192680000Y-132150000D03*
D17*
X196063544Y-127588243D03*
X191060721Y-126706110D03*
X196873184Y-130310188D03*
%TD*%
%TO.C,K40*%
X170660010Y-125695450D03*
D18*
X173960000Y-128870000D03*
D17*
X177359447Y-124320082D03*
X172359734Y-123420491D03*
X178159581Y-127044836D03*
%TD*%
%TO.C,K35*%
X170770000Y-90810000D03*
D18*
X174580000Y-93350000D03*
D17*
X177120000Y-88270000D03*
X172040000Y-88270000D03*
X178390000Y-90810000D03*
%TD*%
%TO.C,K34*%
X151780000Y-90790000D03*
D18*
X155590000Y-93330000D03*
D17*
X158130000Y-88250000D03*
X153050000Y-88250000D03*
X159400000Y-90790000D03*
%TD*%
%TO.C,K33*%
X132810000Y-80630000D03*
D18*
X136620000Y-83170000D03*
D17*
X139160000Y-78090000D03*
X134080000Y-78090000D03*
X140430000Y-80630000D03*
%TD*%
%TO.C,K32*%
X113810000Y-89200000D03*
D18*
X117620000Y-91740000D03*
D17*
X120160000Y-86660000D03*
X115080000Y-86660000D03*
X121430000Y-89200000D03*
%TD*%
%TO.C,K31*%
X94770000Y-118830000D03*
D18*
X98580000Y-121370000D03*
D17*
X101120000Y-116290000D03*
X96040000Y-116290000D03*
X102390000Y-118830000D03*
%TD*%
%TO.C,K30*%
X75750000Y-118840000D03*
D18*
X79560000Y-121380000D03*
D17*
X82100000Y-116300000D03*
X77020000Y-116300000D03*
X83370000Y-118840000D03*
%TD*%
%TO.C,K25*%
X170790000Y-71820000D03*
D18*
X174600000Y-74360000D03*
D17*
X177140000Y-69280000D03*
X172060000Y-69280000D03*
X178410000Y-71820000D03*
%TD*%
%TO.C,K24*%
X151770000Y-71790000D03*
D18*
X155580000Y-74330000D03*
D17*
X158120000Y-69250000D03*
X153040000Y-69250000D03*
X159390000Y-71790000D03*
%TD*%
%TO.C,K23*%
X132790000Y-61610000D03*
D18*
X136600000Y-64150000D03*
D17*
X139140000Y-59070000D03*
X134060000Y-59070000D03*
X140410000Y-61610000D03*
%TD*%
%TO.C,K22*%
X113810000Y-70160000D03*
D18*
X117620000Y-72700000D03*
D17*
X120160000Y-67620000D03*
X115080000Y-67620000D03*
X121430000Y-70160000D03*
%TD*%
%TO.C,K21*%
X94770000Y-99780000D03*
D18*
X98580000Y-102320000D03*
D17*
X101120000Y-97240000D03*
X96040000Y-97240000D03*
X102390000Y-99780000D03*
%TD*%
%TO.C,K20*%
X75770000Y-99820000D03*
D18*
X79580000Y-102360000D03*
D17*
X82120000Y-97280000D03*
X77040000Y-97280000D03*
X83390000Y-99820000D03*
%TD*%
%TO.C,K15*%
X170780000Y-52800000D03*
D18*
X174590000Y-55340000D03*
D17*
X177130000Y-50260000D03*
X172050000Y-50260000D03*
X178400000Y-52800000D03*
%TD*%
%TO.C,K14*%
X151760000Y-52820000D03*
D18*
X155570000Y-55360000D03*
D17*
X158110000Y-50280000D03*
X153030000Y-50280000D03*
X159380000Y-52820000D03*
%TD*%
%TO.C,K13*%
X132790000Y-42600000D03*
D18*
X136600000Y-45140000D03*
D17*
X139140000Y-40060000D03*
X134060000Y-40060000D03*
X140410000Y-42600000D03*
%TD*%
%TO.C,K11*%
X94790000Y-80840000D03*
D18*
X98600000Y-83380000D03*
D17*
X101140000Y-78300000D03*
X96060000Y-78300000D03*
X102410000Y-80840000D03*
%TD*%
%TO.C,K10*%
X75770000Y-80800000D03*
D18*
X79580000Y-83340000D03*
D17*
X82120000Y-78260000D03*
X77040000Y-78260000D03*
X83390000Y-80800000D03*
%TD*%
%TO.C,K0*%
X94810000Y-61830000D03*
D18*
X98620000Y-64370000D03*
D17*
X101160000Y-59290000D03*
X96080000Y-59290000D03*
X102430000Y-61830000D03*
%TD*%
D19*
%TO.C,J3*%
X120340000Y-44472500D03*
X115340000Y-44472500D03*
D20*
X121340000Y-41772500D03*
X114340000Y-41772500D03*
%TD*%
D21*
%TO.C,J5*%
X189710000Y-118014000D03*
X189710000Y-120046000D03*
X182090000Y-119030000D03*
%TD*%
M02*
