%TF.GenerationSoftware,KiCad,Pcbnew,5.1.10*%
%TF.CreationDate,2021-10-18T20:14:54+02:00*%
%TF.ProjectId,pinkytyl_v2,70696e6b-7974-4796-9c5f-76322e6b6963,rev?*%
%TF.SameCoordinates,Original*%
%TF.FileFunction,Profile,NP*%
%FSLAX46Y46*%
G04 Gerber Fmt 4.6, Leading zero omitted, Abs format (unit mm)*
G04 Created by KiCad (PCBNEW 5.1.10) date 2021-10-18 20:14:54*
%MOMM*%
%LPD*%
G01*
G04 APERTURE LIST*
%TA.AperFunction,Profile*%
%ADD10C,0.200000*%
%TD*%
G04 APERTURE END LIST*
D10*
X130716898Y-92180109D02*
X125716898Y-100724303D01*
X73570000Y-130380000D02*
G75*
G02*
X70570000Y-127380000I0J3000000D01*
G01*
X197002557Y-142052876D02*
X166473516Y-136669782D01*
X164040038Y-133194415D02*
X164941193Y-128083709D01*
X107682736Y-127878766D02*
G75*
G02*
X104724488Y-130380000I-2958248J498766D01*
G01*
X183569999Y-68667201D02*
X183569999Y-99887324D01*
X112261024Y-100724303D02*
X107682737Y-127878765D01*
X126056470Y-40224303D02*
X128423102Y-36180109D01*
X202561703Y-127801704D02*
X200477924Y-139619397D01*
X192569999Y-59865548D02*
G75*
G02*
X190984209Y-63054841I-4000000J0D01*
G01*
X166473517Y-136669782D02*
G75*
G02*
X164040038Y-133194415I520944J2954423D01*
G01*
X146836311Y-101361229D02*
X142324408Y-92180109D01*
X142324408Y-92180109D02*
X130716898Y-92180109D01*
X111410777Y-40224303D02*
X126056470Y-40224303D01*
X190984209Y-63054841D02*
X183569999Y-68667201D01*
X90028223Y-55380001D02*
X104299231Y-55380001D01*
X195216623Y-123460289D02*
X200128224Y-124326336D01*
X183569999Y-99887324D02*
X195216623Y-123460289D01*
X104299231Y-55380001D02*
X111410777Y-40224303D01*
X70570000Y-77380001D02*
G75*
G02*
X73570000Y-74380001I3000000J0D01*
G01*
X192569999Y-48354440D02*
X192569999Y-59865548D01*
X190569999Y-46354440D02*
G75*
G02*
X192569999Y-48354440I0J-2000000D01*
G01*
X164941193Y-128083709D02*
X146836311Y-101361229D01*
X70570000Y-127380000D02*
X70570000Y-77380001D01*
X149815593Y-46354440D02*
X190569999Y-46354440D01*
X128423102Y-36180109D02*
X144815593Y-36180109D01*
X104724488Y-130380000D02*
X73570000Y-130380000D01*
X125716898Y-100724303D02*
X112261024Y-100724303D01*
X144815593Y-36180109D02*
X149815593Y-46354440D01*
X85028223Y-74380001D02*
X90028223Y-55380001D01*
X200477924Y-139619397D02*
G75*
G02*
X197002557Y-142052876I-2954423J520944D01*
G01*
X73570000Y-74380001D02*
X85028223Y-74380001D01*
X200128223Y-124326336D02*
G75*
G02*
X202561703Y-127801704I-520944J-2954424D01*
G01*
M02*
