%TF.GenerationSoftware,KiCad,Pcbnew,5.1.10*%
%TF.CreationDate,2021-10-18T20:14:54+02:00*%
%TF.ProjectId,pinkytyl_v2,70696e6b-7974-4796-9c5f-76322e6b6963,rev?*%
%TF.SameCoordinates,Original*%
%TF.FileFunction,Legend,Top*%
%TF.FilePolarity,Positive*%
%FSLAX46Y46*%
G04 Gerber Fmt 4.6, Leading zero omitted, Abs format (unit mm)*
G04 Created by KiCad (PCBNEW 5.1.10) date 2021-10-18 20:14:54*
%MOMM*%
%LPD*%
G01*
G04 APERTURE LIST*
%ADD10C,0.150000*%
%ADD11C,0.120000*%
G04 APERTURE END LIST*
D10*
X185423809Y-116632380D02*
X185423809Y-115632380D01*
X185852380Y-116584761D02*
X185995238Y-116632380D01*
X186233333Y-116632380D01*
X186328571Y-116584761D01*
X186376190Y-116537142D01*
X186423809Y-116441904D01*
X186423809Y-116346666D01*
X186376190Y-116251428D01*
X186328571Y-116203809D01*
X186233333Y-116156190D01*
X186042857Y-116108571D01*
X185947619Y-116060952D01*
X185900000Y-116013333D01*
X185852380Y-115918095D01*
X185852380Y-115822857D01*
X185900000Y-115727619D01*
X185947619Y-115680000D01*
X186042857Y-115632380D01*
X186280952Y-115632380D01*
X186423809Y-115680000D01*
X186852380Y-116632380D02*
X186852380Y-115632380D01*
X187233333Y-115632380D01*
X187328571Y-115680000D01*
X187376190Y-115727619D01*
X187423809Y-115822857D01*
X187423809Y-115965714D01*
X187376190Y-116060952D01*
X187328571Y-116108571D01*
X187233333Y-116156190D01*
X186852380Y-116156190D01*
X184701904Y-112132380D02*
X184368571Y-111656190D01*
X184130476Y-112132380D02*
X184130476Y-111132380D01*
X184511428Y-111132380D01*
X184606666Y-111180000D01*
X184654285Y-111227619D01*
X184701904Y-111322857D01*
X184701904Y-111465714D01*
X184654285Y-111560952D01*
X184606666Y-111608571D01*
X184511428Y-111656190D01*
X184130476Y-111656190D01*
X185511428Y-112084761D02*
X185416190Y-112132380D01*
X185225714Y-112132380D01*
X185130476Y-112084761D01*
X185082857Y-111989523D01*
X185082857Y-111608571D01*
X185130476Y-111513333D01*
X185225714Y-111465714D01*
X185416190Y-111465714D01*
X185511428Y-111513333D01*
X185559047Y-111608571D01*
X185559047Y-111703809D01*
X185082857Y-111799047D01*
X185940000Y-112084761D02*
X186035238Y-112132380D01*
X186225714Y-112132380D01*
X186320952Y-112084761D01*
X186368571Y-111989523D01*
X186368571Y-111941904D01*
X186320952Y-111846666D01*
X186225714Y-111799047D01*
X186082857Y-111799047D01*
X185987619Y-111751428D01*
X185940000Y-111656190D01*
X185940000Y-111608571D01*
X185987619Y-111513333D01*
X186082857Y-111465714D01*
X186225714Y-111465714D01*
X186320952Y-111513333D01*
X187178095Y-112084761D02*
X187082857Y-112132380D01*
X186892380Y-112132380D01*
X186797142Y-112084761D01*
X186749523Y-111989523D01*
X186749523Y-111608571D01*
X186797142Y-111513333D01*
X186892380Y-111465714D01*
X187082857Y-111465714D01*
X187178095Y-111513333D01*
X187225714Y-111608571D01*
X187225714Y-111703809D01*
X186749523Y-111799047D01*
X187511428Y-111465714D02*
X187892380Y-111465714D01*
X187654285Y-111132380D02*
X187654285Y-111989523D01*
X187701904Y-112084761D01*
X187797142Y-112132380D01*
X187892380Y-112132380D01*
X171961428Y-113602380D02*
X171961428Y-112602380D01*
X172342380Y-112602380D01*
X172437619Y-112650000D01*
X172485238Y-112697619D01*
X172532857Y-112792857D01*
X172532857Y-112935714D01*
X172485238Y-113030952D01*
X172437619Y-113078571D01*
X172342380Y-113126190D01*
X171961428Y-113126190D01*
X172961428Y-113602380D02*
X172961428Y-112935714D01*
X172961428Y-112602380D02*
X172913809Y-112650000D01*
X172961428Y-112697619D01*
X173009047Y-112650000D01*
X172961428Y-112602380D01*
X172961428Y-112697619D01*
X173437619Y-112935714D02*
X173437619Y-113602380D01*
X173437619Y-113030952D02*
X173485238Y-112983333D01*
X173580476Y-112935714D01*
X173723333Y-112935714D01*
X173818571Y-112983333D01*
X173866190Y-113078571D01*
X173866190Y-113602380D01*
X174342380Y-113602380D02*
X174342380Y-112602380D01*
X174437619Y-113221428D02*
X174723333Y-113602380D01*
X174723333Y-112935714D02*
X174342380Y-113316666D01*
X175056666Y-112935714D02*
X175294761Y-113602380D01*
X175532857Y-112935714D02*
X175294761Y-113602380D01*
X175199523Y-113840476D01*
X175151904Y-113888095D01*
X175056666Y-113935714D01*
X175770952Y-112935714D02*
X176151904Y-112935714D01*
X175913809Y-112602380D02*
X175913809Y-113459523D01*
X175961428Y-113554761D01*
X176056666Y-113602380D01*
X176151904Y-113602380D01*
X176390000Y-112935714D02*
X176628095Y-113602380D01*
X176866190Y-112935714D02*
X176628095Y-113602380D01*
X176532857Y-113840476D01*
X176485238Y-113888095D01*
X176390000Y-113935714D01*
X177390000Y-113602380D02*
X177294761Y-113554761D01*
X177247142Y-113459523D01*
X177247142Y-112602380D01*
X178390000Y-112602380D02*
X178723333Y-113602380D01*
X179056666Y-112602380D01*
X179342380Y-112697619D02*
X179390000Y-112650000D01*
X179485238Y-112602380D01*
X179723333Y-112602380D01*
X179818571Y-112650000D01*
X179866190Y-112697619D01*
X179913809Y-112792857D01*
X179913809Y-112888095D01*
X179866190Y-113030952D01*
X179294761Y-113602380D01*
X179913809Y-113602380D01*
X180342380Y-113507142D02*
X180390000Y-113554761D01*
X180342380Y-113602380D01*
X180294761Y-113554761D01*
X180342380Y-113507142D01*
X180342380Y-113602380D01*
X181342380Y-113602380D02*
X180770952Y-113602380D01*
X181056666Y-113602380D02*
X181056666Y-112602380D01*
X180961428Y-112745238D01*
X180866190Y-112840476D01*
X180770952Y-112888095D01*
X182866190Y-113078571D02*
X183009047Y-113126190D01*
X183056666Y-113173809D01*
X183104285Y-113269047D01*
X183104285Y-113411904D01*
X183056666Y-113507142D01*
X183009047Y-113554761D01*
X182913809Y-113602380D01*
X182532857Y-113602380D01*
X182532857Y-112602380D01*
X182866190Y-112602380D01*
X182961428Y-112650000D01*
X183009047Y-112697619D01*
X183056666Y-112792857D01*
X183056666Y-112888095D01*
X183009047Y-112983333D01*
X182961428Y-113030952D01*
X182866190Y-113078571D01*
X182532857Y-113078571D01*
X183437619Y-112935714D02*
X183675714Y-113602380D01*
X183913809Y-112935714D02*
X183675714Y-113602380D01*
X183580476Y-113840476D01*
X183532857Y-113888095D01*
X183437619Y-113935714D01*
X171699523Y-115252380D02*
X171699523Y-114252380D01*
X172080476Y-114252380D01*
X172175714Y-114300000D01*
X172223333Y-114347619D01*
X172270952Y-114442857D01*
X172270952Y-114585714D01*
X172223333Y-114680952D01*
X172175714Y-114728571D01*
X172080476Y-114776190D01*
X171699523Y-114776190D01*
X172699523Y-115252380D02*
X172699523Y-114252380D01*
X173128095Y-115252380D02*
X173128095Y-114728571D01*
X173080476Y-114633333D01*
X172985238Y-114585714D01*
X172842380Y-114585714D01*
X172747142Y-114633333D01*
X172699523Y-114680952D01*
X173604285Y-115252380D02*
X173604285Y-114585714D01*
X173604285Y-114252380D02*
X173556666Y-114300000D01*
X173604285Y-114347619D01*
X173651904Y-114300000D01*
X173604285Y-114252380D01*
X173604285Y-114347619D01*
X174223333Y-115252380D02*
X174128095Y-115204761D01*
X174080476Y-115109523D01*
X174080476Y-114252380D01*
X174604285Y-115252380D02*
X174604285Y-114585714D01*
X174604285Y-114252380D02*
X174556666Y-114300000D01*
X174604285Y-114347619D01*
X174651904Y-114300000D01*
X174604285Y-114252380D01*
X174604285Y-114347619D01*
X175080476Y-114585714D02*
X175080476Y-115585714D01*
X175080476Y-114633333D02*
X175175714Y-114585714D01*
X175366190Y-114585714D01*
X175461428Y-114633333D01*
X175509047Y-114680952D01*
X175556666Y-114776190D01*
X175556666Y-115061904D01*
X175509047Y-115157142D01*
X175461428Y-115204761D01*
X175366190Y-115252380D01*
X175175714Y-115252380D01*
X175080476Y-115204761D01*
X176747142Y-115252380D02*
X176747142Y-114252380D01*
X177318571Y-115252380D02*
X176890000Y-114680952D01*
X177318571Y-114252380D02*
X176747142Y-114823809D01*
X177747142Y-115157142D02*
X177794761Y-115204761D01*
X177747142Y-115252380D01*
X177699523Y-115204761D01*
X177747142Y-115157142D01*
X177747142Y-115252380D01*
X179509047Y-114300000D02*
X179413809Y-114252380D01*
X179270952Y-114252380D01*
X179128095Y-114300000D01*
X179032857Y-114395238D01*
X178985238Y-114490476D01*
X178937619Y-114680952D01*
X178937619Y-114823809D01*
X178985238Y-115014285D01*
X179032857Y-115109523D01*
X179128095Y-115204761D01*
X179270952Y-115252380D01*
X179366190Y-115252380D01*
X179509047Y-115204761D01*
X179556666Y-115157142D01*
X179556666Y-114823809D01*
X179366190Y-114823809D01*
X179985238Y-115252380D02*
X179985238Y-114585714D01*
X179985238Y-114252380D02*
X179937619Y-114300000D01*
X179985238Y-114347619D01*
X180032857Y-114300000D01*
X179985238Y-114252380D01*
X179985238Y-114347619D01*
X180413809Y-115204761D02*
X180509047Y-115252380D01*
X180699523Y-115252380D01*
X180794761Y-115204761D01*
X180842380Y-115109523D01*
X180842380Y-115061904D01*
X180794761Y-114966666D01*
X180699523Y-114919047D01*
X180556666Y-114919047D01*
X180461428Y-114871428D01*
X180413809Y-114776190D01*
X180413809Y-114728571D01*
X180461428Y-114633333D01*
X180556666Y-114585714D01*
X180699523Y-114585714D01*
X180794761Y-114633333D01*
X181223333Y-115204761D02*
X181318571Y-115252380D01*
X181509047Y-115252380D01*
X181604285Y-115204761D01*
X181651904Y-115109523D01*
X181651904Y-115061904D01*
X181604285Y-114966666D01*
X181509047Y-114919047D01*
X181366190Y-114919047D01*
X181270952Y-114871428D01*
X181223333Y-114776190D01*
X181223333Y-114728571D01*
X181270952Y-114633333D01*
X181366190Y-114585714D01*
X181509047Y-114585714D01*
X181604285Y-114633333D01*
X182223333Y-115252380D02*
X182128095Y-115204761D01*
X182080476Y-115109523D01*
X182080476Y-114252380D01*
X182747142Y-115252380D02*
X182651904Y-115204761D01*
X182604285Y-115157142D01*
X182556666Y-115061904D01*
X182556666Y-114776190D01*
X182604285Y-114680952D01*
X182651904Y-114633333D01*
X182747142Y-114585714D01*
X182890000Y-114585714D01*
X182985238Y-114633333D01*
X183032857Y-114680952D01*
X183080476Y-114776190D01*
X183080476Y-115061904D01*
X183032857Y-115157142D01*
X182985238Y-115204761D01*
X182890000Y-115252380D01*
X182747142Y-115252380D01*
X183413809Y-114585714D02*
X183604285Y-115252380D01*
X183794761Y-114776190D01*
X183985238Y-115252380D01*
X184175714Y-114585714D01*
X174413809Y-115902380D02*
X174509047Y-115902380D01*
X174604285Y-115950000D01*
X174651904Y-115997619D01*
X174699523Y-116092857D01*
X174747142Y-116283333D01*
X174747142Y-116521428D01*
X174699523Y-116711904D01*
X174651904Y-116807142D01*
X174604285Y-116854761D01*
X174509047Y-116902380D01*
X174413809Y-116902380D01*
X174318571Y-116854761D01*
X174270952Y-116807142D01*
X174223333Y-116711904D01*
X174175714Y-116521428D01*
X174175714Y-116283333D01*
X174223333Y-116092857D01*
X174270952Y-115997619D01*
X174318571Y-115950000D01*
X174413809Y-115902380D01*
X175223333Y-116902380D02*
X175413809Y-116902380D01*
X175509047Y-116854761D01*
X175556666Y-116807142D01*
X175651904Y-116664285D01*
X175699523Y-116473809D01*
X175699523Y-116092857D01*
X175651904Y-115997619D01*
X175604285Y-115950000D01*
X175509047Y-115902380D01*
X175318571Y-115902380D01*
X175223333Y-115950000D01*
X175175714Y-115997619D01*
X175128095Y-116092857D01*
X175128095Y-116330952D01*
X175175714Y-116426190D01*
X175223333Y-116473809D01*
X175318571Y-116521428D01*
X175509047Y-116521428D01*
X175604285Y-116473809D01*
X175651904Y-116426190D01*
X175699523Y-116330952D01*
X176842380Y-115854761D02*
X175985238Y-117140476D01*
X177128095Y-115997619D02*
X177175714Y-115950000D01*
X177270952Y-115902380D01*
X177509047Y-115902380D01*
X177604285Y-115950000D01*
X177651904Y-115997619D01*
X177699523Y-116092857D01*
X177699523Y-116188095D01*
X177651904Y-116330952D01*
X177080476Y-116902380D01*
X177699523Y-116902380D01*
X178032857Y-115902380D02*
X178699523Y-115902380D01*
X178270952Y-116902380D01*
X179794761Y-115854761D02*
X178937619Y-117140476D01*
X180080476Y-115997619D02*
X180128095Y-115950000D01*
X180223333Y-115902380D01*
X180461428Y-115902380D01*
X180556666Y-115950000D01*
X180604285Y-115997619D01*
X180651904Y-116092857D01*
X180651904Y-116188095D01*
X180604285Y-116330952D01*
X180032857Y-116902380D01*
X180651904Y-116902380D01*
X181604285Y-116902380D02*
X181032857Y-116902380D01*
X181318571Y-116902380D02*
X181318571Y-115902380D01*
X181223333Y-116045238D01*
X181128095Y-116140476D01*
X181032857Y-116188095D01*
%TO.C,K35*%
X180580000Y-86350000D02*
X181580000Y-86350000D01*
X181580000Y-86350000D02*
X181580000Y-87350000D01*
X181580000Y-99350000D02*
X181580000Y-100350000D01*
X181580000Y-100350000D02*
X180580000Y-100350000D01*
X168580000Y-100350000D02*
X167580000Y-100350000D01*
X167580000Y-100350000D02*
X167580000Y-99350000D01*
X167580000Y-87350000D02*
X167580000Y-86350000D01*
X167580000Y-86350000D02*
X168580000Y-86350000D01*
%TO.C,K33*%
X142620000Y-76170000D02*
X143620000Y-76170000D01*
X143620000Y-76170000D02*
X143620000Y-77170000D01*
X143620000Y-89170000D02*
X143620000Y-90170000D01*
X143620000Y-90170000D02*
X142620000Y-90170000D01*
X130620000Y-90170000D02*
X129620000Y-90170000D01*
X129620000Y-90170000D02*
X129620000Y-89170000D01*
X129620000Y-77170000D02*
X129620000Y-76170000D01*
X129620000Y-76170000D02*
X130620000Y-76170000D01*
%TO.C,K21*%
X104580000Y-95320000D02*
X105580000Y-95320000D01*
X105580000Y-95320000D02*
X105580000Y-96320000D01*
X105580000Y-108320000D02*
X105580000Y-109320000D01*
X105580000Y-109320000D02*
X104580000Y-109320000D01*
X92580000Y-109320000D02*
X91580000Y-109320000D01*
X91580000Y-109320000D02*
X91580000Y-108320000D01*
X91580000Y-96320000D02*
X91580000Y-95320000D01*
X91580000Y-95320000D02*
X92580000Y-95320000D01*
%TO.C,K20*%
X85580000Y-95360000D02*
X86580000Y-95360000D01*
X86580000Y-95360000D02*
X86580000Y-96360000D01*
X86580000Y-108360000D02*
X86580000Y-109360000D01*
X86580000Y-109360000D02*
X85580000Y-109360000D01*
X73580000Y-109360000D02*
X72580000Y-109360000D01*
X72580000Y-109360000D02*
X72580000Y-108360000D01*
X72580000Y-96360000D02*
X72580000Y-95360000D01*
X72580000Y-95360000D02*
X73580000Y-95360000D01*
%TO.C,K30*%
X85560000Y-114380000D02*
X86560000Y-114380000D01*
X86560000Y-114380000D02*
X86560000Y-115380000D01*
X86560000Y-127380000D02*
X86560000Y-128380000D01*
X86560000Y-128380000D02*
X85560000Y-128380000D01*
X73560000Y-128380000D02*
X72560000Y-128380000D01*
X72560000Y-128380000D02*
X72560000Y-127380000D01*
X72560000Y-115380000D02*
X72560000Y-114380000D01*
X72560000Y-114380000D02*
X73560000Y-114380000D01*
%TO.C,K31*%
X104580000Y-114370000D02*
X105580000Y-114370000D01*
X105580000Y-114370000D02*
X105580000Y-115370000D01*
X105580000Y-127370000D02*
X105580000Y-128370000D01*
X105580000Y-128370000D02*
X104580000Y-128370000D01*
X92580000Y-128370000D02*
X91580000Y-128370000D01*
X91580000Y-128370000D02*
X91580000Y-127370000D01*
X91580000Y-115370000D02*
X91580000Y-114370000D01*
X91580000Y-114370000D02*
X92580000Y-114370000D01*
%TO.C,K41*%
X199804384Y-126298235D02*
X200789192Y-126471883D01*
X200789192Y-126471883D02*
X200615543Y-127456691D01*
X198531765Y-139274384D02*
X198358117Y-140259192D01*
X198358117Y-140259192D02*
X197373309Y-140085543D01*
X185555616Y-138001765D02*
X184570808Y-137828117D01*
X184570808Y-137828117D02*
X184744457Y-136843309D01*
X186828235Y-125025616D02*
X187001883Y-124040808D01*
X187001883Y-124040808D02*
X187986691Y-124214457D01*
%TO.C,K40*%
X181104767Y-123043139D02*
X182088962Y-123220224D01*
X182088962Y-123220224D02*
X181911878Y-124204420D01*
X179786861Y-136014767D02*
X179609776Y-136998962D01*
X179609776Y-136998962D02*
X178625580Y-136821878D01*
X166815233Y-134696861D02*
X165831038Y-134519776D01*
X165831038Y-134519776D02*
X166008122Y-133535580D01*
X168133139Y-121725233D02*
X168310224Y-120741038D01*
X168310224Y-120741038D02*
X169294420Y-120918122D01*
%TO.C,K34*%
X161590000Y-86330000D02*
X162590000Y-86330000D01*
X162590000Y-86330000D02*
X162590000Y-87330000D01*
X162590000Y-99330000D02*
X162590000Y-100330000D01*
X162590000Y-100330000D02*
X161590000Y-100330000D01*
X149590000Y-100330000D02*
X148590000Y-100330000D01*
X148590000Y-100330000D02*
X148590000Y-99330000D01*
X148590000Y-87330000D02*
X148590000Y-86330000D01*
X148590000Y-86330000D02*
X149590000Y-86330000D01*
%TO.C,K32*%
X123620000Y-84740000D02*
X124620000Y-84740000D01*
X124620000Y-84740000D02*
X124620000Y-85740000D01*
X124620000Y-97740000D02*
X124620000Y-98740000D01*
X124620000Y-98740000D02*
X123620000Y-98740000D01*
X111620000Y-98740000D02*
X110620000Y-98740000D01*
X110620000Y-98740000D02*
X110620000Y-97740000D01*
X110620000Y-85740000D02*
X110620000Y-84740000D01*
X110620000Y-84740000D02*
X111620000Y-84740000D01*
%TO.C,K25*%
X180600000Y-67360000D02*
X181600000Y-67360000D01*
X181600000Y-67360000D02*
X181600000Y-68360000D01*
X181600000Y-80360000D02*
X181600000Y-81360000D01*
X181600000Y-81360000D02*
X180600000Y-81360000D01*
X168600000Y-81360000D02*
X167600000Y-81360000D01*
X167600000Y-81360000D02*
X167600000Y-80360000D01*
X167600000Y-68360000D02*
X167600000Y-67360000D01*
X167600000Y-67360000D02*
X168600000Y-67360000D01*
%TO.C,K24*%
X161580000Y-67330000D02*
X162580000Y-67330000D01*
X162580000Y-67330000D02*
X162580000Y-68330000D01*
X162580000Y-80330000D02*
X162580000Y-81330000D01*
X162580000Y-81330000D02*
X161580000Y-81330000D01*
X149580000Y-81330000D02*
X148580000Y-81330000D01*
X148580000Y-81330000D02*
X148580000Y-80330000D01*
X148580000Y-68330000D02*
X148580000Y-67330000D01*
X148580000Y-67330000D02*
X149580000Y-67330000D01*
%TO.C,K23*%
X142600000Y-57150000D02*
X143600000Y-57150000D01*
X143600000Y-57150000D02*
X143600000Y-58150000D01*
X143600000Y-70150000D02*
X143600000Y-71150000D01*
X143600000Y-71150000D02*
X142600000Y-71150000D01*
X130600000Y-71150000D02*
X129600000Y-71150000D01*
X129600000Y-71150000D02*
X129600000Y-70150000D01*
X129600000Y-58150000D02*
X129600000Y-57150000D01*
X129600000Y-57150000D02*
X130600000Y-57150000D01*
%TO.C,K22*%
X123620000Y-65700000D02*
X124620000Y-65700000D01*
X124620000Y-65700000D02*
X124620000Y-66700000D01*
X124620000Y-78700000D02*
X124620000Y-79700000D01*
X124620000Y-79700000D02*
X123620000Y-79700000D01*
X111620000Y-79700000D02*
X110620000Y-79700000D01*
X110620000Y-79700000D02*
X110620000Y-78700000D01*
X110620000Y-66700000D02*
X110620000Y-65700000D01*
X110620000Y-65700000D02*
X111620000Y-65700000D01*
%TO.C,K15*%
X180590000Y-48340000D02*
X181590000Y-48340000D01*
X181590000Y-48340000D02*
X181590000Y-49340000D01*
X181590000Y-61340000D02*
X181590000Y-62340000D01*
X181590000Y-62340000D02*
X180590000Y-62340000D01*
X168590000Y-62340000D02*
X167590000Y-62340000D01*
X167590000Y-62340000D02*
X167590000Y-61340000D01*
X167590000Y-49340000D02*
X167590000Y-48340000D01*
X167590000Y-48340000D02*
X168590000Y-48340000D01*
%TO.C,K14*%
X161570000Y-48360000D02*
X162570000Y-48360000D01*
X162570000Y-48360000D02*
X162570000Y-49360000D01*
X162570000Y-61360000D02*
X162570000Y-62360000D01*
X162570000Y-62360000D02*
X161570000Y-62360000D01*
X149570000Y-62360000D02*
X148570000Y-62360000D01*
X148570000Y-62360000D02*
X148570000Y-61360000D01*
X148570000Y-49360000D02*
X148570000Y-48360000D01*
X148570000Y-48360000D02*
X149570000Y-48360000D01*
%TO.C,K13*%
X142600000Y-38140000D02*
X143600000Y-38140000D01*
X143600000Y-38140000D02*
X143600000Y-39140000D01*
X143600000Y-51140000D02*
X143600000Y-52140000D01*
X143600000Y-52140000D02*
X142600000Y-52140000D01*
X130600000Y-52140000D02*
X129600000Y-52140000D01*
X129600000Y-52140000D02*
X129600000Y-51140000D01*
X129600000Y-39140000D02*
X129600000Y-38140000D01*
X129600000Y-38140000D02*
X130600000Y-38140000D01*
%TO.C,K12*%
X123610000Y-46690000D02*
X124610000Y-46690000D01*
X124610000Y-46690000D02*
X124610000Y-47690000D01*
X124610000Y-59690000D02*
X124610000Y-60690000D01*
X124610000Y-60690000D02*
X123610000Y-60690000D01*
X111610000Y-60690000D02*
X110610000Y-60690000D01*
X110610000Y-60690000D02*
X110610000Y-59690000D01*
X110610000Y-47690000D02*
X110610000Y-46690000D01*
X110610000Y-46690000D02*
X111610000Y-46690000D01*
%TO.C,K11*%
X104600000Y-76380000D02*
X105600000Y-76380000D01*
X105600000Y-76380000D02*
X105600000Y-77380000D01*
X105600000Y-89380000D02*
X105600000Y-90380000D01*
X105600000Y-90380000D02*
X104600000Y-90380000D01*
X92600000Y-90380000D02*
X91600000Y-90380000D01*
X91600000Y-90380000D02*
X91600000Y-89380000D01*
X91600000Y-77380000D02*
X91600000Y-76380000D01*
X91600000Y-76380000D02*
X92600000Y-76380000D01*
%TO.C,K10*%
X85580000Y-76340000D02*
X86580000Y-76340000D01*
X86580000Y-76340000D02*
X86580000Y-77340000D01*
X86580000Y-89340000D02*
X86580000Y-90340000D01*
X86580000Y-90340000D02*
X85580000Y-90340000D01*
X73580000Y-90340000D02*
X72580000Y-90340000D01*
X72580000Y-90340000D02*
X72580000Y-89340000D01*
X72580000Y-77340000D02*
X72580000Y-76340000D01*
X72580000Y-76340000D02*
X73580000Y-76340000D01*
%TO.C,K0*%
X104620000Y-57370000D02*
X105620000Y-57370000D01*
X105620000Y-57370000D02*
X105620000Y-58370000D01*
X105620000Y-70370000D02*
X105620000Y-71370000D01*
X105620000Y-71370000D02*
X104620000Y-71370000D01*
X92620000Y-71370000D02*
X91620000Y-71370000D01*
X91620000Y-71370000D02*
X91620000Y-70370000D01*
X91620000Y-58370000D02*
X91620000Y-57370000D01*
X91620000Y-57370000D02*
X92620000Y-57370000D01*
%TO.C,U1*%
X168095000Y-113245000D02*
X168095000Y-112670000D01*
X157745000Y-113245000D02*
X157745000Y-112570000D01*
X157745000Y-102895000D02*
X157745000Y-103570000D01*
X168095000Y-102895000D02*
X168095000Y-103570000D01*
X168095000Y-113245000D02*
X167420000Y-113245000D01*
X168095000Y-102895000D02*
X167420000Y-102895000D01*
X157745000Y-102895000D02*
X158420000Y-102895000D01*
X157745000Y-113245000D02*
X158420000Y-113245000D01*
X168095000Y-112670000D02*
X169370000Y-112670000D01*
D11*
%TO.C,J1*%
X190820000Y-46380000D02*
X190820000Y-58680000D01*
X190820000Y-58680000D02*
X184220000Y-58680000D01*
X184220000Y-58680000D02*
X184220000Y-46380000D01*
X184220000Y-46380000D02*
X190820000Y-46380000D01*
%TO.C,J2*%
X184705000Y-113120000D02*
X184705000Y-113922470D01*
X184705000Y-114537530D02*
X184705000Y-115340000D01*
X185910000Y-113120000D02*
X184705000Y-113120000D01*
X185910000Y-115340000D02*
X184705000Y-115340000D01*
X185910000Y-113120000D02*
X185910000Y-113666529D01*
X185910000Y-114793471D02*
X185910000Y-115340000D01*
X186670000Y-113120000D02*
X187430000Y-113120000D01*
X187430000Y-113120000D02*
X187430000Y-114230000D01*
%TO.C,D31*%
X90050000Y-119400000D02*
X90050000Y-123300000D01*
X88050000Y-119400000D02*
X88050000Y-123300000D01*
X90050000Y-119400000D02*
X88050000Y-119400000D01*
%TO.C,J3*%
X121740000Y-44772500D02*
X121290000Y-44772500D01*
X121740000Y-42922500D02*
X121740000Y-44772500D01*
X113940000Y-40372500D02*
X113940000Y-40622500D01*
X121740000Y-40372500D02*
X121740000Y-40622500D01*
X113940000Y-42922500D02*
X113940000Y-44772500D01*
X113940000Y-44772500D02*
X114390000Y-44772500D01*
X119540000Y-45322500D02*
X119090000Y-45322500D01*
X119540000Y-45322500D02*
X119540000Y-44872500D01*
%TO.C,Y1*%
X166950000Y-99290000D02*
X166950000Y-95990000D01*
X166950000Y-95990000D02*
X162950000Y-95990000D01*
%TO.C,C1*%
X154370000Y-104537836D02*
X154370000Y-104322164D01*
X155090000Y-104537836D02*
X155090000Y-104322164D01*
%TO.C,C2*%
X171182164Y-102910000D02*
X171397836Y-102910000D01*
X171182164Y-102190000D02*
X171397836Y-102190000D01*
%TO.C,C3*%
X171040000Y-114662164D02*
X171040000Y-114877836D01*
X170320000Y-114662164D02*
X170320000Y-114877836D01*
%TO.C,C4*%
X164147836Y-100310000D02*
X163932164Y-100310000D01*
X164147836Y-99590000D02*
X163932164Y-99590000D01*
%TO.C,C5*%
X166032164Y-100410000D02*
X166247836Y-100410000D01*
X166032164Y-99690000D02*
X166247836Y-99690000D01*
%TO.C,C6*%
X165762164Y-115960000D02*
X165977836Y-115960000D01*
X165762164Y-115240000D02*
X165977836Y-115240000D01*
%TO.C,C7*%
X173360000Y-107697836D02*
X173360000Y-107482164D01*
X174080000Y-107697836D02*
X174080000Y-107482164D01*
%TO.C,D0*%
X109070000Y-55500000D02*
X107070000Y-55500000D01*
X107070000Y-55500000D02*
X107070000Y-59400000D01*
X109070000Y-55500000D02*
X109070000Y-59400000D01*
%TO.C,D10*%
X89950000Y-74980000D02*
X89950000Y-78880000D01*
X87950000Y-74980000D02*
X87950000Y-78880000D01*
X89950000Y-74980000D02*
X87950000Y-74980000D01*
%TO.C,D11*%
X93460000Y-72670000D02*
X93460000Y-74670000D01*
X93460000Y-74670000D02*
X97360000Y-74670000D01*
X93460000Y-72670000D02*
X97360000Y-72670000D01*
%TO.C,D12*%
X125840000Y-50290000D02*
X125840000Y-46390000D01*
X127840000Y-50290000D02*
X127840000Y-46390000D01*
X125840000Y-50290000D02*
X127840000Y-50290000D01*
%TO.C,D13*%
X144710000Y-47140000D02*
X146710000Y-47140000D01*
X146710000Y-47140000D02*
X146710000Y-43240000D01*
X144710000Y-47140000D02*
X144710000Y-43240000D01*
%TO.C,D14*%
X146960000Y-51450000D02*
X146960000Y-55350000D01*
X144960000Y-51450000D02*
X144960000Y-55350000D01*
X146960000Y-51450000D02*
X144960000Y-51450000D01*
%TO.C,D15*%
X166170000Y-49120000D02*
X164170000Y-49120000D01*
X164170000Y-49120000D02*
X164170000Y-53020000D01*
X166170000Y-49120000D02*
X166170000Y-53020000D01*
%TO.C,D20*%
X78310000Y-94020000D02*
X74410000Y-94020000D01*
X78310000Y-92020000D02*
X74410000Y-92020000D01*
X78310000Y-94020000D02*
X78310000Y-92020000D01*
%TO.C,D21*%
X91050000Y-91940000D02*
X91050000Y-93940000D01*
X91050000Y-93940000D02*
X94950000Y-93940000D01*
X91050000Y-91940000D02*
X94950000Y-91940000D01*
%TO.C,D22*%
X109260000Y-63200000D02*
X109260000Y-67100000D01*
X107260000Y-63200000D02*
X107260000Y-67100000D01*
X109260000Y-63200000D02*
X107260000Y-63200000D01*
%TO.C,D23*%
X136720000Y-55760000D02*
X136720000Y-53760000D01*
X136720000Y-53760000D02*
X132820000Y-53760000D01*
X136720000Y-55760000D02*
X132820000Y-55760000D01*
%TO.C,D24*%
X150410000Y-63830000D02*
X154310000Y-63830000D01*
X150410000Y-65830000D02*
X154310000Y-65830000D01*
X150410000Y-63830000D02*
X150410000Y-65830000D01*
%TO.C,D25*%
X166850000Y-63860000D02*
X166850000Y-65860000D01*
X166850000Y-65860000D02*
X170750000Y-65860000D01*
X166850000Y-63860000D02*
X170750000Y-63860000D01*
%TO.C,D30*%
X79640000Y-113010000D02*
X79640000Y-111010000D01*
X79640000Y-111010000D02*
X75740000Y-111010000D01*
X79640000Y-113010000D02*
X75740000Y-113010000D01*
%TO.C,D32*%
X117410000Y-83340000D02*
X113510000Y-83340000D01*
X117410000Y-81340000D02*
X113510000Y-81340000D01*
X117410000Y-83340000D02*
X117410000Y-81340000D01*
%TO.C,D33*%
X125930000Y-84680000D02*
X127930000Y-84680000D01*
X127930000Y-84680000D02*
X127930000Y-80780000D01*
X125930000Y-84680000D02*
X125930000Y-80780000D01*
%TO.C,D34*%
X147510000Y-83970000D02*
X147510000Y-87870000D01*
X145510000Y-83970000D02*
X145510000Y-87870000D01*
X147510000Y-83970000D02*
X145510000Y-83970000D01*
%TO.C,D35*%
X166610000Y-85340000D02*
X164610000Y-85340000D01*
X164610000Y-85340000D02*
X164610000Y-89240000D01*
X166610000Y-85340000D02*
X166610000Y-89240000D01*
%TO.C,D40*%
X163586117Y-118961903D02*
X166343833Y-121719619D01*
X162171903Y-120376117D02*
X164929619Y-123133833D01*
X163586117Y-118961903D02*
X162171903Y-120376117D01*
%TO.C,D41*%
X182049053Y-132227852D02*
X184012307Y-132609470D01*
X184012307Y-132609470D02*
X184756462Y-128781124D01*
X182049053Y-132227852D02*
X182793208Y-128399506D01*
%TO.C,J5*%
X182725000Y-120300000D02*
X182725000Y-119665000D01*
X183360000Y-120300000D02*
X182725000Y-120300000D01*
X182800000Y-116980000D02*
X190380000Y-116980000D01*
X190980000Y-117580000D02*
X190980000Y-120480000D01*
X190380000Y-121080000D02*
X182800000Y-121080000D01*
X180820000Y-119680000D02*
X180820000Y-118380000D01*
X182800000Y-121080000D02*
X180820000Y-119680000D01*
X180820000Y-118380000D02*
X182800000Y-116980000D01*
X190380000Y-116980000D02*
X190980000Y-117580000D01*
X190380000Y-121080000D02*
X190980000Y-120480000D01*
%TO.C,R1*%
X172036359Y-109690000D02*
X172343641Y-109690000D01*
X172036359Y-108930000D02*
X172343641Y-108930000D01*
%TO.C,R2*%
X172056359Y-110110000D02*
X172363641Y-110110000D01*
X172056359Y-110870000D02*
X172363641Y-110870000D01*
%TO.C,R3*%
X170836359Y-100550000D02*
X171143641Y-100550000D01*
X170836359Y-101310000D02*
X171143641Y-101310000D01*
%TO.C,K35*%
D10*
X173365714Y-85547380D02*
X173365714Y-84547380D01*
X173937142Y-85547380D02*
X173508571Y-84975952D01*
X173937142Y-84547380D02*
X173365714Y-85118809D01*
X174270476Y-84547380D02*
X174889523Y-84547380D01*
X174556190Y-84928333D01*
X174699047Y-84928333D01*
X174794285Y-84975952D01*
X174841904Y-85023571D01*
X174889523Y-85118809D01*
X174889523Y-85356904D01*
X174841904Y-85452142D01*
X174794285Y-85499761D01*
X174699047Y-85547380D01*
X174413333Y-85547380D01*
X174318095Y-85499761D01*
X174270476Y-85452142D01*
X175794285Y-84547380D02*
X175318095Y-84547380D01*
X175270476Y-85023571D01*
X175318095Y-84975952D01*
X175413333Y-84928333D01*
X175651428Y-84928333D01*
X175746666Y-84975952D01*
X175794285Y-85023571D01*
X175841904Y-85118809D01*
X175841904Y-85356904D01*
X175794285Y-85452142D01*
X175746666Y-85499761D01*
X175651428Y-85547380D01*
X175413333Y-85547380D01*
X175318095Y-85499761D01*
X175270476Y-85452142D01*
%TO.C,K33*%
X135405714Y-75367380D02*
X135405714Y-74367380D01*
X135977142Y-75367380D02*
X135548571Y-74795952D01*
X135977142Y-74367380D02*
X135405714Y-74938809D01*
X136310476Y-74367380D02*
X136929523Y-74367380D01*
X136596190Y-74748333D01*
X136739047Y-74748333D01*
X136834285Y-74795952D01*
X136881904Y-74843571D01*
X136929523Y-74938809D01*
X136929523Y-75176904D01*
X136881904Y-75272142D01*
X136834285Y-75319761D01*
X136739047Y-75367380D01*
X136453333Y-75367380D01*
X136358095Y-75319761D01*
X136310476Y-75272142D01*
X137262857Y-74367380D02*
X137881904Y-74367380D01*
X137548571Y-74748333D01*
X137691428Y-74748333D01*
X137786666Y-74795952D01*
X137834285Y-74843571D01*
X137881904Y-74938809D01*
X137881904Y-75176904D01*
X137834285Y-75272142D01*
X137786666Y-75319761D01*
X137691428Y-75367380D01*
X137405714Y-75367380D01*
X137310476Y-75319761D01*
X137262857Y-75272142D01*
%TO.C,K21*%
X97365714Y-94517380D02*
X97365714Y-93517380D01*
X97937142Y-94517380D02*
X97508571Y-93945952D01*
X97937142Y-93517380D02*
X97365714Y-94088809D01*
X98318095Y-93612619D02*
X98365714Y-93565000D01*
X98460952Y-93517380D01*
X98699047Y-93517380D01*
X98794285Y-93565000D01*
X98841904Y-93612619D01*
X98889523Y-93707857D01*
X98889523Y-93803095D01*
X98841904Y-93945952D01*
X98270476Y-94517380D01*
X98889523Y-94517380D01*
X99841904Y-94517380D02*
X99270476Y-94517380D01*
X99556190Y-94517380D02*
X99556190Y-93517380D01*
X99460952Y-93660238D01*
X99365714Y-93755476D01*
X99270476Y-93803095D01*
%TO.C,K20*%
X78365714Y-94557380D02*
X78365714Y-93557380D01*
X78937142Y-94557380D02*
X78508571Y-93985952D01*
X78937142Y-93557380D02*
X78365714Y-94128809D01*
X79318095Y-93652619D02*
X79365714Y-93605000D01*
X79460952Y-93557380D01*
X79699047Y-93557380D01*
X79794285Y-93605000D01*
X79841904Y-93652619D01*
X79889523Y-93747857D01*
X79889523Y-93843095D01*
X79841904Y-93985952D01*
X79270476Y-94557380D01*
X79889523Y-94557380D01*
X80508571Y-93557380D02*
X80603809Y-93557380D01*
X80699047Y-93605000D01*
X80746666Y-93652619D01*
X80794285Y-93747857D01*
X80841904Y-93938333D01*
X80841904Y-94176428D01*
X80794285Y-94366904D01*
X80746666Y-94462142D01*
X80699047Y-94509761D01*
X80603809Y-94557380D01*
X80508571Y-94557380D01*
X80413333Y-94509761D01*
X80365714Y-94462142D01*
X80318095Y-94366904D01*
X80270476Y-94176428D01*
X80270476Y-93938333D01*
X80318095Y-93747857D01*
X80365714Y-93652619D01*
X80413333Y-93605000D01*
X80508571Y-93557380D01*
%TO.C,K30*%
X78345714Y-113577380D02*
X78345714Y-112577380D01*
X78917142Y-113577380D02*
X78488571Y-113005952D01*
X78917142Y-112577380D02*
X78345714Y-113148809D01*
X79250476Y-112577380D02*
X79869523Y-112577380D01*
X79536190Y-112958333D01*
X79679047Y-112958333D01*
X79774285Y-113005952D01*
X79821904Y-113053571D01*
X79869523Y-113148809D01*
X79869523Y-113386904D01*
X79821904Y-113482142D01*
X79774285Y-113529761D01*
X79679047Y-113577380D01*
X79393333Y-113577380D01*
X79298095Y-113529761D01*
X79250476Y-113482142D01*
X80488571Y-112577380D02*
X80583809Y-112577380D01*
X80679047Y-112625000D01*
X80726666Y-112672619D01*
X80774285Y-112767857D01*
X80821904Y-112958333D01*
X80821904Y-113196428D01*
X80774285Y-113386904D01*
X80726666Y-113482142D01*
X80679047Y-113529761D01*
X80583809Y-113577380D01*
X80488571Y-113577380D01*
X80393333Y-113529761D01*
X80345714Y-113482142D01*
X80298095Y-113386904D01*
X80250476Y-113196428D01*
X80250476Y-112958333D01*
X80298095Y-112767857D01*
X80345714Y-112672619D01*
X80393333Y-112625000D01*
X80488571Y-112577380D01*
%TO.C,K31*%
X97365714Y-113567380D02*
X97365714Y-112567380D01*
X97937142Y-113567380D02*
X97508571Y-112995952D01*
X97937142Y-112567380D02*
X97365714Y-113138809D01*
X98270476Y-112567380D02*
X98889523Y-112567380D01*
X98556190Y-112948333D01*
X98699047Y-112948333D01*
X98794285Y-112995952D01*
X98841904Y-113043571D01*
X98889523Y-113138809D01*
X98889523Y-113376904D01*
X98841904Y-113472142D01*
X98794285Y-113519761D01*
X98699047Y-113567380D01*
X98413333Y-113567380D01*
X98318095Y-113519761D01*
X98270476Y-113472142D01*
X99841904Y-113567380D02*
X99270476Y-113567380D01*
X99556190Y-113567380D02*
X99556190Y-112567380D01*
X99460952Y-112710238D01*
X99365714Y-112805476D01*
X99270476Y-112853095D01*
%TO.C,K41*%
X192839072Y-124255061D02*
X193012721Y-123270254D01*
X193401820Y-124354289D02*
X193078987Y-123717121D01*
X193575468Y-123369481D02*
X192913493Y-123833001D01*
X194361706Y-123846592D02*
X194245941Y-124503130D01*
X194193380Y-123430082D02*
X193834867Y-124092171D01*
X194444510Y-124199668D01*
X195277644Y-124685047D02*
X194714897Y-124585820D01*
X194996270Y-124635433D02*
X195169918Y-123650626D01*
X195051320Y-123774775D01*
X194940991Y-123852028D01*
X194838931Y-123882386D01*
%TO.C,K40*%
X174146630Y-120975664D02*
X174323715Y-119991469D01*
X174709028Y-121076856D02*
X174388421Y-120438565D01*
X174886112Y-120092660D02*
X174222524Y-120553866D01*
X175670680Y-120572512D02*
X175552624Y-121228643D01*
X175503809Y-120155417D02*
X175142987Y-120816251D01*
X175752251Y-120925875D01*
X176432705Y-120370936D02*
X176526438Y-120387801D01*
X176611739Y-120451533D01*
X176650172Y-120506832D01*
X176680174Y-120608998D01*
X176693310Y-120804896D01*
X176651147Y-121039228D01*
X176570550Y-121218261D01*
X176506818Y-121303562D01*
X176451519Y-121341996D01*
X176349354Y-121371997D01*
X176255621Y-121355132D01*
X176170320Y-121291400D01*
X176131886Y-121236101D01*
X176101885Y-121133935D01*
X176088749Y-120938037D01*
X176130912Y-120703705D01*
X176211509Y-120524671D01*
X176275241Y-120439371D01*
X176330540Y-120400937D01*
X176432705Y-120370936D01*
%TO.C,K34*%
X154375714Y-85527380D02*
X154375714Y-84527380D01*
X154947142Y-85527380D02*
X154518571Y-84955952D01*
X154947142Y-84527380D02*
X154375714Y-85098809D01*
X155280476Y-84527380D02*
X155899523Y-84527380D01*
X155566190Y-84908333D01*
X155709047Y-84908333D01*
X155804285Y-84955952D01*
X155851904Y-85003571D01*
X155899523Y-85098809D01*
X155899523Y-85336904D01*
X155851904Y-85432142D01*
X155804285Y-85479761D01*
X155709047Y-85527380D01*
X155423333Y-85527380D01*
X155328095Y-85479761D01*
X155280476Y-85432142D01*
X156756666Y-84860714D02*
X156756666Y-85527380D01*
X156518571Y-84479761D02*
X156280476Y-85194047D01*
X156899523Y-85194047D01*
%TO.C,K32*%
X116405714Y-83937380D02*
X116405714Y-82937380D01*
X116977142Y-83937380D02*
X116548571Y-83365952D01*
X116977142Y-82937380D02*
X116405714Y-83508809D01*
X117310476Y-82937380D02*
X117929523Y-82937380D01*
X117596190Y-83318333D01*
X117739047Y-83318333D01*
X117834285Y-83365952D01*
X117881904Y-83413571D01*
X117929523Y-83508809D01*
X117929523Y-83746904D01*
X117881904Y-83842142D01*
X117834285Y-83889761D01*
X117739047Y-83937380D01*
X117453333Y-83937380D01*
X117358095Y-83889761D01*
X117310476Y-83842142D01*
X118310476Y-83032619D02*
X118358095Y-82985000D01*
X118453333Y-82937380D01*
X118691428Y-82937380D01*
X118786666Y-82985000D01*
X118834285Y-83032619D01*
X118881904Y-83127857D01*
X118881904Y-83223095D01*
X118834285Y-83365952D01*
X118262857Y-83937380D01*
X118881904Y-83937380D01*
%TO.C,K25*%
X173385714Y-66557380D02*
X173385714Y-65557380D01*
X173957142Y-66557380D02*
X173528571Y-65985952D01*
X173957142Y-65557380D02*
X173385714Y-66128809D01*
X174338095Y-65652619D02*
X174385714Y-65605000D01*
X174480952Y-65557380D01*
X174719047Y-65557380D01*
X174814285Y-65605000D01*
X174861904Y-65652619D01*
X174909523Y-65747857D01*
X174909523Y-65843095D01*
X174861904Y-65985952D01*
X174290476Y-66557380D01*
X174909523Y-66557380D01*
X175814285Y-65557380D02*
X175338095Y-65557380D01*
X175290476Y-66033571D01*
X175338095Y-65985952D01*
X175433333Y-65938333D01*
X175671428Y-65938333D01*
X175766666Y-65985952D01*
X175814285Y-66033571D01*
X175861904Y-66128809D01*
X175861904Y-66366904D01*
X175814285Y-66462142D01*
X175766666Y-66509761D01*
X175671428Y-66557380D01*
X175433333Y-66557380D01*
X175338095Y-66509761D01*
X175290476Y-66462142D01*
%TO.C,K24*%
X154365714Y-66527380D02*
X154365714Y-65527380D01*
X154937142Y-66527380D02*
X154508571Y-65955952D01*
X154937142Y-65527380D02*
X154365714Y-66098809D01*
X155318095Y-65622619D02*
X155365714Y-65575000D01*
X155460952Y-65527380D01*
X155699047Y-65527380D01*
X155794285Y-65575000D01*
X155841904Y-65622619D01*
X155889523Y-65717857D01*
X155889523Y-65813095D01*
X155841904Y-65955952D01*
X155270476Y-66527380D01*
X155889523Y-66527380D01*
X156746666Y-65860714D02*
X156746666Y-66527380D01*
X156508571Y-65479761D02*
X156270476Y-66194047D01*
X156889523Y-66194047D01*
%TO.C,K23*%
X135385714Y-56347380D02*
X135385714Y-55347380D01*
X135957142Y-56347380D02*
X135528571Y-55775952D01*
X135957142Y-55347380D02*
X135385714Y-55918809D01*
X136338095Y-55442619D02*
X136385714Y-55395000D01*
X136480952Y-55347380D01*
X136719047Y-55347380D01*
X136814285Y-55395000D01*
X136861904Y-55442619D01*
X136909523Y-55537857D01*
X136909523Y-55633095D01*
X136861904Y-55775952D01*
X136290476Y-56347380D01*
X136909523Y-56347380D01*
X137242857Y-55347380D02*
X137861904Y-55347380D01*
X137528571Y-55728333D01*
X137671428Y-55728333D01*
X137766666Y-55775952D01*
X137814285Y-55823571D01*
X137861904Y-55918809D01*
X137861904Y-56156904D01*
X137814285Y-56252142D01*
X137766666Y-56299761D01*
X137671428Y-56347380D01*
X137385714Y-56347380D01*
X137290476Y-56299761D01*
X137242857Y-56252142D01*
%TO.C,K22*%
X116405714Y-64897380D02*
X116405714Y-63897380D01*
X116977142Y-64897380D02*
X116548571Y-64325952D01*
X116977142Y-63897380D02*
X116405714Y-64468809D01*
X117358095Y-63992619D02*
X117405714Y-63945000D01*
X117500952Y-63897380D01*
X117739047Y-63897380D01*
X117834285Y-63945000D01*
X117881904Y-63992619D01*
X117929523Y-64087857D01*
X117929523Y-64183095D01*
X117881904Y-64325952D01*
X117310476Y-64897380D01*
X117929523Y-64897380D01*
X118310476Y-63992619D02*
X118358095Y-63945000D01*
X118453333Y-63897380D01*
X118691428Y-63897380D01*
X118786666Y-63945000D01*
X118834285Y-63992619D01*
X118881904Y-64087857D01*
X118881904Y-64183095D01*
X118834285Y-64325952D01*
X118262857Y-64897380D01*
X118881904Y-64897380D01*
%TO.C,K15*%
X173375714Y-47537380D02*
X173375714Y-46537380D01*
X173947142Y-47537380D02*
X173518571Y-46965952D01*
X173947142Y-46537380D02*
X173375714Y-47108809D01*
X174899523Y-47537380D02*
X174328095Y-47537380D01*
X174613809Y-47537380D02*
X174613809Y-46537380D01*
X174518571Y-46680238D01*
X174423333Y-46775476D01*
X174328095Y-46823095D01*
X175804285Y-46537380D02*
X175328095Y-46537380D01*
X175280476Y-47013571D01*
X175328095Y-46965952D01*
X175423333Y-46918333D01*
X175661428Y-46918333D01*
X175756666Y-46965952D01*
X175804285Y-47013571D01*
X175851904Y-47108809D01*
X175851904Y-47346904D01*
X175804285Y-47442142D01*
X175756666Y-47489761D01*
X175661428Y-47537380D01*
X175423333Y-47537380D01*
X175328095Y-47489761D01*
X175280476Y-47442142D01*
%TO.C,K14*%
X154355714Y-47557380D02*
X154355714Y-46557380D01*
X154927142Y-47557380D02*
X154498571Y-46985952D01*
X154927142Y-46557380D02*
X154355714Y-47128809D01*
X155879523Y-47557380D02*
X155308095Y-47557380D01*
X155593809Y-47557380D02*
X155593809Y-46557380D01*
X155498571Y-46700238D01*
X155403333Y-46795476D01*
X155308095Y-46843095D01*
X156736666Y-46890714D02*
X156736666Y-47557380D01*
X156498571Y-46509761D02*
X156260476Y-47224047D01*
X156879523Y-47224047D01*
%TO.C,K13*%
X135385714Y-37337380D02*
X135385714Y-36337380D01*
X135957142Y-37337380D02*
X135528571Y-36765952D01*
X135957142Y-36337380D02*
X135385714Y-36908809D01*
X136909523Y-37337380D02*
X136338095Y-37337380D01*
X136623809Y-37337380D02*
X136623809Y-36337380D01*
X136528571Y-36480238D01*
X136433333Y-36575476D01*
X136338095Y-36623095D01*
X137242857Y-36337380D02*
X137861904Y-36337380D01*
X137528571Y-36718333D01*
X137671428Y-36718333D01*
X137766666Y-36765952D01*
X137814285Y-36813571D01*
X137861904Y-36908809D01*
X137861904Y-37146904D01*
X137814285Y-37242142D01*
X137766666Y-37289761D01*
X137671428Y-37337380D01*
X137385714Y-37337380D01*
X137290476Y-37289761D01*
X137242857Y-37242142D01*
%TO.C,K12*%
X111745714Y-46262380D02*
X111745714Y-45262380D01*
X112317142Y-46262380D02*
X111888571Y-45690952D01*
X112317142Y-45262380D02*
X111745714Y-45833809D01*
X113269523Y-46262380D02*
X112698095Y-46262380D01*
X112983809Y-46262380D02*
X112983809Y-45262380D01*
X112888571Y-45405238D01*
X112793333Y-45500476D01*
X112698095Y-45548095D01*
X113650476Y-45357619D02*
X113698095Y-45310000D01*
X113793333Y-45262380D01*
X114031428Y-45262380D01*
X114126666Y-45310000D01*
X114174285Y-45357619D01*
X114221904Y-45452857D01*
X114221904Y-45548095D01*
X114174285Y-45690952D01*
X113602857Y-46262380D01*
X114221904Y-46262380D01*
%TO.C,K11*%
X97385714Y-75577380D02*
X97385714Y-74577380D01*
X97957142Y-75577380D02*
X97528571Y-75005952D01*
X97957142Y-74577380D02*
X97385714Y-75148809D01*
X98909523Y-75577380D02*
X98338095Y-75577380D01*
X98623809Y-75577380D02*
X98623809Y-74577380D01*
X98528571Y-74720238D01*
X98433333Y-74815476D01*
X98338095Y-74863095D01*
X99861904Y-75577380D02*
X99290476Y-75577380D01*
X99576190Y-75577380D02*
X99576190Y-74577380D01*
X99480952Y-74720238D01*
X99385714Y-74815476D01*
X99290476Y-74863095D01*
%TO.C,K10*%
X78365714Y-75537380D02*
X78365714Y-74537380D01*
X78937142Y-75537380D02*
X78508571Y-74965952D01*
X78937142Y-74537380D02*
X78365714Y-75108809D01*
X79889523Y-75537380D02*
X79318095Y-75537380D01*
X79603809Y-75537380D02*
X79603809Y-74537380D01*
X79508571Y-74680238D01*
X79413333Y-74775476D01*
X79318095Y-74823095D01*
X80508571Y-74537380D02*
X80603809Y-74537380D01*
X80699047Y-74585000D01*
X80746666Y-74632619D01*
X80794285Y-74727857D01*
X80841904Y-74918333D01*
X80841904Y-75156428D01*
X80794285Y-75346904D01*
X80746666Y-75442142D01*
X80699047Y-75489761D01*
X80603809Y-75537380D01*
X80508571Y-75537380D01*
X80413333Y-75489761D01*
X80365714Y-75442142D01*
X80318095Y-75346904D01*
X80270476Y-75156428D01*
X80270476Y-74918333D01*
X80318095Y-74727857D01*
X80365714Y-74632619D01*
X80413333Y-74585000D01*
X80508571Y-74537380D01*
%TO.C,K0*%
X97881904Y-56567380D02*
X97881904Y-55567380D01*
X98453333Y-56567380D02*
X98024761Y-55995952D01*
X98453333Y-55567380D02*
X97881904Y-56138809D01*
X99072380Y-55567380D02*
X99167619Y-55567380D01*
X99262857Y-55615000D01*
X99310476Y-55662619D01*
X99358095Y-55757857D01*
X99405714Y-55948333D01*
X99405714Y-56186428D01*
X99358095Y-56376904D01*
X99310476Y-56472142D01*
X99262857Y-56519761D01*
X99167619Y-56567380D01*
X99072380Y-56567380D01*
X98977142Y-56519761D01*
X98929523Y-56472142D01*
X98881904Y-56376904D01*
X98834285Y-56186428D01*
X98834285Y-55948333D01*
X98881904Y-55757857D01*
X98929523Y-55662619D01*
X98977142Y-55615000D01*
X99072380Y-55567380D01*
%TO.C,U1*%
X162428095Y-117042380D02*
X162428095Y-117851904D01*
X162475714Y-117947142D01*
X162523333Y-117994761D01*
X162618571Y-118042380D01*
X162809047Y-118042380D01*
X162904285Y-117994761D01*
X162951904Y-117947142D01*
X162999523Y-117851904D01*
X162999523Y-117042380D01*
X163999523Y-118042380D02*
X163428095Y-118042380D01*
X163713809Y-118042380D02*
X163713809Y-117042380D01*
X163618571Y-117185238D01*
X163523333Y-117280476D01*
X163428095Y-117328095D01*
%TO.C,H4*%
X181678095Y-132882380D02*
X181678095Y-131882380D01*
X181678095Y-132358571D02*
X182249523Y-132358571D01*
X182249523Y-132882380D02*
X182249523Y-131882380D01*
X183154285Y-132215714D02*
X183154285Y-132882380D01*
X182916190Y-131834761D02*
X182678095Y-132549047D01*
X183297142Y-132549047D01*
%TO.C,H3*%
X145698095Y-62482380D02*
X145698095Y-61482380D01*
X145698095Y-61958571D02*
X146269523Y-61958571D01*
X146269523Y-62482380D02*
X146269523Y-61482380D01*
X146650476Y-61482380D02*
X147269523Y-61482380D01*
X146936190Y-61863333D01*
X147079047Y-61863333D01*
X147174285Y-61910952D01*
X147221904Y-61958571D01*
X147269523Y-62053809D01*
X147269523Y-62291904D01*
X147221904Y-62387142D01*
X147174285Y-62434761D01*
X147079047Y-62482380D01*
X146793333Y-62482380D01*
X146698095Y-62434761D01*
X146650476Y-62387142D01*
%TO.C,H2*%
X106828095Y-71162380D02*
X106828095Y-70162380D01*
X106828095Y-70638571D02*
X107399523Y-70638571D01*
X107399523Y-71162380D02*
X107399523Y-70162380D01*
X107828095Y-70257619D02*
X107875714Y-70210000D01*
X107970952Y-70162380D01*
X108209047Y-70162380D01*
X108304285Y-70210000D01*
X108351904Y-70257619D01*
X108399523Y-70352857D01*
X108399523Y-70448095D01*
X108351904Y-70590952D01*
X107780476Y-71162380D01*
X108399523Y-71162380D01*
%TO.C,H1*%
X88608095Y-109332380D02*
X88608095Y-108332380D01*
X88608095Y-108808571D02*
X89179523Y-108808571D01*
X89179523Y-109332380D02*
X89179523Y-108332380D01*
X90179523Y-109332380D02*
X89608095Y-109332380D01*
X89893809Y-109332380D02*
X89893809Y-108332380D01*
X89798571Y-108475238D01*
X89703333Y-108570476D01*
X89608095Y-108618095D01*
%TO.C,J1*%
X187112380Y-52683333D02*
X187826666Y-52683333D01*
X187969523Y-52730952D01*
X188064761Y-52826190D01*
X188112380Y-52969047D01*
X188112380Y-53064285D01*
X188112380Y-51683333D02*
X188112380Y-52254761D01*
X188112380Y-51969047D02*
X187112380Y-51969047D01*
X187255238Y-52064285D01*
X187350476Y-52159523D01*
X187398095Y-52254761D01*
%TO.C,J2*%
X188462380Y-114533333D02*
X189176666Y-114533333D01*
X189319523Y-114580952D01*
X189414761Y-114676190D01*
X189462380Y-114819047D01*
X189462380Y-114914285D01*
X188557619Y-114104761D02*
X188510000Y-114057142D01*
X188462380Y-113961904D01*
X188462380Y-113723809D01*
X188510000Y-113628571D01*
X188557619Y-113580952D01*
X188652857Y-113533333D01*
X188748095Y-113533333D01*
X188890952Y-113580952D01*
X189462380Y-114152380D01*
X189462380Y-113533333D01*
%TO.C,D31*%
X91502380Y-122864285D02*
X90502380Y-122864285D01*
X90502380Y-122626190D01*
X90550000Y-122483333D01*
X90645238Y-122388095D01*
X90740476Y-122340476D01*
X90930952Y-122292857D01*
X91073809Y-122292857D01*
X91264285Y-122340476D01*
X91359523Y-122388095D01*
X91454761Y-122483333D01*
X91502380Y-122626190D01*
X91502380Y-122864285D01*
X90502380Y-121959523D02*
X90502380Y-121340476D01*
X90883333Y-121673809D01*
X90883333Y-121530952D01*
X90930952Y-121435714D01*
X90978571Y-121388095D01*
X91073809Y-121340476D01*
X91311904Y-121340476D01*
X91407142Y-121388095D01*
X91454761Y-121435714D01*
X91502380Y-121530952D01*
X91502380Y-121816666D01*
X91454761Y-121911904D01*
X91407142Y-121959523D01*
X91502380Y-120388095D02*
X91502380Y-120959523D01*
X91502380Y-120673809D02*
X90502380Y-120673809D01*
X90645238Y-120769047D01*
X90740476Y-120864285D01*
X90788095Y-120959523D01*
%TO.C,J3*%
X117506666Y-45574880D02*
X117506666Y-46289166D01*
X117459047Y-46432023D01*
X117363809Y-46527261D01*
X117220952Y-46574880D01*
X117125714Y-46574880D01*
X117887619Y-45574880D02*
X118506666Y-45574880D01*
X118173333Y-45955833D01*
X118316190Y-45955833D01*
X118411428Y-46003452D01*
X118459047Y-46051071D01*
X118506666Y-46146309D01*
X118506666Y-46384404D01*
X118459047Y-46479642D01*
X118411428Y-46527261D01*
X118316190Y-46574880D01*
X118030476Y-46574880D01*
X117935238Y-46527261D01*
X117887619Y-46479642D01*
%TO.C,Y1*%
X167104246Y-93642250D02*
X167104246Y-94118440D01*
X166770913Y-93118440D02*
X167104246Y-93642250D01*
X167437579Y-93118440D01*
X168294722Y-94118440D02*
X167723294Y-94118440D01*
X168009008Y-94118440D02*
X168009008Y-93118440D01*
X167913770Y-93261298D01*
X167818532Y-93356536D01*
X167723294Y-93404155D01*
%TO.C,C1*%
X152997142Y-104436666D02*
X153044761Y-104484285D01*
X153092380Y-104627142D01*
X153092380Y-104722380D01*
X153044761Y-104865238D01*
X152949523Y-104960476D01*
X152854285Y-105008095D01*
X152663809Y-105055714D01*
X152520952Y-105055714D01*
X152330476Y-105008095D01*
X152235238Y-104960476D01*
X152140000Y-104865238D01*
X152092380Y-104722380D01*
X152092380Y-104627142D01*
X152140000Y-104484285D01*
X152187619Y-104436666D01*
X153092380Y-103484285D02*
X153092380Y-104055714D01*
X153092380Y-103770000D02*
X152092380Y-103770000D01*
X152235238Y-103865238D01*
X152330476Y-103960476D01*
X152378095Y-104055714D01*
%TO.C,C2*%
X173363333Y-101687142D02*
X173315714Y-101734761D01*
X173172857Y-101782380D01*
X173077619Y-101782380D01*
X172934761Y-101734761D01*
X172839523Y-101639523D01*
X172791904Y-101544285D01*
X172744285Y-101353809D01*
X172744285Y-101210952D01*
X172791904Y-101020476D01*
X172839523Y-100925238D01*
X172934761Y-100830000D01*
X173077619Y-100782380D01*
X173172857Y-100782380D01*
X173315714Y-100830000D01*
X173363333Y-100877619D01*
X173744285Y-100877619D02*
X173791904Y-100830000D01*
X173887142Y-100782380D01*
X174125238Y-100782380D01*
X174220476Y-100830000D01*
X174268095Y-100877619D01*
X174315714Y-100972857D01*
X174315714Y-101068095D01*
X174268095Y-101210952D01*
X173696666Y-101782380D01*
X174315714Y-101782380D01*
%TO.C,C3*%
X171617142Y-119576666D02*
X171664761Y-119624285D01*
X171712380Y-119767142D01*
X171712380Y-119862380D01*
X171664761Y-120005238D01*
X171569523Y-120100476D01*
X171474285Y-120148095D01*
X171283809Y-120195714D01*
X171140952Y-120195714D01*
X170950476Y-120148095D01*
X170855238Y-120100476D01*
X170760000Y-120005238D01*
X170712380Y-119862380D01*
X170712380Y-119767142D01*
X170760000Y-119624285D01*
X170807619Y-119576666D01*
X170712380Y-119243333D02*
X170712380Y-118624285D01*
X171093333Y-118957619D01*
X171093333Y-118814761D01*
X171140952Y-118719523D01*
X171188571Y-118671904D01*
X171283809Y-118624285D01*
X171521904Y-118624285D01*
X171617142Y-118671904D01*
X171664761Y-118719523D01*
X171712380Y-118814761D01*
X171712380Y-119100476D01*
X171664761Y-119195714D01*
X171617142Y-119243333D01*
%TO.C,C4*%
X167793333Y-101307142D02*
X167745714Y-101354761D01*
X167602857Y-101402380D01*
X167507619Y-101402380D01*
X167364761Y-101354761D01*
X167269523Y-101259523D01*
X167221904Y-101164285D01*
X167174285Y-100973809D01*
X167174285Y-100830952D01*
X167221904Y-100640476D01*
X167269523Y-100545238D01*
X167364761Y-100450000D01*
X167507619Y-100402380D01*
X167602857Y-100402380D01*
X167745714Y-100450000D01*
X167793333Y-100497619D01*
X168650476Y-100735714D02*
X168650476Y-101402380D01*
X168412380Y-100354761D02*
X168174285Y-101069047D01*
X168793333Y-101069047D01*
%TO.C,C5*%
X168243333Y-96147142D02*
X168195714Y-96194761D01*
X168052857Y-96242380D01*
X167957619Y-96242380D01*
X167814761Y-96194761D01*
X167719523Y-96099523D01*
X167671904Y-96004285D01*
X167624285Y-95813809D01*
X167624285Y-95670952D01*
X167671904Y-95480476D01*
X167719523Y-95385238D01*
X167814761Y-95290000D01*
X167957619Y-95242380D01*
X168052857Y-95242380D01*
X168195714Y-95290000D01*
X168243333Y-95337619D01*
X169148095Y-95242380D02*
X168671904Y-95242380D01*
X168624285Y-95718571D01*
X168671904Y-95670952D01*
X168767142Y-95623333D01*
X169005238Y-95623333D01*
X169100476Y-95670952D01*
X169148095Y-95718571D01*
X169195714Y-95813809D01*
X169195714Y-96051904D01*
X169148095Y-96147142D01*
X169100476Y-96194761D01*
X169005238Y-96242380D01*
X168767142Y-96242380D01*
X168671904Y-96194761D01*
X168624285Y-96147142D01*
%TO.C,C6*%
X160913333Y-116367142D02*
X160865714Y-116414761D01*
X160722857Y-116462380D01*
X160627619Y-116462380D01*
X160484761Y-116414761D01*
X160389523Y-116319523D01*
X160341904Y-116224285D01*
X160294285Y-116033809D01*
X160294285Y-115890952D01*
X160341904Y-115700476D01*
X160389523Y-115605238D01*
X160484761Y-115510000D01*
X160627619Y-115462380D01*
X160722857Y-115462380D01*
X160865714Y-115510000D01*
X160913333Y-115557619D01*
X161770476Y-115462380D02*
X161580000Y-115462380D01*
X161484761Y-115510000D01*
X161437142Y-115557619D01*
X161341904Y-115700476D01*
X161294285Y-115890952D01*
X161294285Y-116271904D01*
X161341904Y-116367142D01*
X161389523Y-116414761D01*
X161484761Y-116462380D01*
X161675238Y-116462380D01*
X161770476Y-116414761D01*
X161818095Y-116367142D01*
X161865714Y-116271904D01*
X161865714Y-116033809D01*
X161818095Y-115938571D01*
X161770476Y-115890952D01*
X161675238Y-115843333D01*
X161484761Y-115843333D01*
X161389523Y-115890952D01*
X161341904Y-115938571D01*
X161294285Y-116033809D01*
%TO.C,C7*%
X174117142Y-105226666D02*
X174164761Y-105274285D01*
X174212380Y-105417142D01*
X174212380Y-105512380D01*
X174164761Y-105655238D01*
X174069523Y-105750476D01*
X173974285Y-105798095D01*
X173783809Y-105845714D01*
X173640952Y-105845714D01*
X173450476Y-105798095D01*
X173355238Y-105750476D01*
X173260000Y-105655238D01*
X173212380Y-105512380D01*
X173212380Y-105417142D01*
X173260000Y-105274285D01*
X173307619Y-105226666D01*
X173212380Y-104893333D02*
X173212380Y-104226666D01*
X174212380Y-104655238D01*
%TO.C,D0*%
X110522380Y-58488095D02*
X109522380Y-58488095D01*
X109522380Y-58250000D01*
X109570000Y-58107142D01*
X109665238Y-58011904D01*
X109760476Y-57964285D01*
X109950952Y-57916666D01*
X110093809Y-57916666D01*
X110284285Y-57964285D01*
X110379523Y-58011904D01*
X110474761Y-58107142D01*
X110522380Y-58250000D01*
X110522380Y-58488095D01*
X109522380Y-57297619D02*
X109522380Y-57202380D01*
X109570000Y-57107142D01*
X109617619Y-57059523D01*
X109712857Y-57011904D01*
X109903333Y-56964285D01*
X110141428Y-56964285D01*
X110331904Y-57011904D01*
X110427142Y-57059523D01*
X110474761Y-57107142D01*
X110522380Y-57202380D01*
X110522380Y-57297619D01*
X110474761Y-57392857D01*
X110427142Y-57440476D01*
X110331904Y-57488095D01*
X110141428Y-57535714D01*
X109903333Y-57535714D01*
X109712857Y-57488095D01*
X109617619Y-57440476D01*
X109570000Y-57392857D01*
X109522380Y-57297619D01*
%TO.C,D10*%
X91402380Y-78444285D02*
X90402380Y-78444285D01*
X90402380Y-78206190D01*
X90450000Y-78063333D01*
X90545238Y-77968095D01*
X90640476Y-77920476D01*
X90830952Y-77872857D01*
X90973809Y-77872857D01*
X91164285Y-77920476D01*
X91259523Y-77968095D01*
X91354761Y-78063333D01*
X91402380Y-78206190D01*
X91402380Y-78444285D01*
X91402380Y-76920476D02*
X91402380Y-77491904D01*
X91402380Y-77206190D02*
X90402380Y-77206190D01*
X90545238Y-77301428D01*
X90640476Y-77396666D01*
X90688095Y-77491904D01*
X90402380Y-76301428D02*
X90402380Y-76206190D01*
X90450000Y-76110952D01*
X90497619Y-76063333D01*
X90592857Y-76015714D01*
X90783333Y-75968095D01*
X91021428Y-75968095D01*
X91211904Y-76015714D01*
X91307142Y-76063333D01*
X91354761Y-76110952D01*
X91402380Y-76206190D01*
X91402380Y-76301428D01*
X91354761Y-76396666D01*
X91307142Y-76444285D01*
X91211904Y-76491904D01*
X91021428Y-76539523D01*
X90783333Y-76539523D01*
X90592857Y-76491904D01*
X90497619Y-76444285D01*
X90450000Y-76396666D01*
X90402380Y-76301428D01*
%TO.C,D11*%
X94495714Y-72122380D02*
X94495714Y-71122380D01*
X94733809Y-71122380D01*
X94876666Y-71170000D01*
X94971904Y-71265238D01*
X95019523Y-71360476D01*
X95067142Y-71550952D01*
X95067142Y-71693809D01*
X95019523Y-71884285D01*
X94971904Y-71979523D01*
X94876666Y-72074761D01*
X94733809Y-72122380D01*
X94495714Y-72122380D01*
X96019523Y-72122380D02*
X95448095Y-72122380D01*
X95733809Y-72122380D02*
X95733809Y-71122380D01*
X95638571Y-71265238D01*
X95543333Y-71360476D01*
X95448095Y-71408095D01*
X96971904Y-72122380D02*
X96400476Y-72122380D01*
X96686190Y-72122380D02*
X96686190Y-71122380D01*
X96590952Y-71265238D01*
X96495714Y-71360476D01*
X96400476Y-71408095D01*
%TO.C,D12*%
X125292380Y-49254285D02*
X124292380Y-49254285D01*
X124292380Y-49016190D01*
X124340000Y-48873333D01*
X124435238Y-48778095D01*
X124530476Y-48730476D01*
X124720952Y-48682857D01*
X124863809Y-48682857D01*
X125054285Y-48730476D01*
X125149523Y-48778095D01*
X125244761Y-48873333D01*
X125292380Y-49016190D01*
X125292380Y-49254285D01*
X125292380Y-47730476D02*
X125292380Y-48301904D01*
X125292380Y-48016190D02*
X124292380Y-48016190D01*
X124435238Y-48111428D01*
X124530476Y-48206666D01*
X124578095Y-48301904D01*
X124387619Y-47349523D02*
X124340000Y-47301904D01*
X124292380Y-47206666D01*
X124292380Y-46968571D01*
X124340000Y-46873333D01*
X124387619Y-46825714D01*
X124482857Y-46778095D01*
X124578095Y-46778095D01*
X124720952Y-46825714D01*
X125292380Y-47397142D01*
X125292380Y-46778095D01*
%TO.C,D13*%
X144162380Y-46104285D02*
X143162380Y-46104285D01*
X143162380Y-45866190D01*
X143210000Y-45723333D01*
X143305238Y-45628095D01*
X143400476Y-45580476D01*
X143590952Y-45532857D01*
X143733809Y-45532857D01*
X143924285Y-45580476D01*
X144019523Y-45628095D01*
X144114761Y-45723333D01*
X144162380Y-45866190D01*
X144162380Y-46104285D01*
X144162380Y-44580476D02*
X144162380Y-45151904D01*
X144162380Y-44866190D02*
X143162380Y-44866190D01*
X143305238Y-44961428D01*
X143400476Y-45056666D01*
X143448095Y-45151904D01*
X143162380Y-44247142D02*
X143162380Y-43628095D01*
X143543333Y-43961428D01*
X143543333Y-43818571D01*
X143590952Y-43723333D01*
X143638571Y-43675714D01*
X143733809Y-43628095D01*
X143971904Y-43628095D01*
X144067142Y-43675714D01*
X144114761Y-43723333D01*
X144162380Y-43818571D01*
X144162380Y-44104285D01*
X144114761Y-44199523D01*
X144067142Y-44247142D01*
%TO.C,D14*%
X148412380Y-54914285D02*
X147412380Y-54914285D01*
X147412380Y-54676190D01*
X147460000Y-54533333D01*
X147555238Y-54438095D01*
X147650476Y-54390476D01*
X147840952Y-54342857D01*
X147983809Y-54342857D01*
X148174285Y-54390476D01*
X148269523Y-54438095D01*
X148364761Y-54533333D01*
X148412380Y-54676190D01*
X148412380Y-54914285D01*
X148412380Y-53390476D02*
X148412380Y-53961904D01*
X148412380Y-53676190D02*
X147412380Y-53676190D01*
X147555238Y-53771428D01*
X147650476Y-53866666D01*
X147698095Y-53961904D01*
X147745714Y-52533333D02*
X148412380Y-52533333D01*
X147364761Y-52771428D02*
X148079047Y-53009523D01*
X148079047Y-52390476D01*
%TO.C,D15*%
X167622380Y-52584285D02*
X166622380Y-52584285D01*
X166622380Y-52346190D01*
X166670000Y-52203333D01*
X166765238Y-52108095D01*
X166860476Y-52060476D01*
X167050952Y-52012857D01*
X167193809Y-52012857D01*
X167384285Y-52060476D01*
X167479523Y-52108095D01*
X167574761Y-52203333D01*
X167622380Y-52346190D01*
X167622380Y-52584285D01*
X167622380Y-51060476D02*
X167622380Y-51631904D01*
X167622380Y-51346190D02*
X166622380Y-51346190D01*
X166765238Y-51441428D01*
X166860476Y-51536666D01*
X166908095Y-51631904D01*
X166622380Y-50155714D02*
X166622380Y-50631904D01*
X167098571Y-50679523D01*
X167050952Y-50631904D01*
X167003333Y-50536666D01*
X167003333Y-50298571D01*
X167050952Y-50203333D01*
X167098571Y-50155714D01*
X167193809Y-50108095D01*
X167431904Y-50108095D01*
X167527142Y-50155714D01*
X167574761Y-50203333D01*
X167622380Y-50298571D01*
X167622380Y-50536666D01*
X167574761Y-50631904D01*
X167527142Y-50679523D01*
%TO.C,D20*%
X74845714Y-95472380D02*
X74845714Y-94472380D01*
X75083809Y-94472380D01*
X75226666Y-94520000D01*
X75321904Y-94615238D01*
X75369523Y-94710476D01*
X75417142Y-94900952D01*
X75417142Y-95043809D01*
X75369523Y-95234285D01*
X75321904Y-95329523D01*
X75226666Y-95424761D01*
X75083809Y-95472380D01*
X74845714Y-95472380D01*
X75798095Y-94567619D02*
X75845714Y-94520000D01*
X75940952Y-94472380D01*
X76179047Y-94472380D01*
X76274285Y-94520000D01*
X76321904Y-94567619D01*
X76369523Y-94662857D01*
X76369523Y-94758095D01*
X76321904Y-94900952D01*
X75750476Y-95472380D01*
X76369523Y-95472380D01*
X76988571Y-94472380D02*
X77083809Y-94472380D01*
X77179047Y-94520000D01*
X77226666Y-94567619D01*
X77274285Y-94662857D01*
X77321904Y-94853333D01*
X77321904Y-95091428D01*
X77274285Y-95281904D01*
X77226666Y-95377142D01*
X77179047Y-95424761D01*
X77083809Y-95472380D01*
X76988571Y-95472380D01*
X76893333Y-95424761D01*
X76845714Y-95377142D01*
X76798095Y-95281904D01*
X76750476Y-95091428D01*
X76750476Y-94853333D01*
X76798095Y-94662857D01*
X76845714Y-94567619D01*
X76893333Y-94520000D01*
X76988571Y-94472380D01*
%TO.C,D21*%
X92085714Y-91392380D02*
X92085714Y-90392380D01*
X92323809Y-90392380D01*
X92466666Y-90440000D01*
X92561904Y-90535238D01*
X92609523Y-90630476D01*
X92657142Y-90820952D01*
X92657142Y-90963809D01*
X92609523Y-91154285D01*
X92561904Y-91249523D01*
X92466666Y-91344761D01*
X92323809Y-91392380D01*
X92085714Y-91392380D01*
X93038095Y-90487619D02*
X93085714Y-90440000D01*
X93180952Y-90392380D01*
X93419047Y-90392380D01*
X93514285Y-90440000D01*
X93561904Y-90487619D01*
X93609523Y-90582857D01*
X93609523Y-90678095D01*
X93561904Y-90820952D01*
X92990476Y-91392380D01*
X93609523Y-91392380D01*
X94561904Y-91392380D02*
X93990476Y-91392380D01*
X94276190Y-91392380D02*
X94276190Y-90392380D01*
X94180952Y-90535238D01*
X94085714Y-90630476D01*
X93990476Y-90678095D01*
%TO.C,D22*%
X110712380Y-66664285D02*
X109712380Y-66664285D01*
X109712380Y-66426190D01*
X109760000Y-66283333D01*
X109855238Y-66188095D01*
X109950476Y-66140476D01*
X110140952Y-66092857D01*
X110283809Y-66092857D01*
X110474285Y-66140476D01*
X110569523Y-66188095D01*
X110664761Y-66283333D01*
X110712380Y-66426190D01*
X110712380Y-66664285D01*
X109807619Y-65711904D02*
X109760000Y-65664285D01*
X109712380Y-65569047D01*
X109712380Y-65330952D01*
X109760000Y-65235714D01*
X109807619Y-65188095D01*
X109902857Y-65140476D01*
X109998095Y-65140476D01*
X110140952Y-65188095D01*
X110712380Y-65759523D01*
X110712380Y-65140476D01*
X109807619Y-64759523D02*
X109760000Y-64711904D01*
X109712380Y-64616666D01*
X109712380Y-64378571D01*
X109760000Y-64283333D01*
X109807619Y-64235714D01*
X109902857Y-64188095D01*
X109998095Y-64188095D01*
X110140952Y-64235714D01*
X110712380Y-64807142D01*
X110712380Y-64188095D01*
%TO.C,D23*%
X133255714Y-57212380D02*
X133255714Y-56212380D01*
X133493809Y-56212380D01*
X133636666Y-56260000D01*
X133731904Y-56355238D01*
X133779523Y-56450476D01*
X133827142Y-56640952D01*
X133827142Y-56783809D01*
X133779523Y-56974285D01*
X133731904Y-57069523D01*
X133636666Y-57164761D01*
X133493809Y-57212380D01*
X133255714Y-57212380D01*
X134208095Y-56307619D02*
X134255714Y-56260000D01*
X134350952Y-56212380D01*
X134589047Y-56212380D01*
X134684285Y-56260000D01*
X134731904Y-56307619D01*
X134779523Y-56402857D01*
X134779523Y-56498095D01*
X134731904Y-56640952D01*
X134160476Y-57212380D01*
X134779523Y-57212380D01*
X135112857Y-56212380D02*
X135731904Y-56212380D01*
X135398571Y-56593333D01*
X135541428Y-56593333D01*
X135636666Y-56640952D01*
X135684285Y-56688571D01*
X135731904Y-56783809D01*
X135731904Y-57021904D01*
X135684285Y-57117142D01*
X135636666Y-57164761D01*
X135541428Y-57212380D01*
X135255714Y-57212380D01*
X135160476Y-57164761D01*
X135112857Y-57117142D01*
%TO.C,D24*%
X151445714Y-63282380D02*
X151445714Y-62282380D01*
X151683809Y-62282380D01*
X151826666Y-62330000D01*
X151921904Y-62425238D01*
X151969523Y-62520476D01*
X152017142Y-62710952D01*
X152017142Y-62853809D01*
X151969523Y-63044285D01*
X151921904Y-63139523D01*
X151826666Y-63234761D01*
X151683809Y-63282380D01*
X151445714Y-63282380D01*
X152398095Y-62377619D02*
X152445714Y-62330000D01*
X152540952Y-62282380D01*
X152779047Y-62282380D01*
X152874285Y-62330000D01*
X152921904Y-62377619D01*
X152969523Y-62472857D01*
X152969523Y-62568095D01*
X152921904Y-62710952D01*
X152350476Y-63282380D01*
X152969523Y-63282380D01*
X153826666Y-62615714D02*
X153826666Y-63282380D01*
X153588571Y-62234761D02*
X153350476Y-62949047D01*
X153969523Y-62949047D01*
%TO.C,D25*%
X167885714Y-63312380D02*
X167885714Y-62312380D01*
X168123809Y-62312380D01*
X168266666Y-62360000D01*
X168361904Y-62455238D01*
X168409523Y-62550476D01*
X168457142Y-62740952D01*
X168457142Y-62883809D01*
X168409523Y-63074285D01*
X168361904Y-63169523D01*
X168266666Y-63264761D01*
X168123809Y-63312380D01*
X167885714Y-63312380D01*
X168838095Y-62407619D02*
X168885714Y-62360000D01*
X168980952Y-62312380D01*
X169219047Y-62312380D01*
X169314285Y-62360000D01*
X169361904Y-62407619D01*
X169409523Y-62502857D01*
X169409523Y-62598095D01*
X169361904Y-62740952D01*
X168790476Y-63312380D01*
X169409523Y-63312380D01*
X170314285Y-62312380D02*
X169838095Y-62312380D01*
X169790476Y-62788571D01*
X169838095Y-62740952D01*
X169933333Y-62693333D01*
X170171428Y-62693333D01*
X170266666Y-62740952D01*
X170314285Y-62788571D01*
X170361904Y-62883809D01*
X170361904Y-63121904D01*
X170314285Y-63217142D01*
X170266666Y-63264761D01*
X170171428Y-63312380D01*
X169933333Y-63312380D01*
X169838095Y-63264761D01*
X169790476Y-63217142D01*
%TO.C,D30*%
X76175714Y-114462380D02*
X76175714Y-113462380D01*
X76413809Y-113462380D01*
X76556666Y-113510000D01*
X76651904Y-113605238D01*
X76699523Y-113700476D01*
X76747142Y-113890952D01*
X76747142Y-114033809D01*
X76699523Y-114224285D01*
X76651904Y-114319523D01*
X76556666Y-114414761D01*
X76413809Y-114462380D01*
X76175714Y-114462380D01*
X77080476Y-113462380D02*
X77699523Y-113462380D01*
X77366190Y-113843333D01*
X77509047Y-113843333D01*
X77604285Y-113890952D01*
X77651904Y-113938571D01*
X77699523Y-114033809D01*
X77699523Y-114271904D01*
X77651904Y-114367142D01*
X77604285Y-114414761D01*
X77509047Y-114462380D01*
X77223333Y-114462380D01*
X77128095Y-114414761D01*
X77080476Y-114367142D01*
X78318571Y-113462380D02*
X78413809Y-113462380D01*
X78509047Y-113510000D01*
X78556666Y-113557619D01*
X78604285Y-113652857D01*
X78651904Y-113843333D01*
X78651904Y-114081428D01*
X78604285Y-114271904D01*
X78556666Y-114367142D01*
X78509047Y-114414761D01*
X78413809Y-114462380D01*
X78318571Y-114462380D01*
X78223333Y-114414761D01*
X78175714Y-114367142D01*
X78128095Y-114271904D01*
X78080476Y-114081428D01*
X78080476Y-113843333D01*
X78128095Y-113652857D01*
X78175714Y-113557619D01*
X78223333Y-113510000D01*
X78318571Y-113462380D01*
%TO.C,D32*%
X113945714Y-84792380D02*
X113945714Y-83792380D01*
X114183809Y-83792380D01*
X114326666Y-83840000D01*
X114421904Y-83935238D01*
X114469523Y-84030476D01*
X114517142Y-84220952D01*
X114517142Y-84363809D01*
X114469523Y-84554285D01*
X114421904Y-84649523D01*
X114326666Y-84744761D01*
X114183809Y-84792380D01*
X113945714Y-84792380D01*
X114850476Y-83792380D02*
X115469523Y-83792380D01*
X115136190Y-84173333D01*
X115279047Y-84173333D01*
X115374285Y-84220952D01*
X115421904Y-84268571D01*
X115469523Y-84363809D01*
X115469523Y-84601904D01*
X115421904Y-84697142D01*
X115374285Y-84744761D01*
X115279047Y-84792380D01*
X114993333Y-84792380D01*
X114898095Y-84744761D01*
X114850476Y-84697142D01*
X115850476Y-83887619D02*
X115898095Y-83840000D01*
X115993333Y-83792380D01*
X116231428Y-83792380D01*
X116326666Y-83840000D01*
X116374285Y-83887619D01*
X116421904Y-83982857D01*
X116421904Y-84078095D01*
X116374285Y-84220952D01*
X115802857Y-84792380D01*
X116421904Y-84792380D01*
%TO.C,D33*%
X125382380Y-83644285D02*
X124382380Y-83644285D01*
X124382380Y-83406190D01*
X124430000Y-83263333D01*
X124525238Y-83168095D01*
X124620476Y-83120476D01*
X124810952Y-83072857D01*
X124953809Y-83072857D01*
X125144285Y-83120476D01*
X125239523Y-83168095D01*
X125334761Y-83263333D01*
X125382380Y-83406190D01*
X125382380Y-83644285D01*
X124382380Y-82739523D02*
X124382380Y-82120476D01*
X124763333Y-82453809D01*
X124763333Y-82310952D01*
X124810952Y-82215714D01*
X124858571Y-82168095D01*
X124953809Y-82120476D01*
X125191904Y-82120476D01*
X125287142Y-82168095D01*
X125334761Y-82215714D01*
X125382380Y-82310952D01*
X125382380Y-82596666D01*
X125334761Y-82691904D01*
X125287142Y-82739523D01*
X124382380Y-81787142D02*
X124382380Y-81168095D01*
X124763333Y-81501428D01*
X124763333Y-81358571D01*
X124810952Y-81263333D01*
X124858571Y-81215714D01*
X124953809Y-81168095D01*
X125191904Y-81168095D01*
X125287142Y-81215714D01*
X125334761Y-81263333D01*
X125382380Y-81358571D01*
X125382380Y-81644285D01*
X125334761Y-81739523D01*
X125287142Y-81787142D01*
%TO.C,D34*%
X148962380Y-87434285D02*
X147962380Y-87434285D01*
X147962380Y-87196190D01*
X148010000Y-87053333D01*
X148105238Y-86958095D01*
X148200476Y-86910476D01*
X148390952Y-86862857D01*
X148533809Y-86862857D01*
X148724285Y-86910476D01*
X148819523Y-86958095D01*
X148914761Y-87053333D01*
X148962380Y-87196190D01*
X148962380Y-87434285D01*
X147962380Y-86529523D02*
X147962380Y-85910476D01*
X148343333Y-86243809D01*
X148343333Y-86100952D01*
X148390952Y-86005714D01*
X148438571Y-85958095D01*
X148533809Y-85910476D01*
X148771904Y-85910476D01*
X148867142Y-85958095D01*
X148914761Y-86005714D01*
X148962380Y-86100952D01*
X148962380Y-86386666D01*
X148914761Y-86481904D01*
X148867142Y-86529523D01*
X148295714Y-85053333D02*
X148962380Y-85053333D01*
X147914761Y-85291428D02*
X148629047Y-85529523D01*
X148629047Y-84910476D01*
%TO.C,D35*%
X168062380Y-88804285D02*
X167062380Y-88804285D01*
X167062380Y-88566190D01*
X167110000Y-88423333D01*
X167205238Y-88328095D01*
X167300476Y-88280476D01*
X167490952Y-88232857D01*
X167633809Y-88232857D01*
X167824285Y-88280476D01*
X167919523Y-88328095D01*
X168014761Y-88423333D01*
X168062380Y-88566190D01*
X168062380Y-88804285D01*
X167062380Y-87899523D02*
X167062380Y-87280476D01*
X167443333Y-87613809D01*
X167443333Y-87470952D01*
X167490952Y-87375714D01*
X167538571Y-87328095D01*
X167633809Y-87280476D01*
X167871904Y-87280476D01*
X167967142Y-87328095D01*
X168014761Y-87375714D01*
X168062380Y-87470952D01*
X168062380Y-87756666D01*
X168014761Y-87851904D01*
X167967142Y-87899523D01*
X167062380Y-86375714D02*
X167062380Y-86851904D01*
X167538571Y-86899523D01*
X167490952Y-86851904D01*
X167443333Y-86756666D01*
X167443333Y-86518571D01*
X167490952Y-86423333D01*
X167538571Y-86375714D01*
X167633809Y-86328095D01*
X167871904Y-86328095D01*
X167967142Y-86375714D01*
X168014761Y-86423333D01*
X168062380Y-86518571D01*
X168062380Y-86756666D01*
X168014761Y-86851904D01*
X167967142Y-86899523D01*
%TO.C,D40*%
X164705702Y-119307037D02*
X165412809Y-118599931D01*
X165581168Y-118768289D01*
X165648511Y-118902976D01*
X165648511Y-119037663D01*
X165614839Y-119138679D01*
X165513824Y-119307037D01*
X165412809Y-119408053D01*
X165244450Y-119509068D01*
X165143435Y-119542740D01*
X165008748Y-119542740D01*
X164874061Y-119475396D01*
X164705702Y-119307037D01*
X166187259Y-119845785D02*
X165715855Y-120317190D01*
X166288275Y-119408053D02*
X165614839Y-119744770D01*
X166052572Y-120182503D01*
X166928038Y-120115160D02*
X166995381Y-120182503D01*
X167029053Y-120283518D01*
X167029053Y-120350862D01*
X166995381Y-120451877D01*
X166894366Y-120620236D01*
X166726007Y-120788595D01*
X166557649Y-120889610D01*
X166456633Y-120923282D01*
X166389290Y-120923282D01*
X166288275Y-120889610D01*
X166220931Y-120822266D01*
X166187259Y-120721251D01*
X166187259Y-120653908D01*
X166220931Y-120552892D01*
X166321946Y-120384534D01*
X166490305Y-120216175D01*
X166658664Y-120115160D01*
X166759679Y-120081488D01*
X166827023Y-120081488D01*
X166928038Y-120115160D01*
%TO.C,D41*%
X181709118Y-131106676D02*
X180727491Y-130915867D01*
X180772922Y-130682146D01*
X180846924Y-130551000D01*
X180958585Y-130475684D01*
X181061159Y-130447112D01*
X181257222Y-130436712D01*
X181397455Y-130463971D01*
X181575345Y-130547059D01*
X181659747Y-130611976D01*
X181735063Y-130723636D01*
X181754549Y-130872955D01*
X181709118Y-131106676D01*
X181327284Y-129577145D02*
X181981703Y-129704351D01*
X180907901Y-129738177D02*
X181563632Y-130108190D01*
X181681752Y-129500516D01*
X182181598Y-128675980D02*
X182072564Y-129236910D01*
X182127081Y-128956445D02*
X181145454Y-128765636D01*
X181267514Y-128886382D01*
X181342830Y-128998043D01*
X181371402Y-129100618D01*
%TO.C,J5*%
X185566666Y-121382380D02*
X185566666Y-122096666D01*
X185519047Y-122239523D01*
X185423809Y-122334761D01*
X185280952Y-122382380D01*
X185185714Y-122382380D01*
X186519047Y-121382380D02*
X186042857Y-121382380D01*
X185995238Y-121858571D01*
X186042857Y-121810952D01*
X186138095Y-121763333D01*
X186376190Y-121763333D01*
X186471428Y-121810952D01*
X186519047Y-121858571D01*
X186566666Y-121953809D01*
X186566666Y-122191904D01*
X186519047Y-122287142D01*
X186471428Y-122334761D01*
X186376190Y-122382380D01*
X186138095Y-122382380D01*
X186042857Y-122334761D01*
X185995238Y-122287142D01*
%TO.C,R1*%
X178703333Y-108842380D02*
X178370000Y-108366190D01*
X178131904Y-108842380D02*
X178131904Y-107842380D01*
X178512857Y-107842380D01*
X178608095Y-107890000D01*
X178655714Y-107937619D01*
X178703333Y-108032857D01*
X178703333Y-108175714D01*
X178655714Y-108270952D01*
X178608095Y-108318571D01*
X178512857Y-108366190D01*
X178131904Y-108366190D01*
X179655714Y-108842380D02*
X179084285Y-108842380D01*
X179370000Y-108842380D02*
X179370000Y-107842380D01*
X179274761Y-107985238D01*
X179179523Y-108080476D01*
X179084285Y-108128095D01*
%TO.C,R2*%
X179223333Y-111052380D02*
X178890000Y-110576190D01*
X178651904Y-111052380D02*
X178651904Y-110052380D01*
X179032857Y-110052380D01*
X179128095Y-110100000D01*
X179175714Y-110147619D01*
X179223333Y-110242857D01*
X179223333Y-110385714D01*
X179175714Y-110480952D01*
X179128095Y-110528571D01*
X179032857Y-110576190D01*
X178651904Y-110576190D01*
X179604285Y-110147619D02*
X179651904Y-110100000D01*
X179747142Y-110052380D01*
X179985238Y-110052380D01*
X180080476Y-110100000D01*
X180128095Y-110147619D01*
X180175714Y-110242857D01*
X180175714Y-110338095D01*
X180128095Y-110480952D01*
X179556666Y-111052380D01*
X180175714Y-111052380D01*
%TO.C,R3*%
X168453333Y-99112380D02*
X168120000Y-98636190D01*
X167881904Y-99112380D02*
X167881904Y-98112380D01*
X168262857Y-98112380D01*
X168358095Y-98160000D01*
X168405714Y-98207619D01*
X168453333Y-98302857D01*
X168453333Y-98445714D01*
X168405714Y-98540952D01*
X168358095Y-98588571D01*
X168262857Y-98636190D01*
X167881904Y-98636190D01*
X168786666Y-98112380D02*
X169405714Y-98112380D01*
X169072380Y-98493333D01*
X169215238Y-98493333D01*
X169310476Y-98540952D01*
X169358095Y-98588571D01*
X169405714Y-98683809D01*
X169405714Y-98921904D01*
X169358095Y-99017142D01*
X169310476Y-99064761D01*
X169215238Y-99112380D01*
X168929523Y-99112380D01*
X168834285Y-99064761D01*
X168786666Y-99017142D01*
%TD*%
M02*
