%TF.GenerationSoftware,KiCad,Pcbnew,5.1.10*%
%TF.CreationDate,2021-09-27T15:43:44+02:00*%
%TF.ProjectId,pinkytyl_v2,70696e6b-7974-4796-9c5f-76322e6b6963,rev?*%
%TF.SameCoordinates,Original*%
%TF.FileFunction,Legend,Top*%
%TF.FilePolarity,Positive*%
%FSLAX46Y46*%
G04 Gerber Fmt 4.6, Leading zero omitted, Abs format (unit mm)*
G04 Created by KiCad (PCBNEW 5.1.10) date 2021-09-27 15:43:44*
%MOMM*%
%LPD*%
G01*
G04 APERTURE LIST*
%ADD10C,0.150000*%
%ADD11C,0.120000*%
G04 APERTURE END LIST*
D10*
X158852857Y-106757142D02*
X158852857Y-107400000D01*
X158810000Y-107528571D01*
X158724285Y-107614285D01*
X158595714Y-107657142D01*
X158510000Y-107657142D01*
X159710000Y-107657142D02*
X159281428Y-107657142D01*
X159281428Y-106757142D01*
X160524285Y-107571428D02*
X160481428Y-107614285D01*
X160352857Y-107657142D01*
X160267142Y-107657142D01*
X160138571Y-107614285D01*
X160052857Y-107528571D01*
X160010000Y-107442857D01*
X159967142Y-107271428D01*
X159967142Y-107142857D01*
X160010000Y-106971428D01*
X160052857Y-106885714D01*
X160138571Y-106800000D01*
X160267142Y-106757142D01*
X160352857Y-106757142D01*
X160481428Y-106800000D01*
X160524285Y-106842857D01*
X161167142Y-106757142D02*
X161167142Y-107400000D01*
X161124285Y-107528571D01*
X161038571Y-107614285D01*
X160910000Y-107657142D01*
X160824285Y-107657142D01*
X162024285Y-107657142D02*
X161595714Y-107657142D01*
X161595714Y-106757142D01*
X162838571Y-107571428D02*
X162795714Y-107614285D01*
X162667142Y-107657142D01*
X162581428Y-107657142D01*
X162452857Y-107614285D01*
X162367142Y-107528571D01*
X162324285Y-107442857D01*
X162281428Y-107271428D01*
X162281428Y-107142857D01*
X162324285Y-106971428D01*
X162367142Y-106885714D01*
X162452857Y-106800000D01*
X162581428Y-106757142D01*
X162667142Y-106757142D01*
X162795714Y-106800000D01*
X162838571Y-106842857D01*
X163481428Y-106757142D02*
X163481428Y-107400000D01*
X163438571Y-107528571D01*
X163352857Y-107614285D01*
X163224285Y-107657142D01*
X163138571Y-107657142D01*
X164338571Y-107657142D02*
X163910000Y-107657142D01*
X163910000Y-106757142D01*
X165152857Y-107571428D02*
X165110000Y-107614285D01*
X164981428Y-107657142D01*
X164895714Y-107657142D01*
X164767142Y-107614285D01*
X164681428Y-107528571D01*
X164638571Y-107442857D01*
X164595714Y-107271428D01*
X164595714Y-107142857D01*
X164638571Y-106971428D01*
X164681428Y-106885714D01*
X164767142Y-106800000D01*
X164895714Y-106757142D01*
X164981428Y-106757142D01*
X165110000Y-106800000D01*
X165152857Y-106842857D01*
X165795714Y-106757142D02*
X165795714Y-107400000D01*
X165752857Y-107528571D01*
X165667142Y-107614285D01*
X165538571Y-107657142D01*
X165452857Y-107657142D01*
X166652857Y-107657142D02*
X166224285Y-107657142D01*
X166224285Y-106757142D01*
X167467142Y-107571428D02*
X167424285Y-107614285D01*
X167295714Y-107657142D01*
X167210000Y-107657142D01*
X167081428Y-107614285D01*
X166995714Y-107528571D01*
X166952857Y-107442857D01*
X166910000Y-107271428D01*
X166910000Y-107142857D01*
X166952857Y-106971428D01*
X166995714Y-106885714D01*
X167081428Y-106800000D01*
X167210000Y-106757142D01*
X167295714Y-106757142D01*
X167424285Y-106800000D01*
X167467142Y-106842857D01*
X185423809Y-116632380D02*
X185423809Y-115632380D01*
X185852380Y-116584761D02*
X185995238Y-116632380D01*
X186233333Y-116632380D01*
X186328571Y-116584761D01*
X186376190Y-116537142D01*
X186423809Y-116441904D01*
X186423809Y-116346666D01*
X186376190Y-116251428D01*
X186328571Y-116203809D01*
X186233333Y-116156190D01*
X186042857Y-116108571D01*
X185947619Y-116060952D01*
X185900000Y-116013333D01*
X185852380Y-115918095D01*
X185852380Y-115822857D01*
X185900000Y-115727619D01*
X185947619Y-115680000D01*
X186042857Y-115632380D01*
X186280952Y-115632380D01*
X186423809Y-115680000D01*
X186852380Y-116632380D02*
X186852380Y-115632380D01*
X187233333Y-115632380D01*
X187328571Y-115680000D01*
X187376190Y-115727619D01*
X187423809Y-115822857D01*
X187423809Y-115965714D01*
X187376190Y-116060952D01*
X187328571Y-116108571D01*
X187233333Y-116156190D01*
X186852380Y-116156190D01*
X184701904Y-112132380D02*
X184368571Y-111656190D01*
X184130476Y-112132380D02*
X184130476Y-111132380D01*
X184511428Y-111132380D01*
X184606666Y-111180000D01*
X184654285Y-111227619D01*
X184701904Y-111322857D01*
X184701904Y-111465714D01*
X184654285Y-111560952D01*
X184606666Y-111608571D01*
X184511428Y-111656190D01*
X184130476Y-111656190D01*
X185511428Y-112084761D02*
X185416190Y-112132380D01*
X185225714Y-112132380D01*
X185130476Y-112084761D01*
X185082857Y-111989523D01*
X185082857Y-111608571D01*
X185130476Y-111513333D01*
X185225714Y-111465714D01*
X185416190Y-111465714D01*
X185511428Y-111513333D01*
X185559047Y-111608571D01*
X185559047Y-111703809D01*
X185082857Y-111799047D01*
X185940000Y-112084761D02*
X186035238Y-112132380D01*
X186225714Y-112132380D01*
X186320952Y-112084761D01*
X186368571Y-111989523D01*
X186368571Y-111941904D01*
X186320952Y-111846666D01*
X186225714Y-111799047D01*
X186082857Y-111799047D01*
X185987619Y-111751428D01*
X185940000Y-111656190D01*
X185940000Y-111608571D01*
X185987619Y-111513333D01*
X186082857Y-111465714D01*
X186225714Y-111465714D01*
X186320952Y-111513333D01*
X187178095Y-112084761D02*
X187082857Y-112132380D01*
X186892380Y-112132380D01*
X186797142Y-112084761D01*
X186749523Y-111989523D01*
X186749523Y-111608571D01*
X186797142Y-111513333D01*
X186892380Y-111465714D01*
X187082857Y-111465714D01*
X187178095Y-111513333D01*
X187225714Y-111608571D01*
X187225714Y-111703809D01*
X186749523Y-111799047D01*
X187511428Y-111465714D02*
X187892380Y-111465714D01*
X187654285Y-111132380D02*
X187654285Y-111989523D01*
X187701904Y-112084761D01*
X187797142Y-112132380D01*
X187892380Y-112132380D01*
X169595714Y-115852380D02*
X169595714Y-114852380D01*
X169976666Y-114852380D01*
X170071904Y-114900000D01*
X170119523Y-114947619D01*
X170167142Y-115042857D01*
X170167142Y-115185714D01*
X170119523Y-115280952D01*
X170071904Y-115328571D01*
X169976666Y-115376190D01*
X169595714Y-115376190D01*
X170595714Y-115852380D02*
X170595714Y-115185714D01*
X170595714Y-114852380D02*
X170548095Y-114900000D01*
X170595714Y-114947619D01*
X170643333Y-114900000D01*
X170595714Y-114852380D01*
X170595714Y-114947619D01*
X171071904Y-115185714D02*
X171071904Y-115852380D01*
X171071904Y-115280952D02*
X171119523Y-115233333D01*
X171214761Y-115185714D01*
X171357619Y-115185714D01*
X171452857Y-115233333D01*
X171500476Y-115328571D01*
X171500476Y-115852380D01*
X171976666Y-115852380D02*
X171976666Y-114852380D01*
X172071904Y-115471428D02*
X172357619Y-115852380D01*
X172357619Y-115185714D02*
X171976666Y-115566666D01*
X172690952Y-115185714D02*
X172929047Y-115852380D01*
X173167142Y-115185714D02*
X172929047Y-115852380D01*
X172833809Y-116090476D01*
X172786190Y-116138095D01*
X172690952Y-116185714D01*
X173405238Y-115185714D02*
X173786190Y-115185714D01*
X173548095Y-114852380D02*
X173548095Y-115709523D01*
X173595714Y-115804761D01*
X173690952Y-115852380D01*
X173786190Y-115852380D01*
X174024285Y-115185714D02*
X174262380Y-115852380D01*
X174500476Y-115185714D02*
X174262380Y-115852380D01*
X174167142Y-116090476D01*
X174119523Y-116138095D01*
X174024285Y-116185714D01*
X175024285Y-115852380D02*
X174929047Y-115804761D01*
X174881428Y-115709523D01*
X174881428Y-114852380D01*
X176024285Y-114852380D02*
X176357619Y-115852380D01*
X176690952Y-114852380D01*
X176976666Y-114947619D02*
X177024285Y-114900000D01*
X177119523Y-114852380D01*
X177357619Y-114852380D01*
X177452857Y-114900000D01*
X177500476Y-114947619D01*
X177548095Y-115042857D01*
X177548095Y-115138095D01*
X177500476Y-115280952D01*
X176929047Y-115852380D01*
X177548095Y-115852380D01*
X179071904Y-115328571D02*
X179214761Y-115376190D01*
X179262380Y-115423809D01*
X179310000Y-115519047D01*
X179310000Y-115661904D01*
X179262380Y-115757142D01*
X179214761Y-115804761D01*
X179119523Y-115852380D01*
X178738571Y-115852380D01*
X178738571Y-114852380D01*
X179071904Y-114852380D01*
X179167142Y-114900000D01*
X179214761Y-114947619D01*
X179262380Y-115042857D01*
X179262380Y-115138095D01*
X179214761Y-115233333D01*
X179167142Y-115280952D01*
X179071904Y-115328571D01*
X178738571Y-115328571D01*
X179643333Y-115185714D02*
X179881428Y-115852380D01*
X180119523Y-115185714D02*
X179881428Y-115852380D01*
X179786190Y-116090476D01*
X179738571Y-116138095D01*
X179643333Y-116185714D01*
X168619523Y-117502380D02*
X168619523Y-116502380D01*
X169000476Y-116502380D01*
X169095714Y-116550000D01*
X169143333Y-116597619D01*
X169190952Y-116692857D01*
X169190952Y-116835714D01*
X169143333Y-116930952D01*
X169095714Y-116978571D01*
X169000476Y-117026190D01*
X168619523Y-117026190D01*
X169619523Y-117502380D02*
X169619523Y-116502380D01*
X170048095Y-117502380D02*
X170048095Y-116978571D01*
X170000476Y-116883333D01*
X169905238Y-116835714D01*
X169762380Y-116835714D01*
X169667142Y-116883333D01*
X169619523Y-116930952D01*
X170524285Y-117502380D02*
X170524285Y-116835714D01*
X170524285Y-116502380D02*
X170476666Y-116550000D01*
X170524285Y-116597619D01*
X170571904Y-116550000D01*
X170524285Y-116502380D01*
X170524285Y-116597619D01*
X171143333Y-117502380D02*
X171048095Y-117454761D01*
X171000476Y-117359523D01*
X171000476Y-116502380D01*
X171524285Y-117502380D02*
X171524285Y-116835714D01*
X171524285Y-116502380D02*
X171476666Y-116550000D01*
X171524285Y-116597619D01*
X171571904Y-116550000D01*
X171524285Y-116502380D01*
X171524285Y-116597619D01*
X172000476Y-116835714D02*
X172000476Y-117835714D01*
X172000476Y-116883333D02*
X172095714Y-116835714D01*
X172286190Y-116835714D01*
X172381428Y-116883333D01*
X172429047Y-116930952D01*
X172476666Y-117026190D01*
X172476666Y-117311904D01*
X172429047Y-117407142D01*
X172381428Y-117454761D01*
X172286190Y-117502380D01*
X172095714Y-117502380D01*
X172000476Y-117454761D01*
X173667142Y-117502380D02*
X173667142Y-116502380D01*
X174238571Y-117502380D02*
X173810000Y-116930952D01*
X174238571Y-116502380D02*
X173667142Y-117073809D01*
X174667142Y-117407142D02*
X174714761Y-117454761D01*
X174667142Y-117502380D01*
X174619523Y-117454761D01*
X174667142Y-117407142D01*
X174667142Y-117502380D01*
X176429047Y-116550000D02*
X176333809Y-116502380D01*
X176190952Y-116502380D01*
X176048095Y-116550000D01*
X175952857Y-116645238D01*
X175905238Y-116740476D01*
X175857619Y-116930952D01*
X175857619Y-117073809D01*
X175905238Y-117264285D01*
X175952857Y-117359523D01*
X176048095Y-117454761D01*
X176190952Y-117502380D01*
X176286190Y-117502380D01*
X176429047Y-117454761D01*
X176476666Y-117407142D01*
X176476666Y-117073809D01*
X176286190Y-117073809D01*
X176905238Y-117502380D02*
X176905238Y-116835714D01*
X176905238Y-116502380D02*
X176857619Y-116550000D01*
X176905238Y-116597619D01*
X176952857Y-116550000D01*
X176905238Y-116502380D01*
X176905238Y-116597619D01*
X177333809Y-117454761D02*
X177429047Y-117502380D01*
X177619523Y-117502380D01*
X177714761Y-117454761D01*
X177762380Y-117359523D01*
X177762380Y-117311904D01*
X177714761Y-117216666D01*
X177619523Y-117169047D01*
X177476666Y-117169047D01*
X177381428Y-117121428D01*
X177333809Y-117026190D01*
X177333809Y-116978571D01*
X177381428Y-116883333D01*
X177476666Y-116835714D01*
X177619523Y-116835714D01*
X177714761Y-116883333D01*
X178143333Y-117454761D02*
X178238571Y-117502380D01*
X178429047Y-117502380D01*
X178524285Y-117454761D01*
X178571904Y-117359523D01*
X178571904Y-117311904D01*
X178524285Y-117216666D01*
X178429047Y-117169047D01*
X178286190Y-117169047D01*
X178190952Y-117121428D01*
X178143333Y-117026190D01*
X178143333Y-116978571D01*
X178190952Y-116883333D01*
X178286190Y-116835714D01*
X178429047Y-116835714D01*
X178524285Y-116883333D01*
X179143333Y-117502380D02*
X179048095Y-117454761D01*
X179000476Y-117359523D01*
X179000476Y-116502380D01*
X179667142Y-117502380D02*
X179571904Y-117454761D01*
X179524285Y-117407142D01*
X179476666Y-117311904D01*
X179476666Y-117026190D01*
X179524285Y-116930952D01*
X179571904Y-116883333D01*
X179667142Y-116835714D01*
X179810000Y-116835714D01*
X179905238Y-116883333D01*
X179952857Y-116930952D01*
X180000476Y-117026190D01*
X180000476Y-117311904D01*
X179952857Y-117407142D01*
X179905238Y-117454761D01*
X179810000Y-117502380D01*
X179667142Y-117502380D01*
X180333809Y-116835714D02*
X180524285Y-117502380D01*
X180714761Y-117026190D01*
X180905238Y-117502380D01*
X181095714Y-116835714D01*
X171333809Y-118152380D02*
X171429047Y-118152380D01*
X171524285Y-118200000D01*
X171571904Y-118247619D01*
X171619523Y-118342857D01*
X171667142Y-118533333D01*
X171667142Y-118771428D01*
X171619523Y-118961904D01*
X171571904Y-119057142D01*
X171524285Y-119104761D01*
X171429047Y-119152380D01*
X171333809Y-119152380D01*
X171238571Y-119104761D01*
X171190952Y-119057142D01*
X171143333Y-118961904D01*
X171095714Y-118771428D01*
X171095714Y-118533333D01*
X171143333Y-118342857D01*
X171190952Y-118247619D01*
X171238571Y-118200000D01*
X171333809Y-118152380D01*
X172143333Y-119152380D02*
X172333809Y-119152380D01*
X172429047Y-119104761D01*
X172476666Y-119057142D01*
X172571904Y-118914285D01*
X172619523Y-118723809D01*
X172619523Y-118342857D01*
X172571904Y-118247619D01*
X172524285Y-118200000D01*
X172429047Y-118152380D01*
X172238571Y-118152380D01*
X172143333Y-118200000D01*
X172095714Y-118247619D01*
X172048095Y-118342857D01*
X172048095Y-118580952D01*
X172095714Y-118676190D01*
X172143333Y-118723809D01*
X172238571Y-118771428D01*
X172429047Y-118771428D01*
X172524285Y-118723809D01*
X172571904Y-118676190D01*
X172619523Y-118580952D01*
X173762380Y-118104761D02*
X172905238Y-119390476D01*
X174048095Y-118247619D02*
X174095714Y-118200000D01*
X174190952Y-118152380D01*
X174429047Y-118152380D01*
X174524285Y-118200000D01*
X174571904Y-118247619D01*
X174619523Y-118342857D01*
X174619523Y-118438095D01*
X174571904Y-118580952D01*
X174000476Y-119152380D01*
X174619523Y-119152380D01*
X174952857Y-118152380D02*
X175619523Y-118152380D01*
X175190952Y-119152380D01*
X176714761Y-118104761D02*
X175857619Y-119390476D01*
X177000476Y-118247619D02*
X177048095Y-118200000D01*
X177143333Y-118152380D01*
X177381428Y-118152380D01*
X177476666Y-118200000D01*
X177524285Y-118247619D01*
X177571904Y-118342857D01*
X177571904Y-118438095D01*
X177524285Y-118580952D01*
X176952857Y-119152380D01*
X177571904Y-119152380D01*
X178524285Y-119152380D02*
X177952857Y-119152380D01*
X178238571Y-119152380D02*
X178238571Y-118152380D01*
X178143333Y-118295238D01*
X178048095Y-118390476D01*
X177952857Y-118438095D01*
%TO.C,U1*%
X168095000Y-112670000D02*
X169370000Y-112670000D01*
X157745000Y-113245000D02*
X158420000Y-113245000D01*
X157745000Y-102895000D02*
X158420000Y-102895000D01*
X168095000Y-102895000D02*
X167420000Y-102895000D01*
X168095000Y-113245000D02*
X167420000Y-113245000D01*
X168095000Y-102895000D02*
X168095000Y-103570000D01*
X157745000Y-102895000D02*
X157745000Y-103570000D01*
X157745000Y-113245000D02*
X157745000Y-112570000D01*
X168095000Y-113245000D02*
X168095000Y-112670000D01*
D11*
%TO.C,J1*%
X184220000Y-46380000D02*
X190820000Y-46380000D01*
X184220000Y-58680000D02*
X184220000Y-46380000D01*
X190820000Y-58680000D02*
X184220000Y-58680000D01*
X190820000Y-46380000D02*
X190820000Y-58680000D01*
%TO.C,J2*%
X187430000Y-113120000D02*
X187430000Y-114230000D01*
X186670000Y-113120000D02*
X187430000Y-113120000D01*
X185910000Y-114793471D02*
X185910000Y-115340000D01*
X185910000Y-113120000D02*
X185910000Y-113666529D01*
X185910000Y-115340000D02*
X184705000Y-115340000D01*
X185910000Y-113120000D02*
X184705000Y-113120000D01*
X184705000Y-114537530D02*
X184705000Y-115340000D01*
X184705000Y-113120000D02*
X184705000Y-113922470D01*
D10*
%TO.C,K12*%
X110610000Y-60690000D02*
X110610000Y-59690000D01*
X123610000Y-46690000D02*
X124610000Y-46690000D01*
X124610000Y-46690000D02*
X124610000Y-47690000D01*
X124610000Y-60690000D02*
X123610000Y-60690000D01*
X124610000Y-59690000D02*
X124610000Y-60690000D01*
X111610000Y-60690000D02*
X110610000Y-60690000D01*
X110610000Y-46690000D02*
X111610000Y-46690000D01*
X110610000Y-47690000D02*
X110610000Y-46690000D01*
%TO.C,K41*%
X184570808Y-137828117D02*
X184744457Y-136843309D01*
X199804384Y-126298235D02*
X200789192Y-126471883D01*
X200789192Y-126471883D02*
X200615543Y-127456691D01*
X198358117Y-140259192D02*
X197373309Y-140085543D01*
X198531765Y-139274384D02*
X198358117Y-140259192D01*
X185555616Y-138001765D02*
X184570808Y-137828117D01*
X187001883Y-124040808D02*
X187986691Y-124214457D01*
X186828235Y-125025616D02*
X187001883Y-124040808D01*
%TO.C,K40*%
X165831038Y-134519776D02*
X166008122Y-133535580D01*
X181104767Y-123043139D02*
X182088962Y-123220224D01*
X182088962Y-123220224D02*
X181911878Y-124204420D01*
X179609776Y-136998962D02*
X178625580Y-136821878D01*
X179786861Y-136014767D02*
X179609776Y-136998962D01*
X166815233Y-134696861D02*
X165831038Y-134519776D01*
X168310224Y-120741038D02*
X169294420Y-120918122D01*
X168133139Y-121725233D02*
X168310224Y-120741038D01*
%TO.C,K35*%
X167580000Y-100350000D02*
X167580000Y-99350000D01*
X180580000Y-86350000D02*
X181580000Y-86350000D01*
X181580000Y-86350000D02*
X181580000Y-87350000D01*
X181580000Y-100350000D02*
X180580000Y-100350000D01*
X181580000Y-99350000D02*
X181580000Y-100350000D01*
X168580000Y-100350000D02*
X167580000Y-100350000D01*
X167580000Y-86350000D02*
X168580000Y-86350000D01*
X167580000Y-87350000D02*
X167580000Y-86350000D01*
%TO.C,K34*%
X148590000Y-100330000D02*
X148590000Y-99330000D01*
X161590000Y-86330000D02*
X162590000Y-86330000D01*
X162590000Y-86330000D02*
X162590000Y-87330000D01*
X162590000Y-100330000D02*
X161590000Y-100330000D01*
X162590000Y-99330000D02*
X162590000Y-100330000D01*
X149590000Y-100330000D02*
X148590000Y-100330000D01*
X148590000Y-86330000D02*
X149590000Y-86330000D01*
X148590000Y-87330000D02*
X148590000Y-86330000D01*
%TO.C,K33*%
X129620000Y-90170000D02*
X129620000Y-89170000D01*
X142620000Y-76170000D02*
X143620000Y-76170000D01*
X143620000Y-76170000D02*
X143620000Y-77170000D01*
X143620000Y-90170000D02*
X142620000Y-90170000D01*
X143620000Y-89170000D02*
X143620000Y-90170000D01*
X130620000Y-90170000D02*
X129620000Y-90170000D01*
X129620000Y-76170000D02*
X130620000Y-76170000D01*
X129620000Y-77170000D02*
X129620000Y-76170000D01*
%TO.C,K32*%
X110620000Y-98740000D02*
X110620000Y-97740000D01*
X123620000Y-84740000D02*
X124620000Y-84740000D01*
X124620000Y-84740000D02*
X124620000Y-85740000D01*
X124620000Y-98740000D02*
X123620000Y-98740000D01*
X124620000Y-97740000D02*
X124620000Y-98740000D01*
X111620000Y-98740000D02*
X110620000Y-98740000D01*
X110620000Y-84740000D02*
X111620000Y-84740000D01*
X110620000Y-85740000D02*
X110620000Y-84740000D01*
%TO.C,K31*%
X91580000Y-128370000D02*
X91580000Y-127370000D01*
X104580000Y-114370000D02*
X105580000Y-114370000D01*
X105580000Y-114370000D02*
X105580000Y-115370000D01*
X105580000Y-128370000D02*
X104580000Y-128370000D01*
X105580000Y-127370000D02*
X105580000Y-128370000D01*
X92580000Y-128370000D02*
X91580000Y-128370000D01*
X91580000Y-114370000D02*
X92580000Y-114370000D01*
X91580000Y-115370000D02*
X91580000Y-114370000D01*
%TO.C,K30*%
X72560000Y-128380000D02*
X72560000Y-127380000D01*
X85560000Y-114380000D02*
X86560000Y-114380000D01*
X86560000Y-114380000D02*
X86560000Y-115380000D01*
X86560000Y-128380000D02*
X85560000Y-128380000D01*
X86560000Y-127380000D02*
X86560000Y-128380000D01*
X73560000Y-128380000D02*
X72560000Y-128380000D01*
X72560000Y-114380000D02*
X73560000Y-114380000D01*
X72560000Y-115380000D02*
X72560000Y-114380000D01*
%TO.C,K25*%
X167600000Y-81360000D02*
X167600000Y-80360000D01*
X180600000Y-67360000D02*
X181600000Y-67360000D01*
X181600000Y-67360000D02*
X181600000Y-68360000D01*
X181600000Y-81360000D02*
X180600000Y-81360000D01*
X181600000Y-80360000D02*
X181600000Y-81360000D01*
X168600000Y-81360000D02*
X167600000Y-81360000D01*
X167600000Y-67360000D02*
X168600000Y-67360000D01*
X167600000Y-68360000D02*
X167600000Y-67360000D01*
%TO.C,K24*%
X148580000Y-81330000D02*
X148580000Y-80330000D01*
X161580000Y-67330000D02*
X162580000Y-67330000D01*
X162580000Y-67330000D02*
X162580000Y-68330000D01*
X162580000Y-81330000D02*
X161580000Y-81330000D01*
X162580000Y-80330000D02*
X162580000Y-81330000D01*
X149580000Y-81330000D02*
X148580000Y-81330000D01*
X148580000Y-67330000D02*
X149580000Y-67330000D01*
X148580000Y-68330000D02*
X148580000Y-67330000D01*
%TO.C,K23*%
X129600000Y-71150000D02*
X129600000Y-70150000D01*
X142600000Y-57150000D02*
X143600000Y-57150000D01*
X143600000Y-57150000D02*
X143600000Y-58150000D01*
X143600000Y-71150000D02*
X142600000Y-71150000D01*
X143600000Y-70150000D02*
X143600000Y-71150000D01*
X130600000Y-71150000D02*
X129600000Y-71150000D01*
X129600000Y-57150000D02*
X130600000Y-57150000D01*
X129600000Y-58150000D02*
X129600000Y-57150000D01*
%TO.C,K22*%
X110620000Y-79700000D02*
X110620000Y-78700000D01*
X123620000Y-65700000D02*
X124620000Y-65700000D01*
X124620000Y-65700000D02*
X124620000Y-66700000D01*
X124620000Y-79700000D02*
X123620000Y-79700000D01*
X124620000Y-78700000D02*
X124620000Y-79700000D01*
X111620000Y-79700000D02*
X110620000Y-79700000D01*
X110620000Y-65700000D02*
X111620000Y-65700000D01*
X110620000Y-66700000D02*
X110620000Y-65700000D01*
%TO.C,K21*%
X91580000Y-109320000D02*
X91580000Y-108320000D01*
X104580000Y-95320000D02*
X105580000Y-95320000D01*
X105580000Y-95320000D02*
X105580000Y-96320000D01*
X105580000Y-109320000D02*
X104580000Y-109320000D01*
X105580000Y-108320000D02*
X105580000Y-109320000D01*
X92580000Y-109320000D02*
X91580000Y-109320000D01*
X91580000Y-95320000D02*
X92580000Y-95320000D01*
X91580000Y-96320000D02*
X91580000Y-95320000D01*
%TO.C,K20*%
X72580000Y-109360000D02*
X72580000Y-108360000D01*
X85580000Y-95360000D02*
X86580000Y-95360000D01*
X86580000Y-95360000D02*
X86580000Y-96360000D01*
X86580000Y-109360000D02*
X85580000Y-109360000D01*
X86580000Y-108360000D02*
X86580000Y-109360000D01*
X73580000Y-109360000D02*
X72580000Y-109360000D01*
X72580000Y-95360000D02*
X73580000Y-95360000D01*
X72580000Y-96360000D02*
X72580000Y-95360000D01*
%TO.C,K15*%
X167590000Y-62340000D02*
X167590000Y-61340000D01*
X180590000Y-48340000D02*
X181590000Y-48340000D01*
X181590000Y-48340000D02*
X181590000Y-49340000D01*
X181590000Y-62340000D02*
X180590000Y-62340000D01*
X181590000Y-61340000D02*
X181590000Y-62340000D01*
X168590000Y-62340000D02*
X167590000Y-62340000D01*
X167590000Y-48340000D02*
X168590000Y-48340000D01*
X167590000Y-49340000D02*
X167590000Y-48340000D01*
%TO.C,K14*%
X148570000Y-62360000D02*
X148570000Y-61360000D01*
X161570000Y-48360000D02*
X162570000Y-48360000D01*
X162570000Y-48360000D02*
X162570000Y-49360000D01*
X162570000Y-62360000D02*
X161570000Y-62360000D01*
X162570000Y-61360000D02*
X162570000Y-62360000D01*
X149570000Y-62360000D02*
X148570000Y-62360000D01*
X148570000Y-48360000D02*
X149570000Y-48360000D01*
X148570000Y-49360000D02*
X148570000Y-48360000D01*
%TO.C,K13*%
X129600000Y-52140000D02*
X129600000Y-51140000D01*
X142600000Y-38140000D02*
X143600000Y-38140000D01*
X143600000Y-38140000D02*
X143600000Y-39140000D01*
X143600000Y-52140000D02*
X142600000Y-52140000D01*
X143600000Y-51140000D02*
X143600000Y-52140000D01*
X130600000Y-52140000D02*
X129600000Y-52140000D01*
X129600000Y-38140000D02*
X130600000Y-38140000D01*
X129600000Y-39140000D02*
X129600000Y-38140000D01*
%TO.C,K11*%
X91600000Y-90380000D02*
X91600000Y-89380000D01*
X104600000Y-76380000D02*
X105600000Y-76380000D01*
X105600000Y-76380000D02*
X105600000Y-77380000D01*
X105600000Y-90380000D02*
X104600000Y-90380000D01*
X105600000Y-89380000D02*
X105600000Y-90380000D01*
X92600000Y-90380000D02*
X91600000Y-90380000D01*
X91600000Y-76380000D02*
X92600000Y-76380000D01*
X91600000Y-77380000D02*
X91600000Y-76380000D01*
%TO.C,K10*%
X72580000Y-90340000D02*
X72580000Y-89340000D01*
X85580000Y-76340000D02*
X86580000Y-76340000D01*
X86580000Y-76340000D02*
X86580000Y-77340000D01*
X86580000Y-90340000D02*
X85580000Y-90340000D01*
X86580000Y-89340000D02*
X86580000Y-90340000D01*
X73580000Y-90340000D02*
X72580000Y-90340000D01*
X72580000Y-76340000D02*
X73580000Y-76340000D01*
X72580000Y-77340000D02*
X72580000Y-76340000D01*
%TO.C,K0*%
X91620000Y-71370000D02*
X91620000Y-70370000D01*
X104620000Y-57370000D02*
X105620000Y-57370000D01*
X105620000Y-57370000D02*
X105620000Y-58370000D01*
X105620000Y-71370000D02*
X104620000Y-71370000D01*
X105620000Y-70370000D02*
X105620000Y-71370000D01*
X92620000Y-71370000D02*
X91620000Y-71370000D01*
X91620000Y-57370000D02*
X92620000Y-57370000D01*
X91620000Y-58370000D02*
X91620000Y-57370000D01*
D11*
%TO.C,D31*%
X88050000Y-123900000D02*
X90050000Y-123900000D01*
X90050000Y-123900000D02*
X90050000Y-120000000D01*
X88050000Y-123900000D02*
X88050000Y-120000000D01*
%TO.C,J3*%
X119540000Y-45322500D02*
X119540000Y-44872500D01*
X119540000Y-45322500D02*
X119090000Y-45322500D01*
X113940000Y-44772500D02*
X114390000Y-44772500D01*
X113940000Y-42922500D02*
X113940000Y-44772500D01*
X121740000Y-40372500D02*
X121740000Y-40622500D01*
X113940000Y-40372500D02*
X113940000Y-40622500D01*
X121740000Y-42922500D02*
X121740000Y-44772500D01*
X121740000Y-44772500D02*
X121290000Y-44772500D01*
%TO.C,Y1*%
X166950000Y-95990000D02*
X162950000Y-95990000D01*
X166950000Y-99290000D02*
X166950000Y-95990000D01*
%TO.C,C1*%
X155530000Y-104497836D02*
X155530000Y-104282164D01*
X154810000Y-104497836D02*
X154810000Y-104282164D01*
%TO.C,C2*%
X171182164Y-102190000D02*
X171397836Y-102190000D01*
X171182164Y-102910000D02*
X171397836Y-102910000D01*
%TO.C,C3*%
X171452164Y-107630000D02*
X171667836Y-107630000D01*
X171452164Y-106910000D02*
X171667836Y-106910000D01*
%TO.C,C4*%
X163932164Y-100310000D02*
X164147836Y-100310000D01*
X163932164Y-99590000D02*
X164147836Y-99590000D01*
%TO.C,C5*%
X166032164Y-99690000D02*
X166247836Y-99690000D01*
X166032164Y-100410000D02*
X166247836Y-100410000D01*
%TO.C,C6*%
X165762164Y-115240000D02*
X165977836Y-115240000D01*
X165762164Y-115960000D02*
X165977836Y-115960000D01*
%TO.C,C7*%
X173642164Y-108400000D02*
X173857836Y-108400000D01*
X173642164Y-107680000D02*
X173857836Y-107680000D01*
%TO.C,D0*%
X109070000Y-55500000D02*
X109070000Y-59400000D01*
X107070000Y-55500000D02*
X107070000Y-59400000D01*
X109070000Y-55500000D02*
X107070000Y-55500000D01*
%TO.C,D10*%
X89950000Y-74980000D02*
X87950000Y-74980000D01*
X87950000Y-74980000D02*
X87950000Y-78880000D01*
X89950000Y-74980000D02*
X89950000Y-78880000D01*
%TO.C,D11*%
X93460000Y-72670000D02*
X97360000Y-72670000D01*
X93460000Y-74670000D02*
X97360000Y-74670000D01*
X93460000Y-72670000D02*
X93460000Y-74670000D01*
%TO.C,D12*%
X125840000Y-50290000D02*
X127840000Y-50290000D01*
X127840000Y-50290000D02*
X127840000Y-46390000D01*
X125840000Y-50290000D02*
X125840000Y-46390000D01*
%TO.C,D13*%
X144710000Y-47140000D02*
X144710000Y-43240000D01*
X146710000Y-47140000D02*
X146710000Y-43240000D01*
X144710000Y-47140000D02*
X146710000Y-47140000D01*
%TO.C,D14*%
X146960000Y-51450000D02*
X144960000Y-51450000D01*
X144960000Y-51450000D02*
X144960000Y-55350000D01*
X146960000Y-51450000D02*
X146960000Y-55350000D01*
%TO.C,D15*%
X166170000Y-49120000D02*
X166170000Y-53020000D01*
X164170000Y-49120000D02*
X164170000Y-53020000D01*
X166170000Y-49120000D02*
X164170000Y-49120000D01*
%TO.C,D20*%
X78310000Y-94020000D02*
X78310000Y-92020000D01*
X78310000Y-92020000D02*
X74410000Y-92020000D01*
X78310000Y-94020000D02*
X74410000Y-94020000D01*
%TO.C,D21*%
X91050000Y-91940000D02*
X94950000Y-91940000D01*
X91050000Y-93940000D02*
X94950000Y-93940000D01*
X91050000Y-91940000D02*
X91050000Y-93940000D01*
%TO.C,D22*%
X109260000Y-63200000D02*
X107260000Y-63200000D01*
X107260000Y-63200000D02*
X107260000Y-67100000D01*
X109260000Y-63200000D02*
X109260000Y-67100000D01*
%TO.C,D23*%
X136720000Y-55760000D02*
X132820000Y-55760000D01*
X136720000Y-53760000D02*
X132820000Y-53760000D01*
X136720000Y-55760000D02*
X136720000Y-53760000D01*
%TO.C,D24*%
X150410000Y-63830000D02*
X150410000Y-65830000D01*
X150410000Y-65830000D02*
X154310000Y-65830000D01*
X150410000Y-63830000D02*
X154310000Y-63830000D01*
%TO.C,D25*%
X166850000Y-63860000D02*
X170750000Y-63860000D01*
X166850000Y-65860000D02*
X170750000Y-65860000D01*
X166850000Y-63860000D02*
X166850000Y-65860000D01*
%TO.C,D30*%
X79640000Y-113010000D02*
X75740000Y-113010000D01*
X79640000Y-111010000D02*
X75740000Y-111010000D01*
X79640000Y-113010000D02*
X79640000Y-111010000D01*
%TO.C,D32*%
X117410000Y-83340000D02*
X117410000Y-81340000D01*
X117410000Y-81340000D02*
X113510000Y-81340000D01*
X117410000Y-83340000D02*
X113510000Y-83340000D01*
%TO.C,D33*%
X125930000Y-84680000D02*
X125930000Y-80780000D01*
X127930000Y-84680000D02*
X127930000Y-80780000D01*
X125930000Y-84680000D02*
X127930000Y-84680000D01*
%TO.C,D34*%
X147510000Y-83970000D02*
X145510000Y-83970000D01*
X145510000Y-83970000D02*
X145510000Y-87870000D01*
X147510000Y-83970000D02*
X147510000Y-87870000D01*
%TO.C,D35*%
X166610000Y-85340000D02*
X166610000Y-89240000D01*
X164610000Y-85340000D02*
X164610000Y-89240000D01*
X166610000Y-85340000D02*
X164610000Y-85340000D01*
%TO.C,D40*%
X163586117Y-118961903D02*
X162171903Y-120376117D01*
X162171903Y-120376117D02*
X164929619Y-123133833D01*
X163586117Y-118961903D02*
X166343833Y-121719619D01*
%TO.C,D41*%
X182049053Y-132227852D02*
X182793208Y-128399506D01*
X184012307Y-132609470D02*
X184756462Y-128781124D01*
X182049053Y-132227852D02*
X184012307Y-132609470D01*
%TO.C,J5*%
X190380000Y-121080000D02*
X190980000Y-120480000D01*
X190380000Y-116980000D02*
X190980000Y-117580000D01*
X180820000Y-118380000D02*
X182800000Y-116980000D01*
X182800000Y-121080000D02*
X180820000Y-119680000D01*
X180820000Y-119680000D02*
X180820000Y-118380000D01*
X190380000Y-121080000D02*
X182800000Y-121080000D01*
X190980000Y-117580000D02*
X190980000Y-120480000D01*
X182800000Y-116980000D02*
X190380000Y-116980000D01*
X183360000Y-120300000D02*
X182725000Y-120300000D01*
X182725000Y-120300000D02*
X182725000Y-119665000D01*
%TO.C,R1*%
X172036359Y-108930000D02*
X172343641Y-108930000D01*
X172036359Y-109690000D02*
X172343641Y-109690000D01*
%TO.C,R2*%
X172056359Y-110870000D02*
X172363641Y-110870000D01*
X172056359Y-110110000D02*
X172363641Y-110110000D01*
%TO.C,R3*%
X168640000Y-99666359D02*
X168640000Y-99973641D01*
X169400000Y-99666359D02*
X169400000Y-99973641D01*
%TO.C,U1*%
D10*
X162428095Y-117042380D02*
X162428095Y-117851904D01*
X162475714Y-117947142D01*
X162523333Y-117994761D01*
X162618571Y-118042380D01*
X162809047Y-118042380D01*
X162904285Y-117994761D01*
X162951904Y-117947142D01*
X162999523Y-117851904D01*
X162999523Y-117042380D01*
X163999523Y-118042380D02*
X163428095Y-118042380D01*
X163713809Y-118042380D02*
X163713809Y-117042380D01*
X163618571Y-117185238D01*
X163523333Y-117280476D01*
X163428095Y-117328095D01*
%TO.C,H4*%
X181678095Y-132882380D02*
X181678095Y-131882380D01*
X181678095Y-132358571D02*
X182249523Y-132358571D01*
X182249523Y-132882380D02*
X182249523Y-131882380D01*
X183154285Y-132215714D02*
X183154285Y-132882380D01*
X182916190Y-131834761D02*
X182678095Y-132549047D01*
X183297142Y-132549047D01*
%TO.C,H3*%
X145698095Y-62482380D02*
X145698095Y-61482380D01*
X145698095Y-61958571D02*
X146269523Y-61958571D01*
X146269523Y-62482380D02*
X146269523Y-61482380D01*
X146650476Y-61482380D02*
X147269523Y-61482380D01*
X146936190Y-61863333D01*
X147079047Y-61863333D01*
X147174285Y-61910952D01*
X147221904Y-61958571D01*
X147269523Y-62053809D01*
X147269523Y-62291904D01*
X147221904Y-62387142D01*
X147174285Y-62434761D01*
X147079047Y-62482380D01*
X146793333Y-62482380D01*
X146698095Y-62434761D01*
X146650476Y-62387142D01*
%TO.C,H2*%
X106828095Y-71162380D02*
X106828095Y-70162380D01*
X106828095Y-70638571D02*
X107399523Y-70638571D01*
X107399523Y-71162380D02*
X107399523Y-70162380D01*
X107828095Y-70257619D02*
X107875714Y-70210000D01*
X107970952Y-70162380D01*
X108209047Y-70162380D01*
X108304285Y-70210000D01*
X108351904Y-70257619D01*
X108399523Y-70352857D01*
X108399523Y-70448095D01*
X108351904Y-70590952D01*
X107780476Y-71162380D01*
X108399523Y-71162380D01*
%TO.C,H1*%
X88608095Y-109332380D02*
X88608095Y-108332380D01*
X88608095Y-108808571D02*
X89179523Y-108808571D01*
X89179523Y-109332380D02*
X89179523Y-108332380D01*
X90179523Y-109332380D02*
X89608095Y-109332380D01*
X89893809Y-109332380D02*
X89893809Y-108332380D01*
X89798571Y-108475238D01*
X89703333Y-108570476D01*
X89608095Y-108618095D01*
%TO.C,J1*%
X187112380Y-52683333D02*
X187826666Y-52683333D01*
X187969523Y-52730952D01*
X188064761Y-52826190D01*
X188112380Y-52969047D01*
X188112380Y-53064285D01*
X188112380Y-51683333D02*
X188112380Y-52254761D01*
X188112380Y-51969047D02*
X187112380Y-51969047D01*
X187255238Y-52064285D01*
X187350476Y-52159523D01*
X187398095Y-52254761D01*
%TO.C,J2*%
X188462380Y-114533333D02*
X189176666Y-114533333D01*
X189319523Y-114580952D01*
X189414761Y-114676190D01*
X189462380Y-114819047D01*
X189462380Y-114914285D01*
X188557619Y-114104761D02*
X188510000Y-114057142D01*
X188462380Y-113961904D01*
X188462380Y-113723809D01*
X188510000Y-113628571D01*
X188557619Y-113580952D01*
X188652857Y-113533333D01*
X188748095Y-113533333D01*
X188890952Y-113580952D01*
X189462380Y-114152380D01*
X189462380Y-113533333D01*
%TO.C,K12*%
X116395714Y-51142380D02*
X116395714Y-50142380D01*
X116967142Y-51142380D02*
X116538571Y-50570952D01*
X116967142Y-50142380D02*
X116395714Y-50713809D01*
X117919523Y-51142380D02*
X117348095Y-51142380D01*
X117633809Y-51142380D02*
X117633809Y-50142380D01*
X117538571Y-50285238D01*
X117443333Y-50380476D01*
X117348095Y-50428095D01*
X118300476Y-50237619D02*
X118348095Y-50190000D01*
X118443333Y-50142380D01*
X118681428Y-50142380D01*
X118776666Y-50190000D01*
X118824285Y-50237619D01*
X118871904Y-50332857D01*
X118871904Y-50428095D01*
X118824285Y-50570952D01*
X118252857Y-51142380D01*
X118871904Y-51142380D01*
%TO.C,K41*%
X191926551Y-129430226D02*
X192100200Y-128445419D01*
X192489299Y-129529454D02*
X192166466Y-128892286D01*
X192662947Y-128544646D02*
X192000972Y-129008166D01*
X193449185Y-129021757D02*
X193333420Y-129678295D01*
X193280859Y-128605247D02*
X192922346Y-129267336D01*
X193531989Y-129374833D01*
X194365123Y-129860212D02*
X193802376Y-129760985D01*
X194083749Y-129810598D02*
X194257397Y-128825791D01*
X194138799Y-128949940D01*
X194028470Y-129027193D01*
X193926410Y-129057551D01*
%TO.C,K40*%
X173216049Y-126147612D02*
X173393134Y-125163417D01*
X173778447Y-126248804D02*
X173457840Y-125610513D01*
X173955531Y-125264608D02*
X173291943Y-125725814D01*
X174740099Y-125744460D02*
X174622043Y-126400591D01*
X174573228Y-125327365D02*
X174212406Y-125988199D01*
X174821670Y-126097823D01*
X175502124Y-125542884D02*
X175595857Y-125559749D01*
X175681158Y-125623481D01*
X175719591Y-125678780D01*
X175749593Y-125780946D01*
X175762729Y-125976844D01*
X175720566Y-126211176D01*
X175639969Y-126390209D01*
X175576237Y-126475510D01*
X175520938Y-126513944D01*
X175418773Y-126543945D01*
X175325040Y-126527080D01*
X175239739Y-126463348D01*
X175201305Y-126408049D01*
X175171304Y-126305883D01*
X175158168Y-126109985D01*
X175200331Y-125875653D01*
X175280928Y-125696619D01*
X175344660Y-125611319D01*
X175399959Y-125572885D01*
X175502124Y-125542884D01*
%TO.C,K35*%
X173365714Y-90802380D02*
X173365714Y-89802380D01*
X173937142Y-90802380D02*
X173508571Y-90230952D01*
X173937142Y-89802380D02*
X173365714Y-90373809D01*
X174270476Y-89802380D02*
X174889523Y-89802380D01*
X174556190Y-90183333D01*
X174699047Y-90183333D01*
X174794285Y-90230952D01*
X174841904Y-90278571D01*
X174889523Y-90373809D01*
X174889523Y-90611904D01*
X174841904Y-90707142D01*
X174794285Y-90754761D01*
X174699047Y-90802380D01*
X174413333Y-90802380D01*
X174318095Y-90754761D01*
X174270476Y-90707142D01*
X175794285Y-89802380D02*
X175318095Y-89802380D01*
X175270476Y-90278571D01*
X175318095Y-90230952D01*
X175413333Y-90183333D01*
X175651428Y-90183333D01*
X175746666Y-90230952D01*
X175794285Y-90278571D01*
X175841904Y-90373809D01*
X175841904Y-90611904D01*
X175794285Y-90707142D01*
X175746666Y-90754761D01*
X175651428Y-90802380D01*
X175413333Y-90802380D01*
X175318095Y-90754761D01*
X175270476Y-90707142D01*
%TO.C,K34*%
X154375714Y-90782380D02*
X154375714Y-89782380D01*
X154947142Y-90782380D02*
X154518571Y-90210952D01*
X154947142Y-89782380D02*
X154375714Y-90353809D01*
X155280476Y-89782380D02*
X155899523Y-89782380D01*
X155566190Y-90163333D01*
X155709047Y-90163333D01*
X155804285Y-90210952D01*
X155851904Y-90258571D01*
X155899523Y-90353809D01*
X155899523Y-90591904D01*
X155851904Y-90687142D01*
X155804285Y-90734761D01*
X155709047Y-90782380D01*
X155423333Y-90782380D01*
X155328095Y-90734761D01*
X155280476Y-90687142D01*
X156756666Y-90115714D02*
X156756666Y-90782380D01*
X156518571Y-89734761D02*
X156280476Y-90449047D01*
X156899523Y-90449047D01*
%TO.C,K33*%
X135405714Y-80622380D02*
X135405714Y-79622380D01*
X135977142Y-80622380D02*
X135548571Y-80050952D01*
X135977142Y-79622380D02*
X135405714Y-80193809D01*
X136310476Y-79622380D02*
X136929523Y-79622380D01*
X136596190Y-80003333D01*
X136739047Y-80003333D01*
X136834285Y-80050952D01*
X136881904Y-80098571D01*
X136929523Y-80193809D01*
X136929523Y-80431904D01*
X136881904Y-80527142D01*
X136834285Y-80574761D01*
X136739047Y-80622380D01*
X136453333Y-80622380D01*
X136358095Y-80574761D01*
X136310476Y-80527142D01*
X137262857Y-79622380D02*
X137881904Y-79622380D01*
X137548571Y-80003333D01*
X137691428Y-80003333D01*
X137786666Y-80050952D01*
X137834285Y-80098571D01*
X137881904Y-80193809D01*
X137881904Y-80431904D01*
X137834285Y-80527142D01*
X137786666Y-80574761D01*
X137691428Y-80622380D01*
X137405714Y-80622380D01*
X137310476Y-80574761D01*
X137262857Y-80527142D01*
%TO.C,K32*%
X116405714Y-89192380D02*
X116405714Y-88192380D01*
X116977142Y-89192380D02*
X116548571Y-88620952D01*
X116977142Y-88192380D02*
X116405714Y-88763809D01*
X117310476Y-88192380D02*
X117929523Y-88192380D01*
X117596190Y-88573333D01*
X117739047Y-88573333D01*
X117834285Y-88620952D01*
X117881904Y-88668571D01*
X117929523Y-88763809D01*
X117929523Y-89001904D01*
X117881904Y-89097142D01*
X117834285Y-89144761D01*
X117739047Y-89192380D01*
X117453333Y-89192380D01*
X117358095Y-89144761D01*
X117310476Y-89097142D01*
X118310476Y-88287619D02*
X118358095Y-88240000D01*
X118453333Y-88192380D01*
X118691428Y-88192380D01*
X118786666Y-88240000D01*
X118834285Y-88287619D01*
X118881904Y-88382857D01*
X118881904Y-88478095D01*
X118834285Y-88620952D01*
X118262857Y-89192380D01*
X118881904Y-89192380D01*
%TO.C,K31*%
X97365714Y-118822380D02*
X97365714Y-117822380D01*
X97937142Y-118822380D02*
X97508571Y-118250952D01*
X97937142Y-117822380D02*
X97365714Y-118393809D01*
X98270476Y-117822380D02*
X98889523Y-117822380D01*
X98556190Y-118203333D01*
X98699047Y-118203333D01*
X98794285Y-118250952D01*
X98841904Y-118298571D01*
X98889523Y-118393809D01*
X98889523Y-118631904D01*
X98841904Y-118727142D01*
X98794285Y-118774761D01*
X98699047Y-118822380D01*
X98413333Y-118822380D01*
X98318095Y-118774761D01*
X98270476Y-118727142D01*
X99841904Y-118822380D02*
X99270476Y-118822380D01*
X99556190Y-118822380D02*
X99556190Y-117822380D01*
X99460952Y-117965238D01*
X99365714Y-118060476D01*
X99270476Y-118108095D01*
%TO.C,K30*%
X78345714Y-118832380D02*
X78345714Y-117832380D01*
X78917142Y-118832380D02*
X78488571Y-118260952D01*
X78917142Y-117832380D02*
X78345714Y-118403809D01*
X79250476Y-117832380D02*
X79869523Y-117832380D01*
X79536190Y-118213333D01*
X79679047Y-118213333D01*
X79774285Y-118260952D01*
X79821904Y-118308571D01*
X79869523Y-118403809D01*
X79869523Y-118641904D01*
X79821904Y-118737142D01*
X79774285Y-118784761D01*
X79679047Y-118832380D01*
X79393333Y-118832380D01*
X79298095Y-118784761D01*
X79250476Y-118737142D01*
X80488571Y-117832380D02*
X80583809Y-117832380D01*
X80679047Y-117880000D01*
X80726666Y-117927619D01*
X80774285Y-118022857D01*
X80821904Y-118213333D01*
X80821904Y-118451428D01*
X80774285Y-118641904D01*
X80726666Y-118737142D01*
X80679047Y-118784761D01*
X80583809Y-118832380D01*
X80488571Y-118832380D01*
X80393333Y-118784761D01*
X80345714Y-118737142D01*
X80298095Y-118641904D01*
X80250476Y-118451428D01*
X80250476Y-118213333D01*
X80298095Y-118022857D01*
X80345714Y-117927619D01*
X80393333Y-117880000D01*
X80488571Y-117832380D01*
%TO.C,K25*%
X173385714Y-71812380D02*
X173385714Y-70812380D01*
X173957142Y-71812380D02*
X173528571Y-71240952D01*
X173957142Y-70812380D02*
X173385714Y-71383809D01*
X174338095Y-70907619D02*
X174385714Y-70860000D01*
X174480952Y-70812380D01*
X174719047Y-70812380D01*
X174814285Y-70860000D01*
X174861904Y-70907619D01*
X174909523Y-71002857D01*
X174909523Y-71098095D01*
X174861904Y-71240952D01*
X174290476Y-71812380D01*
X174909523Y-71812380D01*
X175814285Y-70812380D02*
X175338095Y-70812380D01*
X175290476Y-71288571D01*
X175338095Y-71240952D01*
X175433333Y-71193333D01*
X175671428Y-71193333D01*
X175766666Y-71240952D01*
X175814285Y-71288571D01*
X175861904Y-71383809D01*
X175861904Y-71621904D01*
X175814285Y-71717142D01*
X175766666Y-71764761D01*
X175671428Y-71812380D01*
X175433333Y-71812380D01*
X175338095Y-71764761D01*
X175290476Y-71717142D01*
%TO.C,K24*%
X154365714Y-71782380D02*
X154365714Y-70782380D01*
X154937142Y-71782380D02*
X154508571Y-71210952D01*
X154937142Y-70782380D02*
X154365714Y-71353809D01*
X155318095Y-70877619D02*
X155365714Y-70830000D01*
X155460952Y-70782380D01*
X155699047Y-70782380D01*
X155794285Y-70830000D01*
X155841904Y-70877619D01*
X155889523Y-70972857D01*
X155889523Y-71068095D01*
X155841904Y-71210952D01*
X155270476Y-71782380D01*
X155889523Y-71782380D01*
X156746666Y-71115714D02*
X156746666Y-71782380D01*
X156508571Y-70734761D02*
X156270476Y-71449047D01*
X156889523Y-71449047D01*
%TO.C,K23*%
X135385714Y-61602380D02*
X135385714Y-60602380D01*
X135957142Y-61602380D02*
X135528571Y-61030952D01*
X135957142Y-60602380D02*
X135385714Y-61173809D01*
X136338095Y-60697619D02*
X136385714Y-60650000D01*
X136480952Y-60602380D01*
X136719047Y-60602380D01*
X136814285Y-60650000D01*
X136861904Y-60697619D01*
X136909523Y-60792857D01*
X136909523Y-60888095D01*
X136861904Y-61030952D01*
X136290476Y-61602380D01*
X136909523Y-61602380D01*
X137242857Y-60602380D02*
X137861904Y-60602380D01*
X137528571Y-60983333D01*
X137671428Y-60983333D01*
X137766666Y-61030952D01*
X137814285Y-61078571D01*
X137861904Y-61173809D01*
X137861904Y-61411904D01*
X137814285Y-61507142D01*
X137766666Y-61554761D01*
X137671428Y-61602380D01*
X137385714Y-61602380D01*
X137290476Y-61554761D01*
X137242857Y-61507142D01*
%TO.C,K22*%
X116405714Y-70152380D02*
X116405714Y-69152380D01*
X116977142Y-70152380D02*
X116548571Y-69580952D01*
X116977142Y-69152380D02*
X116405714Y-69723809D01*
X117358095Y-69247619D02*
X117405714Y-69200000D01*
X117500952Y-69152380D01*
X117739047Y-69152380D01*
X117834285Y-69200000D01*
X117881904Y-69247619D01*
X117929523Y-69342857D01*
X117929523Y-69438095D01*
X117881904Y-69580952D01*
X117310476Y-70152380D01*
X117929523Y-70152380D01*
X118310476Y-69247619D02*
X118358095Y-69200000D01*
X118453333Y-69152380D01*
X118691428Y-69152380D01*
X118786666Y-69200000D01*
X118834285Y-69247619D01*
X118881904Y-69342857D01*
X118881904Y-69438095D01*
X118834285Y-69580952D01*
X118262857Y-70152380D01*
X118881904Y-70152380D01*
%TO.C,K21*%
X97365714Y-99772380D02*
X97365714Y-98772380D01*
X97937142Y-99772380D02*
X97508571Y-99200952D01*
X97937142Y-98772380D02*
X97365714Y-99343809D01*
X98318095Y-98867619D02*
X98365714Y-98820000D01*
X98460952Y-98772380D01*
X98699047Y-98772380D01*
X98794285Y-98820000D01*
X98841904Y-98867619D01*
X98889523Y-98962857D01*
X98889523Y-99058095D01*
X98841904Y-99200952D01*
X98270476Y-99772380D01*
X98889523Y-99772380D01*
X99841904Y-99772380D02*
X99270476Y-99772380D01*
X99556190Y-99772380D02*
X99556190Y-98772380D01*
X99460952Y-98915238D01*
X99365714Y-99010476D01*
X99270476Y-99058095D01*
%TO.C,K20*%
X78365714Y-99812380D02*
X78365714Y-98812380D01*
X78937142Y-99812380D02*
X78508571Y-99240952D01*
X78937142Y-98812380D02*
X78365714Y-99383809D01*
X79318095Y-98907619D02*
X79365714Y-98860000D01*
X79460952Y-98812380D01*
X79699047Y-98812380D01*
X79794285Y-98860000D01*
X79841904Y-98907619D01*
X79889523Y-99002857D01*
X79889523Y-99098095D01*
X79841904Y-99240952D01*
X79270476Y-99812380D01*
X79889523Y-99812380D01*
X80508571Y-98812380D02*
X80603809Y-98812380D01*
X80699047Y-98860000D01*
X80746666Y-98907619D01*
X80794285Y-99002857D01*
X80841904Y-99193333D01*
X80841904Y-99431428D01*
X80794285Y-99621904D01*
X80746666Y-99717142D01*
X80699047Y-99764761D01*
X80603809Y-99812380D01*
X80508571Y-99812380D01*
X80413333Y-99764761D01*
X80365714Y-99717142D01*
X80318095Y-99621904D01*
X80270476Y-99431428D01*
X80270476Y-99193333D01*
X80318095Y-99002857D01*
X80365714Y-98907619D01*
X80413333Y-98860000D01*
X80508571Y-98812380D01*
%TO.C,K15*%
X173375714Y-52792380D02*
X173375714Y-51792380D01*
X173947142Y-52792380D02*
X173518571Y-52220952D01*
X173947142Y-51792380D02*
X173375714Y-52363809D01*
X174899523Y-52792380D02*
X174328095Y-52792380D01*
X174613809Y-52792380D02*
X174613809Y-51792380D01*
X174518571Y-51935238D01*
X174423333Y-52030476D01*
X174328095Y-52078095D01*
X175804285Y-51792380D02*
X175328095Y-51792380D01*
X175280476Y-52268571D01*
X175328095Y-52220952D01*
X175423333Y-52173333D01*
X175661428Y-52173333D01*
X175756666Y-52220952D01*
X175804285Y-52268571D01*
X175851904Y-52363809D01*
X175851904Y-52601904D01*
X175804285Y-52697142D01*
X175756666Y-52744761D01*
X175661428Y-52792380D01*
X175423333Y-52792380D01*
X175328095Y-52744761D01*
X175280476Y-52697142D01*
%TO.C,K14*%
X154355714Y-52812380D02*
X154355714Y-51812380D01*
X154927142Y-52812380D02*
X154498571Y-52240952D01*
X154927142Y-51812380D02*
X154355714Y-52383809D01*
X155879523Y-52812380D02*
X155308095Y-52812380D01*
X155593809Y-52812380D02*
X155593809Y-51812380D01*
X155498571Y-51955238D01*
X155403333Y-52050476D01*
X155308095Y-52098095D01*
X156736666Y-52145714D02*
X156736666Y-52812380D01*
X156498571Y-51764761D02*
X156260476Y-52479047D01*
X156879523Y-52479047D01*
%TO.C,K13*%
X135385714Y-42592380D02*
X135385714Y-41592380D01*
X135957142Y-42592380D02*
X135528571Y-42020952D01*
X135957142Y-41592380D02*
X135385714Y-42163809D01*
X136909523Y-42592380D02*
X136338095Y-42592380D01*
X136623809Y-42592380D02*
X136623809Y-41592380D01*
X136528571Y-41735238D01*
X136433333Y-41830476D01*
X136338095Y-41878095D01*
X137242857Y-41592380D02*
X137861904Y-41592380D01*
X137528571Y-41973333D01*
X137671428Y-41973333D01*
X137766666Y-42020952D01*
X137814285Y-42068571D01*
X137861904Y-42163809D01*
X137861904Y-42401904D01*
X137814285Y-42497142D01*
X137766666Y-42544761D01*
X137671428Y-42592380D01*
X137385714Y-42592380D01*
X137290476Y-42544761D01*
X137242857Y-42497142D01*
%TO.C,K11*%
X97385714Y-80832380D02*
X97385714Y-79832380D01*
X97957142Y-80832380D02*
X97528571Y-80260952D01*
X97957142Y-79832380D02*
X97385714Y-80403809D01*
X98909523Y-80832380D02*
X98338095Y-80832380D01*
X98623809Y-80832380D02*
X98623809Y-79832380D01*
X98528571Y-79975238D01*
X98433333Y-80070476D01*
X98338095Y-80118095D01*
X99861904Y-80832380D02*
X99290476Y-80832380D01*
X99576190Y-80832380D02*
X99576190Y-79832380D01*
X99480952Y-79975238D01*
X99385714Y-80070476D01*
X99290476Y-80118095D01*
%TO.C,K10*%
X78365714Y-80792380D02*
X78365714Y-79792380D01*
X78937142Y-80792380D02*
X78508571Y-80220952D01*
X78937142Y-79792380D02*
X78365714Y-80363809D01*
X79889523Y-80792380D02*
X79318095Y-80792380D01*
X79603809Y-80792380D02*
X79603809Y-79792380D01*
X79508571Y-79935238D01*
X79413333Y-80030476D01*
X79318095Y-80078095D01*
X80508571Y-79792380D02*
X80603809Y-79792380D01*
X80699047Y-79840000D01*
X80746666Y-79887619D01*
X80794285Y-79982857D01*
X80841904Y-80173333D01*
X80841904Y-80411428D01*
X80794285Y-80601904D01*
X80746666Y-80697142D01*
X80699047Y-80744761D01*
X80603809Y-80792380D01*
X80508571Y-80792380D01*
X80413333Y-80744761D01*
X80365714Y-80697142D01*
X80318095Y-80601904D01*
X80270476Y-80411428D01*
X80270476Y-80173333D01*
X80318095Y-79982857D01*
X80365714Y-79887619D01*
X80413333Y-79840000D01*
X80508571Y-79792380D01*
%TO.C,K0*%
X97881904Y-61822380D02*
X97881904Y-60822380D01*
X98453333Y-61822380D02*
X98024761Y-61250952D01*
X98453333Y-60822380D02*
X97881904Y-61393809D01*
X99072380Y-60822380D02*
X99167619Y-60822380D01*
X99262857Y-60870000D01*
X99310476Y-60917619D01*
X99358095Y-61012857D01*
X99405714Y-61203333D01*
X99405714Y-61441428D01*
X99358095Y-61631904D01*
X99310476Y-61727142D01*
X99262857Y-61774761D01*
X99167619Y-61822380D01*
X99072380Y-61822380D01*
X98977142Y-61774761D01*
X98929523Y-61727142D01*
X98881904Y-61631904D01*
X98834285Y-61441428D01*
X98834285Y-61203333D01*
X98881904Y-61012857D01*
X98929523Y-60917619D01*
X98977142Y-60870000D01*
X99072380Y-60822380D01*
%TO.C,D31*%
X87502380Y-122864285D02*
X86502380Y-122864285D01*
X86502380Y-122626190D01*
X86550000Y-122483333D01*
X86645238Y-122388095D01*
X86740476Y-122340476D01*
X86930952Y-122292857D01*
X87073809Y-122292857D01*
X87264285Y-122340476D01*
X87359523Y-122388095D01*
X87454761Y-122483333D01*
X87502380Y-122626190D01*
X87502380Y-122864285D01*
X86502380Y-121959523D02*
X86502380Y-121340476D01*
X86883333Y-121673809D01*
X86883333Y-121530952D01*
X86930952Y-121435714D01*
X86978571Y-121388095D01*
X87073809Y-121340476D01*
X87311904Y-121340476D01*
X87407142Y-121388095D01*
X87454761Y-121435714D01*
X87502380Y-121530952D01*
X87502380Y-121816666D01*
X87454761Y-121911904D01*
X87407142Y-121959523D01*
X87502380Y-120388095D02*
X87502380Y-120959523D01*
X87502380Y-120673809D02*
X86502380Y-120673809D01*
X86645238Y-120769047D01*
X86740476Y-120864285D01*
X86788095Y-120959523D01*
%TO.C,J3*%
X117506666Y-45574880D02*
X117506666Y-46289166D01*
X117459047Y-46432023D01*
X117363809Y-46527261D01*
X117220952Y-46574880D01*
X117125714Y-46574880D01*
X117887619Y-45574880D02*
X118506666Y-45574880D01*
X118173333Y-45955833D01*
X118316190Y-45955833D01*
X118411428Y-46003452D01*
X118459047Y-46051071D01*
X118506666Y-46146309D01*
X118506666Y-46384404D01*
X118459047Y-46479642D01*
X118411428Y-46527261D01*
X118316190Y-46574880D01*
X118030476Y-46574880D01*
X117935238Y-46527261D01*
X117887619Y-46479642D01*
%TO.C,Y1*%
X167104246Y-93642250D02*
X167104246Y-94118440D01*
X166770913Y-93118440D02*
X167104246Y-93642250D01*
X167437579Y-93118440D01*
X168294722Y-94118440D02*
X167723294Y-94118440D01*
X168009008Y-94118440D02*
X168009008Y-93118440D01*
X167913770Y-93261298D01*
X167818532Y-93356536D01*
X167723294Y-93404155D01*
%TO.C,C1*%
X153437142Y-104396666D02*
X153484761Y-104444285D01*
X153532380Y-104587142D01*
X153532380Y-104682380D01*
X153484761Y-104825238D01*
X153389523Y-104920476D01*
X153294285Y-104968095D01*
X153103809Y-105015714D01*
X152960952Y-105015714D01*
X152770476Y-104968095D01*
X152675238Y-104920476D01*
X152580000Y-104825238D01*
X152532380Y-104682380D01*
X152532380Y-104587142D01*
X152580000Y-104444285D01*
X152627619Y-104396666D01*
X153532380Y-103444285D02*
X153532380Y-104015714D01*
X153532380Y-103730000D02*
X152532380Y-103730000D01*
X152675238Y-103825238D01*
X152770476Y-103920476D01*
X152818095Y-104015714D01*
%TO.C,C2*%
X173363333Y-101687142D02*
X173315714Y-101734761D01*
X173172857Y-101782380D01*
X173077619Y-101782380D01*
X172934761Y-101734761D01*
X172839523Y-101639523D01*
X172791904Y-101544285D01*
X172744285Y-101353809D01*
X172744285Y-101210952D01*
X172791904Y-101020476D01*
X172839523Y-100925238D01*
X172934761Y-100830000D01*
X173077619Y-100782380D01*
X173172857Y-100782380D01*
X173315714Y-100830000D01*
X173363333Y-100877619D01*
X173744285Y-100877619D02*
X173791904Y-100830000D01*
X173887142Y-100782380D01*
X174125238Y-100782380D01*
X174220476Y-100830000D01*
X174268095Y-100877619D01*
X174315714Y-100972857D01*
X174315714Y-101068095D01*
X174268095Y-101210952D01*
X173696666Y-101782380D01*
X174315714Y-101782380D01*
%TO.C,C3*%
X176033333Y-107047142D02*
X175985714Y-107094761D01*
X175842857Y-107142380D01*
X175747619Y-107142380D01*
X175604761Y-107094761D01*
X175509523Y-106999523D01*
X175461904Y-106904285D01*
X175414285Y-106713809D01*
X175414285Y-106570952D01*
X175461904Y-106380476D01*
X175509523Y-106285238D01*
X175604761Y-106190000D01*
X175747619Y-106142380D01*
X175842857Y-106142380D01*
X175985714Y-106190000D01*
X176033333Y-106237619D01*
X176366666Y-106142380D02*
X176985714Y-106142380D01*
X176652380Y-106523333D01*
X176795238Y-106523333D01*
X176890476Y-106570952D01*
X176938095Y-106618571D01*
X176985714Y-106713809D01*
X176985714Y-106951904D01*
X176938095Y-107047142D01*
X176890476Y-107094761D01*
X176795238Y-107142380D01*
X176509523Y-107142380D01*
X176414285Y-107094761D01*
X176366666Y-107047142D01*
%TO.C,C4*%
X159953333Y-99307142D02*
X159905714Y-99354761D01*
X159762857Y-99402380D01*
X159667619Y-99402380D01*
X159524761Y-99354761D01*
X159429523Y-99259523D01*
X159381904Y-99164285D01*
X159334285Y-98973809D01*
X159334285Y-98830952D01*
X159381904Y-98640476D01*
X159429523Y-98545238D01*
X159524761Y-98450000D01*
X159667619Y-98402380D01*
X159762857Y-98402380D01*
X159905714Y-98450000D01*
X159953333Y-98497619D01*
X160810476Y-98735714D02*
X160810476Y-99402380D01*
X160572380Y-98354761D02*
X160334285Y-99069047D01*
X160953333Y-99069047D01*
%TO.C,C5*%
X168243333Y-96147142D02*
X168195714Y-96194761D01*
X168052857Y-96242380D01*
X167957619Y-96242380D01*
X167814761Y-96194761D01*
X167719523Y-96099523D01*
X167671904Y-96004285D01*
X167624285Y-95813809D01*
X167624285Y-95670952D01*
X167671904Y-95480476D01*
X167719523Y-95385238D01*
X167814761Y-95290000D01*
X167957619Y-95242380D01*
X168052857Y-95242380D01*
X168195714Y-95290000D01*
X168243333Y-95337619D01*
X169148095Y-95242380D02*
X168671904Y-95242380D01*
X168624285Y-95718571D01*
X168671904Y-95670952D01*
X168767142Y-95623333D01*
X169005238Y-95623333D01*
X169100476Y-95670952D01*
X169148095Y-95718571D01*
X169195714Y-95813809D01*
X169195714Y-96051904D01*
X169148095Y-96147142D01*
X169100476Y-96194761D01*
X169005238Y-96242380D01*
X168767142Y-96242380D01*
X168671904Y-96194761D01*
X168624285Y-96147142D01*
%TO.C,C6*%
X160913333Y-116367142D02*
X160865714Y-116414761D01*
X160722857Y-116462380D01*
X160627619Y-116462380D01*
X160484761Y-116414761D01*
X160389523Y-116319523D01*
X160341904Y-116224285D01*
X160294285Y-116033809D01*
X160294285Y-115890952D01*
X160341904Y-115700476D01*
X160389523Y-115605238D01*
X160484761Y-115510000D01*
X160627619Y-115462380D01*
X160722857Y-115462380D01*
X160865714Y-115510000D01*
X160913333Y-115557619D01*
X161770476Y-115462380D02*
X161580000Y-115462380D01*
X161484761Y-115510000D01*
X161437142Y-115557619D01*
X161341904Y-115700476D01*
X161294285Y-115890952D01*
X161294285Y-116271904D01*
X161341904Y-116367142D01*
X161389523Y-116414761D01*
X161484761Y-116462380D01*
X161675238Y-116462380D01*
X161770476Y-116414761D01*
X161818095Y-116367142D01*
X161865714Y-116271904D01*
X161865714Y-116033809D01*
X161818095Y-115938571D01*
X161770476Y-115890952D01*
X161675238Y-115843333D01*
X161484761Y-115843333D01*
X161389523Y-115890952D01*
X161341904Y-115938571D01*
X161294285Y-116033809D01*
%TO.C,C7*%
X176113333Y-108437142D02*
X176065714Y-108484761D01*
X175922857Y-108532380D01*
X175827619Y-108532380D01*
X175684761Y-108484761D01*
X175589523Y-108389523D01*
X175541904Y-108294285D01*
X175494285Y-108103809D01*
X175494285Y-107960952D01*
X175541904Y-107770476D01*
X175589523Y-107675238D01*
X175684761Y-107580000D01*
X175827619Y-107532380D01*
X175922857Y-107532380D01*
X176065714Y-107580000D01*
X176113333Y-107627619D01*
X176446666Y-107532380D02*
X177113333Y-107532380D01*
X176684761Y-108532380D01*
%TO.C,D0*%
X110522380Y-58488095D02*
X109522380Y-58488095D01*
X109522380Y-58250000D01*
X109570000Y-58107142D01*
X109665238Y-58011904D01*
X109760476Y-57964285D01*
X109950952Y-57916666D01*
X110093809Y-57916666D01*
X110284285Y-57964285D01*
X110379523Y-58011904D01*
X110474761Y-58107142D01*
X110522380Y-58250000D01*
X110522380Y-58488095D01*
X109522380Y-57297619D02*
X109522380Y-57202380D01*
X109570000Y-57107142D01*
X109617619Y-57059523D01*
X109712857Y-57011904D01*
X109903333Y-56964285D01*
X110141428Y-56964285D01*
X110331904Y-57011904D01*
X110427142Y-57059523D01*
X110474761Y-57107142D01*
X110522380Y-57202380D01*
X110522380Y-57297619D01*
X110474761Y-57392857D01*
X110427142Y-57440476D01*
X110331904Y-57488095D01*
X110141428Y-57535714D01*
X109903333Y-57535714D01*
X109712857Y-57488095D01*
X109617619Y-57440476D01*
X109570000Y-57392857D01*
X109522380Y-57297619D01*
%TO.C,D10*%
X91402380Y-78444285D02*
X90402380Y-78444285D01*
X90402380Y-78206190D01*
X90450000Y-78063333D01*
X90545238Y-77968095D01*
X90640476Y-77920476D01*
X90830952Y-77872857D01*
X90973809Y-77872857D01*
X91164285Y-77920476D01*
X91259523Y-77968095D01*
X91354761Y-78063333D01*
X91402380Y-78206190D01*
X91402380Y-78444285D01*
X91402380Y-76920476D02*
X91402380Y-77491904D01*
X91402380Y-77206190D02*
X90402380Y-77206190D01*
X90545238Y-77301428D01*
X90640476Y-77396666D01*
X90688095Y-77491904D01*
X90402380Y-76301428D02*
X90402380Y-76206190D01*
X90450000Y-76110952D01*
X90497619Y-76063333D01*
X90592857Y-76015714D01*
X90783333Y-75968095D01*
X91021428Y-75968095D01*
X91211904Y-76015714D01*
X91307142Y-76063333D01*
X91354761Y-76110952D01*
X91402380Y-76206190D01*
X91402380Y-76301428D01*
X91354761Y-76396666D01*
X91307142Y-76444285D01*
X91211904Y-76491904D01*
X91021428Y-76539523D01*
X90783333Y-76539523D01*
X90592857Y-76491904D01*
X90497619Y-76444285D01*
X90450000Y-76396666D01*
X90402380Y-76301428D01*
%TO.C,D11*%
X94495714Y-72122380D02*
X94495714Y-71122380D01*
X94733809Y-71122380D01*
X94876666Y-71170000D01*
X94971904Y-71265238D01*
X95019523Y-71360476D01*
X95067142Y-71550952D01*
X95067142Y-71693809D01*
X95019523Y-71884285D01*
X94971904Y-71979523D01*
X94876666Y-72074761D01*
X94733809Y-72122380D01*
X94495714Y-72122380D01*
X96019523Y-72122380D02*
X95448095Y-72122380D01*
X95733809Y-72122380D02*
X95733809Y-71122380D01*
X95638571Y-71265238D01*
X95543333Y-71360476D01*
X95448095Y-71408095D01*
X96971904Y-72122380D02*
X96400476Y-72122380D01*
X96686190Y-72122380D02*
X96686190Y-71122380D01*
X96590952Y-71265238D01*
X96495714Y-71360476D01*
X96400476Y-71408095D01*
%TO.C,D12*%
X125292380Y-49254285D02*
X124292380Y-49254285D01*
X124292380Y-49016190D01*
X124340000Y-48873333D01*
X124435238Y-48778095D01*
X124530476Y-48730476D01*
X124720952Y-48682857D01*
X124863809Y-48682857D01*
X125054285Y-48730476D01*
X125149523Y-48778095D01*
X125244761Y-48873333D01*
X125292380Y-49016190D01*
X125292380Y-49254285D01*
X125292380Y-47730476D02*
X125292380Y-48301904D01*
X125292380Y-48016190D02*
X124292380Y-48016190D01*
X124435238Y-48111428D01*
X124530476Y-48206666D01*
X124578095Y-48301904D01*
X124387619Y-47349523D02*
X124340000Y-47301904D01*
X124292380Y-47206666D01*
X124292380Y-46968571D01*
X124340000Y-46873333D01*
X124387619Y-46825714D01*
X124482857Y-46778095D01*
X124578095Y-46778095D01*
X124720952Y-46825714D01*
X125292380Y-47397142D01*
X125292380Y-46778095D01*
%TO.C,D13*%
X144162380Y-46104285D02*
X143162380Y-46104285D01*
X143162380Y-45866190D01*
X143210000Y-45723333D01*
X143305238Y-45628095D01*
X143400476Y-45580476D01*
X143590952Y-45532857D01*
X143733809Y-45532857D01*
X143924285Y-45580476D01*
X144019523Y-45628095D01*
X144114761Y-45723333D01*
X144162380Y-45866190D01*
X144162380Y-46104285D01*
X144162380Y-44580476D02*
X144162380Y-45151904D01*
X144162380Y-44866190D02*
X143162380Y-44866190D01*
X143305238Y-44961428D01*
X143400476Y-45056666D01*
X143448095Y-45151904D01*
X143162380Y-44247142D02*
X143162380Y-43628095D01*
X143543333Y-43961428D01*
X143543333Y-43818571D01*
X143590952Y-43723333D01*
X143638571Y-43675714D01*
X143733809Y-43628095D01*
X143971904Y-43628095D01*
X144067142Y-43675714D01*
X144114761Y-43723333D01*
X144162380Y-43818571D01*
X144162380Y-44104285D01*
X144114761Y-44199523D01*
X144067142Y-44247142D01*
%TO.C,D14*%
X148412380Y-54914285D02*
X147412380Y-54914285D01*
X147412380Y-54676190D01*
X147460000Y-54533333D01*
X147555238Y-54438095D01*
X147650476Y-54390476D01*
X147840952Y-54342857D01*
X147983809Y-54342857D01*
X148174285Y-54390476D01*
X148269523Y-54438095D01*
X148364761Y-54533333D01*
X148412380Y-54676190D01*
X148412380Y-54914285D01*
X148412380Y-53390476D02*
X148412380Y-53961904D01*
X148412380Y-53676190D02*
X147412380Y-53676190D01*
X147555238Y-53771428D01*
X147650476Y-53866666D01*
X147698095Y-53961904D01*
X147745714Y-52533333D02*
X148412380Y-52533333D01*
X147364761Y-52771428D02*
X148079047Y-53009523D01*
X148079047Y-52390476D01*
%TO.C,D15*%
X167622380Y-52584285D02*
X166622380Y-52584285D01*
X166622380Y-52346190D01*
X166670000Y-52203333D01*
X166765238Y-52108095D01*
X166860476Y-52060476D01*
X167050952Y-52012857D01*
X167193809Y-52012857D01*
X167384285Y-52060476D01*
X167479523Y-52108095D01*
X167574761Y-52203333D01*
X167622380Y-52346190D01*
X167622380Y-52584285D01*
X167622380Y-51060476D02*
X167622380Y-51631904D01*
X167622380Y-51346190D02*
X166622380Y-51346190D01*
X166765238Y-51441428D01*
X166860476Y-51536666D01*
X166908095Y-51631904D01*
X166622380Y-50155714D02*
X166622380Y-50631904D01*
X167098571Y-50679523D01*
X167050952Y-50631904D01*
X167003333Y-50536666D01*
X167003333Y-50298571D01*
X167050952Y-50203333D01*
X167098571Y-50155714D01*
X167193809Y-50108095D01*
X167431904Y-50108095D01*
X167527142Y-50155714D01*
X167574761Y-50203333D01*
X167622380Y-50298571D01*
X167622380Y-50536666D01*
X167574761Y-50631904D01*
X167527142Y-50679523D01*
%TO.C,D20*%
X74845714Y-95472380D02*
X74845714Y-94472380D01*
X75083809Y-94472380D01*
X75226666Y-94520000D01*
X75321904Y-94615238D01*
X75369523Y-94710476D01*
X75417142Y-94900952D01*
X75417142Y-95043809D01*
X75369523Y-95234285D01*
X75321904Y-95329523D01*
X75226666Y-95424761D01*
X75083809Y-95472380D01*
X74845714Y-95472380D01*
X75798095Y-94567619D02*
X75845714Y-94520000D01*
X75940952Y-94472380D01*
X76179047Y-94472380D01*
X76274285Y-94520000D01*
X76321904Y-94567619D01*
X76369523Y-94662857D01*
X76369523Y-94758095D01*
X76321904Y-94900952D01*
X75750476Y-95472380D01*
X76369523Y-95472380D01*
X76988571Y-94472380D02*
X77083809Y-94472380D01*
X77179047Y-94520000D01*
X77226666Y-94567619D01*
X77274285Y-94662857D01*
X77321904Y-94853333D01*
X77321904Y-95091428D01*
X77274285Y-95281904D01*
X77226666Y-95377142D01*
X77179047Y-95424761D01*
X77083809Y-95472380D01*
X76988571Y-95472380D01*
X76893333Y-95424761D01*
X76845714Y-95377142D01*
X76798095Y-95281904D01*
X76750476Y-95091428D01*
X76750476Y-94853333D01*
X76798095Y-94662857D01*
X76845714Y-94567619D01*
X76893333Y-94520000D01*
X76988571Y-94472380D01*
%TO.C,D21*%
X92085714Y-91392380D02*
X92085714Y-90392380D01*
X92323809Y-90392380D01*
X92466666Y-90440000D01*
X92561904Y-90535238D01*
X92609523Y-90630476D01*
X92657142Y-90820952D01*
X92657142Y-90963809D01*
X92609523Y-91154285D01*
X92561904Y-91249523D01*
X92466666Y-91344761D01*
X92323809Y-91392380D01*
X92085714Y-91392380D01*
X93038095Y-90487619D02*
X93085714Y-90440000D01*
X93180952Y-90392380D01*
X93419047Y-90392380D01*
X93514285Y-90440000D01*
X93561904Y-90487619D01*
X93609523Y-90582857D01*
X93609523Y-90678095D01*
X93561904Y-90820952D01*
X92990476Y-91392380D01*
X93609523Y-91392380D01*
X94561904Y-91392380D02*
X93990476Y-91392380D01*
X94276190Y-91392380D02*
X94276190Y-90392380D01*
X94180952Y-90535238D01*
X94085714Y-90630476D01*
X93990476Y-90678095D01*
%TO.C,D22*%
X110712380Y-66664285D02*
X109712380Y-66664285D01*
X109712380Y-66426190D01*
X109760000Y-66283333D01*
X109855238Y-66188095D01*
X109950476Y-66140476D01*
X110140952Y-66092857D01*
X110283809Y-66092857D01*
X110474285Y-66140476D01*
X110569523Y-66188095D01*
X110664761Y-66283333D01*
X110712380Y-66426190D01*
X110712380Y-66664285D01*
X109807619Y-65711904D02*
X109760000Y-65664285D01*
X109712380Y-65569047D01*
X109712380Y-65330952D01*
X109760000Y-65235714D01*
X109807619Y-65188095D01*
X109902857Y-65140476D01*
X109998095Y-65140476D01*
X110140952Y-65188095D01*
X110712380Y-65759523D01*
X110712380Y-65140476D01*
X109807619Y-64759523D02*
X109760000Y-64711904D01*
X109712380Y-64616666D01*
X109712380Y-64378571D01*
X109760000Y-64283333D01*
X109807619Y-64235714D01*
X109902857Y-64188095D01*
X109998095Y-64188095D01*
X110140952Y-64235714D01*
X110712380Y-64807142D01*
X110712380Y-64188095D01*
%TO.C,D23*%
X133255714Y-57212380D02*
X133255714Y-56212380D01*
X133493809Y-56212380D01*
X133636666Y-56260000D01*
X133731904Y-56355238D01*
X133779523Y-56450476D01*
X133827142Y-56640952D01*
X133827142Y-56783809D01*
X133779523Y-56974285D01*
X133731904Y-57069523D01*
X133636666Y-57164761D01*
X133493809Y-57212380D01*
X133255714Y-57212380D01*
X134208095Y-56307619D02*
X134255714Y-56260000D01*
X134350952Y-56212380D01*
X134589047Y-56212380D01*
X134684285Y-56260000D01*
X134731904Y-56307619D01*
X134779523Y-56402857D01*
X134779523Y-56498095D01*
X134731904Y-56640952D01*
X134160476Y-57212380D01*
X134779523Y-57212380D01*
X135112857Y-56212380D02*
X135731904Y-56212380D01*
X135398571Y-56593333D01*
X135541428Y-56593333D01*
X135636666Y-56640952D01*
X135684285Y-56688571D01*
X135731904Y-56783809D01*
X135731904Y-57021904D01*
X135684285Y-57117142D01*
X135636666Y-57164761D01*
X135541428Y-57212380D01*
X135255714Y-57212380D01*
X135160476Y-57164761D01*
X135112857Y-57117142D01*
%TO.C,D24*%
X151445714Y-63282380D02*
X151445714Y-62282380D01*
X151683809Y-62282380D01*
X151826666Y-62330000D01*
X151921904Y-62425238D01*
X151969523Y-62520476D01*
X152017142Y-62710952D01*
X152017142Y-62853809D01*
X151969523Y-63044285D01*
X151921904Y-63139523D01*
X151826666Y-63234761D01*
X151683809Y-63282380D01*
X151445714Y-63282380D01*
X152398095Y-62377619D02*
X152445714Y-62330000D01*
X152540952Y-62282380D01*
X152779047Y-62282380D01*
X152874285Y-62330000D01*
X152921904Y-62377619D01*
X152969523Y-62472857D01*
X152969523Y-62568095D01*
X152921904Y-62710952D01*
X152350476Y-63282380D01*
X152969523Y-63282380D01*
X153826666Y-62615714D02*
X153826666Y-63282380D01*
X153588571Y-62234761D02*
X153350476Y-62949047D01*
X153969523Y-62949047D01*
%TO.C,D25*%
X167885714Y-63312380D02*
X167885714Y-62312380D01*
X168123809Y-62312380D01*
X168266666Y-62360000D01*
X168361904Y-62455238D01*
X168409523Y-62550476D01*
X168457142Y-62740952D01*
X168457142Y-62883809D01*
X168409523Y-63074285D01*
X168361904Y-63169523D01*
X168266666Y-63264761D01*
X168123809Y-63312380D01*
X167885714Y-63312380D01*
X168838095Y-62407619D02*
X168885714Y-62360000D01*
X168980952Y-62312380D01*
X169219047Y-62312380D01*
X169314285Y-62360000D01*
X169361904Y-62407619D01*
X169409523Y-62502857D01*
X169409523Y-62598095D01*
X169361904Y-62740952D01*
X168790476Y-63312380D01*
X169409523Y-63312380D01*
X170314285Y-62312380D02*
X169838095Y-62312380D01*
X169790476Y-62788571D01*
X169838095Y-62740952D01*
X169933333Y-62693333D01*
X170171428Y-62693333D01*
X170266666Y-62740952D01*
X170314285Y-62788571D01*
X170361904Y-62883809D01*
X170361904Y-63121904D01*
X170314285Y-63217142D01*
X170266666Y-63264761D01*
X170171428Y-63312380D01*
X169933333Y-63312380D01*
X169838095Y-63264761D01*
X169790476Y-63217142D01*
%TO.C,D30*%
X76175714Y-114462380D02*
X76175714Y-113462380D01*
X76413809Y-113462380D01*
X76556666Y-113510000D01*
X76651904Y-113605238D01*
X76699523Y-113700476D01*
X76747142Y-113890952D01*
X76747142Y-114033809D01*
X76699523Y-114224285D01*
X76651904Y-114319523D01*
X76556666Y-114414761D01*
X76413809Y-114462380D01*
X76175714Y-114462380D01*
X77080476Y-113462380D02*
X77699523Y-113462380D01*
X77366190Y-113843333D01*
X77509047Y-113843333D01*
X77604285Y-113890952D01*
X77651904Y-113938571D01*
X77699523Y-114033809D01*
X77699523Y-114271904D01*
X77651904Y-114367142D01*
X77604285Y-114414761D01*
X77509047Y-114462380D01*
X77223333Y-114462380D01*
X77128095Y-114414761D01*
X77080476Y-114367142D01*
X78318571Y-113462380D02*
X78413809Y-113462380D01*
X78509047Y-113510000D01*
X78556666Y-113557619D01*
X78604285Y-113652857D01*
X78651904Y-113843333D01*
X78651904Y-114081428D01*
X78604285Y-114271904D01*
X78556666Y-114367142D01*
X78509047Y-114414761D01*
X78413809Y-114462380D01*
X78318571Y-114462380D01*
X78223333Y-114414761D01*
X78175714Y-114367142D01*
X78128095Y-114271904D01*
X78080476Y-114081428D01*
X78080476Y-113843333D01*
X78128095Y-113652857D01*
X78175714Y-113557619D01*
X78223333Y-113510000D01*
X78318571Y-113462380D01*
%TO.C,D32*%
X113945714Y-84792380D02*
X113945714Y-83792380D01*
X114183809Y-83792380D01*
X114326666Y-83840000D01*
X114421904Y-83935238D01*
X114469523Y-84030476D01*
X114517142Y-84220952D01*
X114517142Y-84363809D01*
X114469523Y-84554285D01*
X114421904Y-84649523D01*
X114326666Y-84744761D01*
X114183809Y-84792380D01*
X113945714Y-84792380D01*
X114850476Y-83792380D02*
X115469523Y-83792380D01*
X115136190Y-84173333D01*
X115279047Y-84173333D01*
X115374285Y-84220952D01*
X115421904Y-84268571D01*
X115469523Y-84363809D01*
X115469523Y-84601904D01*
X115421904Y-84697142D01*
X115374285Y-84744761D01*
X115279047Y-84792380D01*
X114993333Y-84792380D01*
X114898095Y-84744761D01*
X114850476Y-84697142D01*
X115850476Y-83887619D02*
X115898095Y-83840000D01*
X115993333Y-83792380D01*
X116231428Y-83792380D01*
X116326666Y-83840000D01*
X116374285Y-83887619D01*
X116421904Y-83982857D01*
X116421904Y-84078095D01*
X116374285Y-84220952D01*
X115802857Y-84792380D01*
X116421904Y-84792380D01*
%TO.C,D33*%
X125382380Y-83644285D02*
X124382380Y-83644285D01*
X124382380Y-83406190D01*
X124430000Y-83263333D01*
X124525238Y-83168095D01*
X124620476Y-83120476D01*
X124810952Y-83072857D01*
X124953809Y-83072857D01*
X125144285Y-83120476D01*
X125239523Y-83168095D01*
X125334761Y-83263333D01*
X125382380Y-83406190D01*
X125382380Y-83644285D01*
X124382380Y-82739523D02*
X124382380Y-82120476D01*
X124763333Y-82453809D01*
X124763333Y-82310952D01*
X124810952Y-82215714D01*
X124858571Y-82168095D01*
X124953809Y-82120476D01*
X125191904Y-82120476D01*
X125287142Y-82168095D01*
X125334761Y-82215714D01*
X125382380Y-82310952D01*
X125382380Y-82596666D01*
X125334761Y-82691904D01*
X125287142Y-82739523D01*
X124382380Y-81787142D02*
X124382380Y-81168095D01*
X124763333Y-81501428D01*
X124763333Y-81358571D01*
X124810952Y-81263333D01*
X124858571Y-81215714D01*
X124953809Y-81168095D01*
X125191904Y-81168095D01*
X125287142Y-81215714D01*
X125334761Y-81263333D01*
X125382380Y-81358571D01*
X125382380Y-81644285D01*
X125334761Y-81739523D01*
X125287142Y-81787142D01*
%TO.C,D34*%
X148962380Y-87434285D02*
X147962380Y-87434285D01*
X147962380Y-87196190D01*
X148010000Y-87053333D01*
X148105238Y-86958095D01*
X148200476Y-86910476D01*
X148390952Y-86862857D01*
X148533809Y-86862857D01*
X148724285Y-86910476D01*
X148819523Y-86958095D01*
X148914761Y-87053333D01*
X148962380Y-87196190D01*
X148962380Y-87434285D01*
X147962380Y-86529523D02*
X147962380Y-85910476D01*
X148343333Y-86243809D01*
X148343333Y-86100952D01*
X148390952Y-86005714D01*
X148438571Y-85958095D01*
X148533809Y-85910476D01*
X148771904Y-85910476D01*
X148867142Y-85958095D01*
X148914761Y-86005714D01*
X148962380Y-86100952D01*
X148962380Y-86386666D01*
X148914761Y-86481904D01*
X148867142Y-86529523D01*
X148295714Y-85053333D02*
X148962380Y-85053333D01*
X147914761Y-85291428D02*
X148629047Y-85529523D01*
X148629047Y-84910476D01*
%TO.C,D35*%
X168062380Y-88804285D02*
X167062380Y-88804285D01*
X167062380Y-88566190D01*
X167110000Y-88423333D01*
X167205238Y-88328095D01*
X167300476Y-88280476D01*
X167490952Y-88232857D01*
X167633809Y-88232857D01*
X167824285Y-88280476D01*
X167919523Y-88328095D01*
X168014761Y-88423333D01*
X168062380Y-88566190D01*
X168062380Y-88804285D01*
X167062380Y-87899523D02*
X167062380Y-87280476D01*
X167443333Y-87613809D01*
X167443333Y-87470952D01*
X167490952Y-87375714D01*
X167538571Y-87328095D01*
X167633809Y-87280476D01*
X167871904Y-87280476D01*
X167967142Y-87328095D01*
X168014761Y-87375714D01*
X168062380Y-87470952D01*
X168062380Y-87756666D01*
X168014761Y-87851904D01*
X167967142Y-87899523D01*
X167062380Y-86375714D02*
X167062380Y-86851904D01*
X167538571Y-86899523D01*
X167490952Y-86851904D01*
X167443333Y-86756666D01*
X167443333Y-86518571D01*
X167490952Y-86423333D01*
X167538571Y-86375714D01*
X167633809Y-86328095D01*
X167871904Y-86328095D01*
X167967142Y-86375714D01*
X168014761Y-86423333D01*
X168062380Y-86518571D01*
X168062380Y-86756666D01*
X168014761Y-86851904D01*
X167967142Y-86899523D01*
%TO.C,D40*%
X164705702Y-119307037D02*
X165412809Y-118599931D01*
X165581168Y-118768289D01*
X165648511Y-118902976D01*
X165648511Y-119037663D01*
X165614839Y-119138679D01*
X165513824Y-119307037D01*
X165412809Y-119408053D01*
X165244450Y-119509068D01*
X165143435Y-119542740D01*
X165008748Y-119542740D01*
X164874061Y-119475396D01*
X164705702Y-119307037D01*
X166187259Y-119845785D02*
X165715855Y-120317190D01*
X166288275Y-119408053D02*
X165614839Y-119744770D01*
X166052572Y-120182503D01*
X166928038Y-120115160D02*
X166995381Y-120182503D01*
X167029053Y-120283518D01*
X167029053Y-120350862D01*
X166995381Y-120451877D01*
X166894366Y-120620236D01*
X166726007Y-120788595D01*
X166557649Y-120889610D01*
X166456633Y-120923282D01*
X166389290Y-120923282D01*
X166288275Y-120889610D01*
X166220931Y-120822266D01*
X166187259Y-120721251D01*
X166187259Y-120653908D01*
X166220931Y-120552892D01*
X166321946Y-120384534D01*
X166490305Y-120216175D01*
X166658664Y-120115160D01*
X166759679Y-120081488D01*
X166827023Y-120081488D01*
X166928038Y-120115160D01*
%TO.C,D41*%
X181709118Y-131106676D02*
X180727491Y-130915867D01*
X180772922Y-130682146D01*
X180846924Y-130551000D01*
X180958585Y-130475684D01*
X181061159Y-130447112D01*
X181257222Y-130436712D01*
X181397455Y-130463971D01*
X181575345Y-130547059D01*
X181659747Y-130611976D01*
X181735063Y-130723636D01*
X181754549Y-130872955D01*
X181709118Y-131106676D01*
X181327284Y-129577145D02*
X181981703Y-129704351D01*
X180907901Y-129738177D02*
X181563632Y-130108190D01*
X181681752Y-129500516D01*
X182181598Y-128675980D02*
X182072564Y-129236910D01*
X182127081Y-128956445D02*
X181145454Y-128765636D01*
X181267514Y-128886382D01*
X181342830Y-128998043D01*
X181371402Y-129100618D01*
%TO.C,J5*%
X185566666Y-121382380D02*
X185566666Y-122096666D01*
X185519047Y-122239523D01*
X185423809Y-122334761D01*
X185280952Y-122382380D01*
X185185714Y-122382380D01*
X186519047Y-121382380D02*
X186042857Y-121382380D01*
X185995238Y-121858571D01*
X186042857Y-121810952D01*
X186138095Y-121763333D01*
X186376190Y-121763333D01*
X186471428Y-121810952D01*
X186519047Y-121858571D01*
X186566666Y-121953809D01*
X186566666Y-122191904D01*
X186519047Y-122287142D01*
X186471428Y-122334761D01*
X186376190Y-122382380D01*
X186138095Y-122382380D01*
X186042857Y-122334761D01*
X185995238Y-122287142D01*
%TO.C,R1*%
X178703333Y-108842380D02*
X178370000Y-108366190D01*
X178131904Y-108842380D02*
X178131904Y-107842380D01*
X178512857Y-107842380D01*
X178608095Y-107890000D01*
X178655714Y-107937619D01*
X178703333Y-108032857D01*
X178703333Y-108175714D01*
X178655714Y-108270952D01*
X178608095Y-108318571D01*
X178512857Y-108366190D01*
X178131904Y-108366190D01*
X179655714Y-108842380D02*
X179084285Y-108842380D01*
X179370000Y-108842380D02*
X179370000Y-107842380D01*
X179274761Y-107985238D01*
X179179523Y-108080476D01*
X179084285Y-108128095D01*
%TO.C,R2*%
X177733333Y-112252380D02*
X177400000Y-111776190D01*
X177161904Y-112252380D02*
X177161904Y-111252380D01*
X177542857Y-111252380D01*
X177638095Y-111300000D01*
X177685714Y-111347619D01*
X177733333Y-111442857D01*
X177733333Y-111585714D01*
X177685714Y-111680952D01*
X177638095Y-111728571D01*
X177542857Y-111776190D01*
X177161904Y-111776190D01*
X178114285Y-111347619D02*
X178161904Y-111300000D01*
X178257142Y-111252380D01*
X178495238Y-111252380D01*
X178590476Y-111300000D01*
X178638095Y-111347619D01*
X178685714Y-111442857D01*
X178685714Y-111538095D01*
X178638095Y-111680952D01*
X178066666Y-112252380D01*
X178685714Y-112252380D01*
%TO.C,R3*%
X171742380Y-97616666D02*
X171266190Y-97950000D01*
X171742380Y-98188095D02*
X170742380Y-98188095D01*
X170742380Y-97807142D01*
X170790000Y-97711904D01*
X170837619Y-97664285D01*
X170932857Y-97616666D01*
X171075714Y-97616666D01*
X171170952Y-97664285D01*
X171218571Y-97711904D01*
X171266190Y-97807142D01*
X171266190Y-98188095D01*
X170742380Y-97283333D02*
X170742380Y-96664285D01*
X171123333Y-96997619D01*
X171123333Y-96854761D01*
X171170952Y-96759523D01*
X171218571Y-96711904D01*
X171313809Y-96664285D01*
X171551904Y-96664285D01*
X171647142Y-96711904D01*
X171694761Y-96759523D01*
X171742380Y-96854761D01*
X171742380Y-97140476D01*
X171694761Y-97235714D01*
X171647142Y-97283333D01*
%TD*%
M02*
