M48
; DRILL file {KiCad 5.1.10} date Mon Oct 18 20:14:39 2021
; FORMAT={-:-/ absolute / metric / decimal}
; #@! TF.CreationDate,2021-10-18T20:14:39+02:00
; #@! TF.GenerationSoftware,Kicad,Pcbnew,5.1.10
FMAT,2
METRIC
T1C0.400
T2C0.600
T3C0.650
T4C0.800
T5C0.850
T6C1.270
T7C2.200
T8C0.991
T9C1.152
T10C1.200
T11C1.702
T12C3.429
%
G90
G05
T1
X75.68Y-96.48
X75.72Y-115.83
X83.17Y-81.29
X84.9Y-113.16
X90.72Y-78.01
X95.14Y-95.24
X95.76Y-75.69
X102.26Y-58.64
X113.49Y-85.05
X114.04Y-67.0
X121.13Y-47.79
X121.64Y-74.36
X124.36Y-44.62
X124.38Y-62.04
X125.64Y-44.24
X125.78Y-73.1
X126.55Y-76.56
X127.06Y-44.2
X127.27Y-53.95
X127.27Y-63.82
X133.1Y-57.16
X133.26Y-80.61
X139.94Y-43.0
X140.604Y-81.296
X143.18Y-54.82
X143.26Y-62.67
X148.485Y-79.885
X148.59Y-99.61
X151.88Y-80.46
X152.37Y-53.85
X152.51Y-87.56
X153.67Y-107.24
X155.39Y-109.67
X157.01Y-101.04
X158.08Y-65.05
X158.21Y-85.93
X159.83Y-112.1
X160.56Y-115.54
X161.31Y-119.87
X161.46Y-103.86
X162.09Y-118.73
X162.1Y-107.34
X162.3Y-57.55
X162.98Y-105.355
X162.99Y-111.15
X163.65Y-116.6
X163.7Y-50.94
X163.7Y-108.86
X164.61Y-108.07
X164.635Y-67.21
X165.36Y-63.13
X165.37Y-107.26
X166.8Y-81.67
X166.8Y-105.72
X166.81Y-119.2
X168.08Y-102.58
X168.57Y-71.16
X169.64Y-117.63
X170.35Y-125.94
X170.855Y-72.57
X170.88Y-112.1
X171.26Y-90.59
X171.28Y-53.08
X171.49Y-66.97
X173.21Y-76.73
X174.0Y-114.26
X174.01Y-103.395
X176.55Y-109.41
X176.93Y-120.98
X177.41Y-83.6
X177.73Y-104.12
X178.6Y-48.43
X178.6Y-104.86
X179.38Y-120.15
X181.28Y-102.34
X182.44Y-101.5
X183.18Y-104.96
X186.76Y-121.41
X188.4Y-122.13
X189.14Y-129.19
T3
X185.4Y-114.23
X186.67Y-114.23
T5
X115.34Y-44.472
X120.34Y-44.472
T6
X74.56Y-125.18
X74.58Y-87.14
X74.58Y-106.16
X79.56Y-127.28
X79.58Y-89.24
X79.58Y-108.26
X84.56Y-125.18
X84.58Y-87.14
X84.58Y-106.16
X93.58Y-106.12
X93.58Y-125.17
X93.6Y-87.18
X93.62Y-68.17
X98.58Y-108.22
X98.58Y-127.27
X98.6Y-89.28
X98.62Y-70.27
X103.58Y-106.12
X103.58Y-125.17
X103.6Y-87.18
X103.62Y-68.17
X112.61Y-57.49
X112.62Y-76.5
X112.62Y-95.54
X117.61Y-59.59
X117.62Y-78.6
X117.62Y-97.64
X122.61Y-57.49
X122.62Y-76.5
X122.62Y-95.54
X131.6Y-48.94
X131.6Y-67.95
X131.62Y-86.97
X136.6Y-51.04
X136.6Y-70.05
X136.62Y-89.07
X141.6Y-48.94
X141.6Y-67.95
X141.62Y-86.97
X150.57Y-59.16
X150.58Y-78.13
X150.59Y-97.13
X155.57Y-61.26
X155.58Y-80.23
X155.59Y-99.23
X160.57Y-59.16
X160.58Y-78.13
X160.59Y-97.13
X168.366Y-131.725
X169.58Y-97.15
X169.59Y-59.14
X169.6Y-78.16
X172.915Y-134.677
X174.58Y-99.25
X174.59Y-61.24
X174.6Y-80.26
X178.208Y-133.495
X179.58Y-97.15
X179.59Y-59.14
X179.6Y-78.16
X187.096Y-135.024
X191.655Y-137.96
X196.944Y-136.761
T7
X89.37Y-112.08
X107.59Y-73.91
X146.46Y-65.23
X182.44Y-135.63
T8
X74.34Y-117.18
X74.36Y-79.14
X74.36Y-98.16
X84.78Y-117.18
X84.8Y-79.14
X84.8Y-98.16
X93.36Y-98.12
X93.36Y-117.17
X93.38Y-79.18
X93.4Y-60.17
X103.8Y-98.12
X103.8Y-117.17
X103.82Y-79.18
X103.84Y-60.17
X112.39Y-49.49
X112.4Y-68.5
X112.4Y-87.54
X122.83Y-49.49
X122.84Y-68.5
X122.84Y-87.54
X131.38Y-40.94
X131.38Y-59.95
X131.4Y-78.97
X141.82Y-40.94
X141.82Y-59.95
X141.84Y-78.97
X150.35Y-51.16
X150.36Y-70.13
X150.37Y-89.13
X160.79Y-51.16
X160.8Y-70.13
X160.81Y-89.13
X169.36Y-89.15
X169.37Y-51.14
X169.38Y-70.16
X169.566Y-123.812
X179.8Y-89.15
X179.81Y-51.14
X179.82Y-70.16
X179.841Y-125.661
X182.09Y-119.03
X188.269Y-127.107
X189.71Y-118.014
X189.71Y-120.046
X198.55Y-128.92
T9
X76.9Y-126.55
X136.51Y-40.06
X175.27Y-133.57
T10
X187.52Y-48.38
X187.52Y-55.38
T11
X74.06Y-121.38
X74.08Y-83.34
X74.08Y-102.36
X85.06Y-121.38
X85.08Y-83.34
X85.08Y-102.36
X93.08Y-102.32
X93.08Y-121.37
X93.1Y-83.38
X93.12Y-64.37
X104.08Y-102.32
X104.08Y-121.37
X104.1Y-83.38
X104.12Y-64.37
X112.11Y-53.69
X112.12Y-72.7
X112.12Y-91.74
X123.11Y-53.69
X123.12Y-72.7
X123.12Y-91.74
X131.1Y-45.14
X131.1Y-64.15
X131.12Y-83.17
X142.1Y-45.14
X142.1Y-64.15
X142.12Y-83.17
X150.07Y-55.36
X150.08Y-74.33
X150.09Y-93.33
X161.07Y-55.36
X161.08Y-74.33
X161.09Y-93.33
X168.547Y-127.896
X169.08Y-93.35
X169.09Y-55.34
X169.1Y-74.36
X179.373Y-129.844
X180.08Y-93.35
X180.09Y-55.34
X180.1Y-74.36
X187.264Y-131.195
X198.096Y-133.105
T12
X79.56Y-121.38
X79.58Y-83.34
X79.58Y-102.36
X98.58Y-102.32
X98.58Y-121.37
X98.6Y-83.38
X98.62Y-64.37
X117.61Y-53.69
X117.62Y-72.7
X117.62Y-91.74
X136.6Y-45.14
X136.6Y-64.15
X136.62Y-83.17
X155.57Y-55.36
X155.58Y-74.33
X155.59Y-93.33
X173.96Y-128.87
X174.58Y-93.35
X174.59Y-55.34
X174.6Y-74.36
X192.68Y-132.15
T2
G00X114.34Y-42.122
M15
G01X114.34Y-41.422
M16
G05
G00X121.34Y-41.422
M15
G01X121.34Y-42.122
M16
G05
T4
G00X184.22Y-49.53
M15
G01X184.22Y-50.23
M16
G05
G00X184.67Y-57.53
M15
G01X184.67Y-58.23
M16
G05
G00X187.17Y-58.68
M15
G01X187.87Y-58.68
M16
G05
G00X190.37Y-57.53
M15
G01X190.37Y-58.23
M16
G05
G00X190.82Y-49.53
M15
G01X190.82Y-50.23
M16
G05
T0
M30
