%TF.GenerationSoftware,KiCad,Pcbnew,5.1.10*%
%TF.CreationDate,2021-10-18T20:14:54+02:00*%
%TF.ProjectId,pinkytyl_v2,70696e6b-7974-4796-9c5f-76322e6b6963,rev?*%
%TF.SameCoordinates,Original*%
%TF.FileFunction,Soldermask,Top*%
%TF.FilePolarity,Negative*%
%FSLAX46Y46*%
G04 Gerber Fmt 4.6, Leading zero omitted, Abs format (unit mm)*
G04 Created by KiCad (PCBNEW 5.1.10) date 2021-10-18 20:14:54*
%MOMM*%
%LPD*%
G01*
G04 APERTURE LIST*
%ADD10C,1.701800*%
%ADD11C,0.990600*%
%ADD12C,2.032000*%
%ADD13C,3.429000*%
%ADD14C,1.152000*%
%ADD15R,0.550000X1.500000*%
%ADD16R,1.500000X0.550000*%
%ADD17C,4.400000*%
%ADD18C,1.200000*%
%ADD19O,1.800000X2.200000*%
%ADD20O,2.200000X1.800000*%
%ADD21O,1.000000X1.000000*%
%ADD22R,1.000000X1.000000*%
%ADD23R,1.200000X0.900000*%
%ADD24R,1.500000X1.900000*%
%ADD25C,1.450000*%
%ADD26R,0.400000X1.350000*%
%ADD27O,1.200000X1.900000*%
%ADD28R,1.200000X1.900000*%
%ADD29R,1.400000X1.200000*%
%ADD30R,0.900000X1.200000*%
%ADD31C,0.100000*%
%ADD32C,0.787400*%
G04 APERTURE END LIST*
D10*
%TO.C,K35*%
X169080000Y-93350000D03*
X180080000Y-93350000D03*
D11*
X179800000Y-89150000D03*
D12*
X174580000Y-99250000D03*
X169580000Y-97150000D03*
D13*
X174580000Y-93350000D03*
D12*
X179580000Y-97150000D03*
D11*
X169360000Y-89150000D03*
%TD*%
D10*
%TO.C,K33*%
X131120000Y-83170000D03*
X142120000Y-83170000D03*
D11*
X141840000Y-78970000D03*
D12*
X136620000Y-89070000D03*
X131620000Y-86970000D03*
D13*
X136620000Y-83170000D03*
D12*
X141620000Y-86970000D03*
D11*
X131400000Y-78970000D03*
%TD*%
D10*
%TO.C,K21*%
X93080000Y-102320000D03*
X104080000Y-102320000D03*
D11*
X103800000Y-98120000D03*
D12*
X98580000Y-108220000D03*
X93580000Y-106120000D03*
D13*
X98580000Y-102320000D03*
D12*
X103580000Y-106120000D03*
D11*
X93360000Y-98120000D03*
%TD*%
D10*
%TO.C,K20*%
X74080000Y-102360000D03*
X85080000Y-102360000D03*
D11*
X84800000Y-98160000D03*
D12*
X79580000Y-108260000D03*
X74580000Y-106160000D03*
D13*
X79580000Y-102360000D03*
D12*
X84580000Y-106160000D03*
D11*
X74360000Y-98160000D03*
%TD*%
D10*
%TO.C,K30*%
X74060000Y-121380000D03*
X85060000Y-121380000D03*
D11*
X84780000Y-117180000D03*
D12*
X79560000Y-127280000D03*
X74560000Y-125180000D03*
D13*
X79560000Y-121380000D03*
D12*
X84560000Y-125180000D03*
D11*
X74340000Y-117180000D03*
%TD*%
D10*
%TO.C,K31*%
X93080000Y-121370000D03*
X104080000Y-121370000D03*
D11*
X103800000Y-117170000D03*
D12*
X98580000Y-127270000D03*
X93580000Y-125170000D03*
D13*
X98580000Y-121370000D03*
D12*
X103580000Y-125170000D03*
D11*
X93360000Y-117170000D03*
%TD*%
D10*
%TO.C,K41*%
X187263557Y-131194935D03*
X198096443Y-133105065D03*
D11*
X198550019Y-128920251D03*
D12*
X191655476Y-137960366D03*
X187096098Y-135024029D03*
D13*
X192680000Y-132150000D03*
D12*
X196944176Y-136760510D03*
D11*
X188268626Y-127107364D03*
%TD*%
D10*
%TO.C,K40*%
X168546924Y-127896034D03*
X179373076Y-129843966D03*
D11*
X179841257Y-125660761D03*
D12*
X172915200Y-134676754D03*
X168366100Y-131724520D03*
D13*
X173960000Y-128870000D03*
D12*
X178208056Y-133495367D03*
D11*
X169566255Y-123811996D03*
%TD*%
D10*
%TO.C,K34*%
X150090000Y-93330000D03*
X161090000Y-93330000D03*
D11*
X160810000Y-89130000D03*
D12*
X155590000Y-99230000D03*
X150590000Y-97130000D03*
D13*
X155590000Y-93330000D03*
D12*
X160590000Y-97130000D03*
D11*
X150370000Y-89130000D03*
%TD*%
D10*
%TO.C,K32*%
X112120000Y-91740000D03*
X123120000Y-91740000D03*
D11*
X122840000Y-87540000D03*
D12*
X117620000Y-97640000D03*
X112620000Y-95540000D03*
D13*
X117620000Y-91740000D03*
D12*
X122620000Y-95540000D03*
D11*
X112400000Y-87540000D03*
%TD*%
D10*
%TO.C,K25*%
X169100000Y-74360000D03*
X180100000Y-74360000D03*
D11*
X179820000Y-70160000D03*
D12*
X174600000Y-80260000D03*
X169600000Y-78160000D03*
D13*
X174600000Y-74360000D03*
D12*
X179600000Y-78160000D03*
D11*
X169380000Y-70160000D03*
%TD*%
D10*
%TO.C,K24*%
X150080000Y-74330000D03*
X161080000Y-74330000D03*
D11*
X160800000Y-70130000D03*
D12*
X155580000Y-80230000D03*
X150580000Y-78130000D03*
D13*
X155580000Y-74330000D03*
D12*
X160580000Y-78130000D03*
D11*
X150360000Y-70130000D03*
%TD*%
D10*
%TO.C,K23*%
X131100000Y-64150000D03*
X142100000Y-64150000D03*
D11*
X141820000Y-59950000D03*
D12*
X136600000Y-70050000D03*
X131600000Y-67950000D03*
D13*
X136600000Y-64150000D03*
D12*
X141600000Y-67950000D03*
D11*
X131380000Y-59950000D03*
%TD*%
D10*
%TO.C,K22*%
X112120000Y-72700000D03*
X123120000Y-72700000D03*
D11*
X122840000Y-68500000D03*
D12*
X117620000Y-78600000D03*
X112620000Y-76500000D03*
D13*
X117620000Y-72700000D03*
D12*
X122620000Y-76500000D03*
D11*
X112400000Y-68500000D03*
%TD*%
D10*
%TO.C,K15*%
X169090000Y-55340000D03*
X180090000Y-55340000D03*
D11*
X179810000Y-51140000D03*
D12*
X174590000Y-61240000D03*
X169590000Y-59140000D03*
D13*
X174590000Y-55340000D03*
D12*
X179590000Y-59140000D03*
D11*
X169370000Y-51140000D03*
%TD*%
D10*
%TO.C,K14*%
X150070000Y-55360000D03*
X161070000Y-55360000D03*
D11*
X160790000Y-51160000D03*
D12*
X155570000Y-61260000D03*
X150570000Y-59160000D03*
D13*
X155570000Y-55360000D03*
D12*
X160570000Y-59160000D03*
D11*
X150350000Y-51160000D03*
%TD*%
D10*
%TO.C,K13*%
X131100000Y-45140000D03*
X142100000Y-45140000D03*
D11*
X141820000Y-40940000D03*
D12*
X136600000Y-51040000D03*
X131600000Y-48940000D03*
D13*
X136600000Y-45140000D03*
D12*
X141600000Y-48940000D03*
D11*
X131380000Y-40940000D03*
%TD*%
D10*
%TO.C,K12*%
X112110000Y-53690000D03*
X123110000Y-53690000D03*
D11*
X122830000Y-49490000D03*
D12*
X117610000Y-59590000D03*
X112610000Y-57490000D03*
D13*
X117610000Y-53690000D03*
D12*
X122610000Y-57490000D03*
D11*
X112390000Y-49490000D03*
%TD*%
D10*
%TO.C,K11*%
X93100000Y-83380000D03*
X104100000Y-83380000D03*
D11*
X103820000Y-79180000D03*
D12*
X98600000Y-89280000D03*
X93600000Y-87180000D03*
D13*
X98600000Y-83380000D03*
D12*
X103600000Y-87180000D03*
D11*
X93380000Y-79180000D03*
%TD*%
D10*
%TO.C,K10*%
X74080000Y-83340000D03*
X85080000Y-83340000D03*
D11*
X84800000Y-79140000D03*
D12*
X79580000Y-89240000D03*
X74580000Y-87140000D03*
D13*
X79580000Y-83340000D03*
D12*
X84580000Y-87140000D03*
D11*
X74360000Y-79140000D03*
%TD*%
D10*
%TO.C,K0*%
X93120000Y-64370000D03*
X104120000Y-64370000D03*
D11*
X103840000Y-60170000D03*
D12*
X98620000Y-70270000D03*
X93620000Y-68170000D03*
D13*
X98620000Y-64370000D03*
D12*
X103620000Y-68170000D03*
D11*
X93400000Y-60170000D03*
%TD*%
D14*
%TO.C,REF\u002A\u002A*%
X136510000Y-40060000D03*
%TD*%
%TO.C,REF\u002A\u002A*%
X175270000Y-133570000D03*
%TD*%
%TO.C,REF\u002A\u002A*%
X76900000Y-126550000D03*
%TD*%
D15*
%TO.C,U1*%
X166920000Y-113770000D03*
X166120000Y-113770000D03*
X165320000Y-113770000D03*
X164520000Y-113770000D03*
X163720000Y-113770000D03*
X162920000Y-113770000D03*
X162120000Y-113770000D03*
X161320000Y-113770000D03*
X160520000Y-113770000D03*
X159720000Y-113770000D03*
X158920000Y-113770000D03*
D16*
X157220000Y-112070000D03*
X157220000Y-111270000D03*
X157220000Y-110470000D03*
X157220000Y-109670000D03*
X157220000Y-108870000D03*
X157220000Y-108070000D03*
X157220000Y-107270000D03*
X157220000Y-106470000D03*
X157220000Y-105670000D03*
X157220000Y-104870000D03*
X157220000Y-104070000D03*
D15*
X158920000Y-102370000D03*
X159720000Y-102370000D03*
X160520000Y-102370000D03*
X161320000Y-102370000D03*
X162120000Y-102370000D03*
X162920000Y-102370000D03*
X163720000Y-102370000D03*
X164520000Y-102370000D03*
X165320000Y-102370000D03*
X166120000Y-102370000D03*
X166920000Y-102370000D03*
D16*
X168620000Y-104070000D03*
X168620000Y-104870000D03*
X168620000Y-105670000D03*
X168620000Y-106470000D03*
X168620000Y-107270000D03*
X168620000Y-108070000D03*
X168620000Y-108870000D03*
X168620000Y-109670000D03*
X168620000Y-110470000D03*
X168620000Y-111270000D03*
X168620000Y-112070000D03*
%TD*%
D17*
%TO.C,H4*%
X182440000Y-135630000D03*
%TD*%
%TO.C,H3*%
X146460000Y-65230000D03*
%TD*%
%TO.C,H2*%
X107590000Y-73910000D03*
%TD*%
%TO.C,H1*%
X89370000Y-112080000D03*
%TD*%
D18*
%TO.C,J1*%
X187520000Y-55380000D03*
X187520000Y-48380000D03*
D19*
X184220000Y-49880000D03*
X190370000Y-57880000D03*
D20*
X187520000Y-58680000D03*
D19*
X184670000Y-57880000D03*
X190820000Y-49880000D03*
%TD*%
D21*
%TO.C,J2*%
X185400000Y-114230000D03*
D22*
X186670000Y-114230000D03*
%TD*%
D23*
%TO.C,D31*%
X89050000Y-123300000D03*
X89050000Y-120000000D03*
%TD*%
D24*
%TO.C,J3*%
X116840000Y-41772500D03*
D25*
X120340000Y-44472500D03*
D26*
X118490000Y-44472500D03*
X119140000Y-44472500D03*
X116540000Y-44472500D03*
X117190000Y-44472500D03*
X117840000Y-44472500D03*
D25*
X115340000Y-44472500D03*
D24*
X118840000Y-41772500D03*
D27*
X121340000Y-41772500D03*
X114340000Y-41772500D03*
D28*
X114940000Y-41772500D03*
X120740000Y-41772500D03*
%TD*%
D29*
%TO.C,Y1*%
X166050000Y-98490000D03*
X163850000Y-98490000D03*
X163850000Y-96790000D03*
X166050000Y-96790000D03*
%TD*%
%TO.C,C1*%
G36*
G01*
X154900000Y-105190000D02*
X154560000Y-105190000D01*
G75*
G02*
X154420000Y-105050000I0J140000D01*
G01*
X154420000Y-104770000D01*
G75*
G02*
X154560000Y-104630000I140000J0D01*
G01*
X154900000Y-104630000D01*
G75*
G02*
X155040000Y-104770000I0J-140000D01*
G01*
X155040000Y-105050000D01*
G75*
G02*
X154900000Y-105190000I-140000J0D01*
G01*
G37*
G36*
G01*
X154900000Y-104230000D02*
X154560000Y-104230000D01*
G75*
G02*
X154420000Y-104090000I0J140000D01*
G01*
X154420000Y-103810000D01*
G75*
G02*
X154560000Y-103670000I140000J0D01*
G01*
X154900000Y-103670000D01*
G75*
G02*
X155040000Y-103810000I0J-140000D01*
G01*
X155040000Y-104090000D01*
G75*
G02*
X154900000Y-104230000I-140000J0D01*
G01*
G37*
%TD*%
%TO.C,C2*%
G36*
G01*
X171490000Y-102720000D02*
X171490000Y-102380000D01*
G75*
G02*
X171630000Y-102240000I140000J0D01*
G01*
X171910000Y-102240000D01*
G75*
G02*
X172050000Y-102380000I0J-140000D01*
G01*
X172050000Y-102720000D01*
G75*
G02*
X171910000Y-102860000I-140000J0D01*
G01*
X171630000Y-102860000D01*
G75*
G02*
X171490000Y-102720000I0J140000D01*
G01*
G37*
G36*
G01*
X170530000Y-102720000D02*
X170530000Y-102380000D01*
G75*
G02*
X170670000Y-102240000I140000J0D01*
G01*
X170950000Y-102240000D01*
G75*
G02*
X171090000Y-102380000I0J-140000D01*
G01*
X171090000Y-102720000D01*
G75*
G02*
X170950000Y-102860000I-140000J0D01*
G01*
X170670000Y-102860000D01*
G75*
G02*
X170530000Y-102720000I0J140000D01*
G01*
G37*
%TD*%
%TO.C,C3*%
G36*
G01*
X170510000Y-114010000D02*
X170850000Y-114010000D01*
G75*
G02*
X170990000Y-114150000I0J-140000D01*
G01*
X170990000Y-114430000D01*
G75*
G02*
X170850000Y-114570000I-140000J0D01*
G01*
X170510000Y-114570000D01*
G75*
G02*
X170370000Y-114430000I0J140000D01*
G01*
X170370000Y-114150000D01*
G75*
G02*
X170510000Y-114010000I140000J0D01*
G01*
G37*
G36*
G01*
X170510000Y-114970000D02*
X170850000Y-114970000D01*
G75*
G02*
X170990000Y-115110000I0J-140000D01*
G01*
X170990000Y-115390000D01*
G75*
G02*
X170850000Y-115530000I-140000J0D01*
G01*
X170510000Y-115530000D01*
G75*
G02*
X170370000Y-115390000I0J140000D01*
G01*
X170370000Y-115110000D01*
G75*
G02*
X170510000Y-114970000I140000J0D01*
G01*
G37*
%TD*%
%TO.C,C4*%
G36*
G01*
X164800000Y-99780000D02*
X164800000Y-100120000D01*
G75*
G02*
X164660000Y-100260000I-140000J0D01*
G01*
X164380000Y-100260000D01*
G75*
G02*
X164240000Y-100120000I0J140000D01*
G01*
X164240000Y-99780000D01*
G75*
G02*
X164380000Y-99640000I140000J0D01*
G01*
X164660000Y-99640000D01*
G75*
G02*
X164800000Y-99780000I0J-140000D01*
G01*
G37*
G36*
G01*
X163840000Y-99780000D02*
X163840000Y-100120000D01*
G75*
G02*
X163700000Y-100260000I-140000J0D01*
G01*
X163420000Y-100260000D01*
G75*
G02*
X163280000Y-100120000I0J140000D01*
G01*
X163280000Y-99780000D01*
G75*
G02*
X163420000Y-99640000I140000J0D01*
G01*
X163700000Y-99640000D01*
G75*
G02*
X163840000Y-99780000I0J-140000D01*
G01*
G37*
%TD*%
%TO.C,C5*%
G36*
G01*
X166340000Y-100220000D02*
X166340000Y-99880000D01*
G75*
G02*
X166480000Y-99740000I140000J0D01*
G01*
X166760000Y-99740000D01*
G75*
G02*
X166900000Y-99880000I0J-140000D01*
G01*
X166900000Y-100220000D01*
G75*
G02*
X166760000Y-100360000I-140000J0D01*
G01*
X166480000Y-100360000D01*
G75*
G02*
X166340000Y-100220000I0J140000D01*
G01*
G37*
G36*
G01*
X165380000Y-100220000D02*
X165380000Y-99880000D01*
G75*
G02*
X165520000Y-99740000I140000J0D01*
G01*
X165800000Y-99740000D01*
G75*
G02*
X165940000Y-99880000I0J-140000D01*
G01*
X165940000Y-100220000D01*
G75*
G02*
X165800000Y-100360000I-140000J0D01*
G01*
X165520000Y-100360000D01*
G75*
G02*
X165380000Y-100220000I0J140000D01*
G01*
G37*
%TD*%
%TO.C,C6*%
G36*
G01*
X166070000Y-115770000D02*
X166070000Y-115430000D01*
G75*
G02*
X166210000Y-115290000I140000J0D01*
G01*
X166490000Y-115290000D01*
G75*
G02*
X166630000Y-115430000I0J-140000D01*
G01*
X166630000Y-115770000D01*
G75*
G02*
X166490000Y-115910000I-140000J0D01*
G01*
X166210000Y-115910000D01*
G75*
G02*
X166070000Y-115770000I0J140000D01*
G01*
G37*
G36*
G01*
X165110000Y-115770000D02*
X165110000Y-115430000D01*
G75*
G02*
X165250000Y-115290000I140000J0D01*
G01*
X165530000Y-115290000D01*
G75*
G02*
X165670000Y-115430000I0J-140000D01*
G01*
X165670000Y-115770000D01*
G75*
G02*
X165530000Y-115910000I-140000J0D01*
G01*
X165250000Y-115910000D01*
G75*
G02*
X165110000Y-115770000I0J140000D01*
G01*
G37*
%TD*%
%TO.C,C7*%
G36*
G01*
X173890000Y-108350000D02*
X173550000Y-108350000D01*
G75*
G02*
X173410000Y-108210000I0J140000D01*
G01*
X173410000Y-107930000D01*
G75*
G02*
X173550000Y-107790000I140000J0D01*
G01*
X173890000Y-107790000D01*
G75*
G02*
X174030000Y-107930000I0J-140000D01*
G01*
X174030000Y-108210000D01*
G75*
G02*
X173890000Y-108350000I-140000J0D01*
G01*
G37*
G36*
G01*
X173890000Y-107390000D02*
X173550000Y-107390000D01*
G75*
G02*
X173410000Y-107250000I0J140000D01*
G01*
X173410000Y-106970000D01*
G75*
G02*
X173550000Y-106830000I140000J0D01*
G01*
X173890000Y-106830000D01*
G75*
G02*
X174030000Y-106970000I0J-140000D01*
G01*
X174030000Y-107250000D01*
G75*
G02*
X173890000Y-107390000I-140000J0D01*
G01*
G37*
%TD*%
D23*
%TO.C,D0*%
X108070000Y-56100000D03*
X108070000Y-59400000D03*
%TD*%
%TO.C,D10*%
X88950000Y-78880000D03*
X88950000Y-75580000D03*
%TD*%
D30*
%TO.C,D11*%
X94060000Y-73670000D03*
X97360000Y-73670000D03*
%TD*%
D23*
%TO.C,D12*%
X126840000Y-46390000D03*
X126840000Y-49690000D03*
%TD*%
%TO.C,D13*%
X145710000Y-46540000D03*
X145710000Y-43240000D03*
%TD*%
%TO.C,D14*%
X145960000Y-55350000D03*
X145960000Y-52050000D03*
%TD*%
%TO.C,D15*%
X165170000Y-49720000D03*
X165170000Y-53020000D03*
%TD*%
D30*
%TO.C,D20*%
X74410000Y-93020000D03*
X77710000Y-93020000D03*
%TD*%
%TO.C,D21*%
X91650000Y-92940000D03*
X94950000Y-92940000D03*
%TD*%
D23*
%TO.C,D22*%
X108260000Y-67100000D03*
X108260000Y-63800000D03*
%TD*%
D30*
%TO.C,D23*%
X136120000Y-54760000D03*
X132820000Y-54760000D03*
%TD*%
%TO.C,D24*%
X154310000Y-64830000D03*
X151010000Y-64830000D03*
%TD*%
%TO.C,D25*%
X167450000Y-64860000D03*
X170750000Y-64860000D03*
%TD*%
%TO.C,D30*%
X79040000Y-112010000D03*
X75740000Y-112010000D03*
%TD*%
%TO.C,D32*%
X113510000Y-82340000D03*
X116810000Y-82340000D03*
%TD*%
D23*
%TO.C,D33*%
X126930000Y-84080000D03*
X126930000Y-80780000D03*
%TD*%
%TO.C,D34*%
X146510000Y-87870000D03*
X146510000Y-84570000D03*
%TD*%
%TO.C,D35*%
X165610000Y-85940000D03*
X165610000Y-89240000D03*
%TD*%
D31*
%TO.C,D40*%
G36*
X164894264Y-122532792D02*
G01*
X165742792Y-121684264D01*
X166379188Y-122320660D01*
X165530660Y-123169188D01*
X164894264Y-122532792D01*
G37*
G36*
X162560812Y-120199340D02*
G01*
X163409340Y-119350812D01*
X164045736Y-119987208D01*
X163197208Y-120835736D01*
X162560812Y-120199340D01*
G37*
%TD*%
%TO.C,D41*%
G36*
X183648277Y-132385903D02*
G01*
X182470325Y-132156932D01*
X182642053Y-131273467D01*
X183820005Y-131502438D01*
X183648277Y-132385903D01*
G37*
G36*
X184277947Y-129146533D02*
G01*
X183099995Y-128917562D01*
X183271723Y-128034097D01*
X184449675Y-128263068D01*
X184277947Y-129146533D01*
G37*
%TD*%
D11*
%TO.C,J5*%
X189710000Y-118014000D03*
X189710000Y-120046000D03*
X182090000Y-119030000D03*
D32*
X183360000Y-119665000D03*
X184630000Y-119665000D03*
X185900000Y-119665000D03*
X187170000Y-119665000D03*
X188440000Y-119665000D03*
X188440000Y-118395000D03*
X187170000Y-118395000D03*
X185900000Y-118395000D03*
X184630000Y-118395000D03*
X183360000Y-118395000D03*
%TD*%
%TO.C,R1*%
G36*
G01*
X172430000Y-109495000D02*
X172430000Y-109125000D01*
G75*
G02*
X172565000Y-108990000I135000J0D01*
G01*
X172835000Y-108990000D01*
G75*
G02*
X172970000Y-109125000I0J-135000D01*
G01*
X172970000Y-109495000D01*
G75*
G02*
X172835000Y-109630000I-135000J0D01*
G01*
X172565000Y-109630000D01*
G75*
G02*
X172430000Y-109495000I0J135000D01*
G01*
G37*
G36*
G01*
X171410000Y-109495000D02*
X171410000Y-109125000D01*
G75*
G02*
X171545000Y-108990000I135000J0D01*
G01*
X171815000Y-108990000D01*
G75*
G02*
X171950000Y-109125000I0J-135000D01*
G01*
X171950000Y-109495000D01*
G75*
G02*
X171815000Y-109630000I-135000J0D01*
G01*
X171545000Y-109630000D01*
G75*
G02*
X171410000Y-109495000I0J135000D01*
G01*
G37*
%TD*%
%TO.C,R2*%
G36*
G01*
X171430000Y-110675000D02*
X171430000Y-110305000D01*
G75*
G02*
X171565000Y-110170000I135000J0D01*
G01*
X171835000Y-110170000D01*
G75*
G02*
X171970000Y-110305000I0J-135000D01*
G01*
X171970000Y-110675000D01*
G75*
G02*
X171835000Y-110810000I-135000J0D01*
G01*
X171565000Y-110810000D01*
G75*
G02*
X171430000Y-110675000I0J135000D01*
G01*
G37*
G36*
G01*
X172450000Y-110675000D02*
X172450000Y-110305000D01*
G75*
G02*
X172585000Y-110170000I135000J0D01*
G01*
X172855000Y-110170000D01*
G75*
G02*
X172990000Y-110305000I0J-135000D01*
G01*
X172990000Y-110675000D01*
G75*
G02*
X172855000Y-110810000I-135000J0D01*
G01*
X172585000Y-110810000D01*
G75*
G02*
X172450000Y-110675000I0J135000D01*
G01*
G37*
%TD*%
%TO.C,R3*%
G36*
G01*
X170210000Y-101115000D02*
X170210000Y-100745000D01*
G75*
G02*
X170345000Y-100610000I135000J0D01*
G01*
X170615000Y-100610000D01*
G75*
G02*
X170750000Y-100745000I0J-135000D01*
G01*
X170750000Y-101115000D01*
G75*
G02*
X170615000Y-101250000I-135000J0D01*
G01*
X170345000Y-101250000D01*
G75*
G02*
X170210000Y-101115000I0J135000D01*
G01*
G37*
G36*
G01*
X171230000Y-101115000D02*
X171230000Y-100745000D01*
G75*
G02*
X171365000Y-100610000I135000J0D01*
G01*
X171635000Y-100610000D01*
G75*
G02*
X171770000Y-100745000I0J-135000D01*
G01*
X171770000Y-101115000D01*
G75*
G02*
X171635000Y-101250000I-135000J0D01*
G01*
X171365000Y-101250000D01*
G75*
G02*
X171230000Y-101115000I0J135000D01*
G01*
G37*
%TD*%
M02*
