M48
; DRILL file {KiCad 5.1.10} date Mon Sep 27 15:43:27 2021
; FORMAT={-:-/ absolute / inch / decimal}
; #@! TF.CreationDate,2021-09-27T15:43:27+02:00
; #@! TF.GenerationSoftware,Kicad,Pcbnew,5.1.10
; #@! TF.FileFunction,NonPlated,1,2,NPTH
FMAT,2
INCH
T1C0.0390
T2C0.0454
T3C0.0472
T4C0.1570
%
G90
G05
T1
X7.1689Y-4.6862
X7.4689Y-4.6462
X7.4689Y-4.7262
T2
X2.9874Y-4.9776
X5.0752Y-1.5713
X6.6835Y-5.2114
T3
X7.3827Y-1.9047
X7.3827Y-2.1803
T4
X3.1323Y-4.7787
X3.1331Y-3.2811
X3.1331Y-4.0299
X3.8811Y-4.0283
X3.8811Y-4.7783
X3.8819Y-3.2827
X3.8827Y-2.5343
X4.6303Y-2.1138
X4.6307Y-2.8622
X4.6307Y-3.6118
X5.378Y-1.7772
X5.378Y-2.5256
X5.3787Y-3.2744
X6.1248Y-2.1795
X6.1252Y-2.9264
X6.1256Y-3.6744
X6.8488Y-5.0736
X6.8732Y-3.6752
X6.8736Y-2.1787
X6.874Y-2.9276
X7.5858Y-5.2028
T0
M30
